<?xml version="1.0" encoding="UTF-8"?>
<svg id="Layer_2" data-name="Layer 2" xmlns="http://www.w3.org/2000/svg" viewBox="0 0 95.74 67.02">
  <g id="Layer_1-2" data-name="Layer 1">
    <path d="M89.31,8.07c-4.85,2.86-7.01,9.63-12.45,11.08-3.25.52-5.47-2.66-7.24-5.3-2.1-3.21-4.75-5.92-8.36-7.19-3.3-1.28-6.99-.24-9.96,1.33-2.22,1.02-4.01,2-5.15,1.75-2.07-.72-2.79-3.48-4.43-4.85-4.99-4.18-8.65,4.81-12.29,6.98-4.39,2.35.89-13.97-6.54-11.65-4.14,1.81-6.23,7.26-8.33,11.15-3.53,7.29-8.52,13.61-12.49,20.6-3.88,6.84-1.99,11.49,2.99,16.9,7.1,9.27,8.24,8.09,16.3,1.81,5.18-3.82,6.19,3.02,9.54,5.46,4.24,2.34,7.69-4,9.79-6.61.51-.61.48-.05-.06,1.49-.9,2.52-2.83,6.9-3.24,9.86-.95,4.79,1.9,8.41,6.08,4.46,4.04-3.72,6.7-12.78,10.86-16.29,4.06-3.55,9.63-.07,14.45-2.24,3.11-1.22,5.65-3.74,8.02-6.08,5.55-5.26,12.58-8.08,15.64-15.31,1.9-5.02,4.95-12.16,2.2-17.11-1.11-1.59-3.08-1.65-5.2-.31l-.14.09Z" fill="#97999c"/>
    <g>
      <path d="M21.67,39c-3.89,1-10.43-1.05-10-6.13-.1-5.11,6.6-9.06,10.59-5.83,2.49,2.49,1.27,6.72,1.05,9.83-.22,1.01-.59,1.67-1.52,2.08l-.12.05ZM20.26,30.89c.47-2.55-2.01-2.31-3.43-1.23-1.72,1.17-2.43,3.86-1.27,5.32.55.7,1.53,1.03,2.4.9,2.15-.37,2.01-3.2,2.28-4.83l.02-.17Z" fill="#231f20"/>
      <path d="M33.5,35.85c-7.92,2.51-7.65-8.15-8.69-13.4-.12-1.43-.56-6.6,1.88-4.12.78.7,1.78,1.73,2.99,2.42,2.15,1.23,5.12,1.22,6.96,3.09,3.81,3.58,1.93,10.42-2.96,11.95l-.18.06ZM31.92,24.98c-1.45.24-2.86,1.4-2.83,2.93-.11,2.13,1.45,5,3.99,4.04,3.86-.98,3.04-7.32-.99-6.99l-.18.02Z" fill="#231f20"/>
      <path d="M45.08,40.98c-8.06-.51-6.52-13.63,1.32-12.8,6.91.95,5.6,12.82-1.14,12.8h-.18ZM45.73,31.19c-3.31.22-4.02,6.72-.35,6.66,3.07-.04,3.48-6.36.51-6.66h-.16Z" fill="#231f20"/>
      <path d="M63.68,26.87c-.77,14.14-14.18,6.47-10.95-4.04.43-1.56,1.47-3.42,2.29-1.22.81,2.01.46,5.74,2.31,7.22,2.37,1.2,3.88-9.95,5.84-6.71.54,1.29.57,2.99.52,4.53v.21Z" fill="#231f20"/>
      <path d="M73.73,31.43c-.54.15-1.17.09-1.6.46-.8.9-.14,2.56-.09,3.67.08,1.94,1.33,5.53-.77,6.42-2.32.54-2.18-2.58-2.31-4.01-.15-1.28-.31-2.66-.56-4.14-.15-.78-.42-1.34-.94-1.53-1.06-.27-2.84-.08-3.03-1.51-.12-1.13.91-1.72,1.95-1.77.4-.04.79-.13,1.06-.43.35-.55.02-1.37.12-2,0-1.36,1.75-2.14,2.66-1.1.73.71.54,2.2,1.41,2.76.78.39,2.13-.12,2.92.46,1.12.76.64,2.44-.64,2.69l-.17.04Z" fill="#231f20"/>
    </g>
  </g>
</svg>