<?xml version="1.0" encoding="UTF-8"?>
<svg id="Layer_2" data-name="Layer 2" xmlns="http://www.w3.org/2000/svg" viewBox="0 0 137.5 123.76">
  <g id="Layer_1-2" data-name="Layer 1">
    <path d="M135.58,103.47c3.62-10.87,1.22-23.58.14-35-1.3-11.77-2.36-23.56-3.53-35.34-2.85-28.53-10.58-36.71-39.32-31.78-18.3,2.87-37.19,3.25-55.7,4.84C20.56,7.36,3.82,11.25.84,30.27c-1.91,11.57-.02,24.02.58,35.77,1.8,16.73-.15,35.89,11.11,48.53,7.86,8.23,20.15,9.17,31.37,9.2,8.32-.03,16.7-.29,25.02-.57,8.21-.29,16.41-.68,24.61-1.17,16.94-1.27,35.67-1.51,42-18.4l.05-.16Z" fill="#8587a0"/>
    <path d="M111.36,50.82c.11-2.33.2-4.66.25-7,.16-8.88-.36-18.89-5.71-24.63-2.88-3.1-6.91-4.66-11.69-5.1-4.92-.44-10.36.22-15.64.84-2.04.24-4.09.5-6.13.72-.15,0-.3,0-.47.02-11.84,1.42-23.42,3.08-33.19,6.85-4.43,1.73-8.57,3.91-11.77,7.13-3.49,3.51-5.61,8.17-6.46,13.58-.88,5.61-.76,11.5-.6,17.28.01.5.04,1,.06,1.5-6.2,3.6-5.33,15.75,2.77,15.94,3.19,8.1,9.16,13.86,16.43,17.88,7.81,4.35,16.91,7.14,26.43,10.17,5.3,1.67,10.74,3.25,16.25,2.7,2.11.1,4.11-.27,5.56-1.21,3.36-1.08,6.37-2.7,8.89-4.7,7.2-5.65,10.96-14.7,12.73-24.66.33-1.88.59-3.79.82-5.72.89-1.97,1.52-4.07,1.88-6.26,5.38-3.05,5.25-12.91-.41-15.35ZM72.21,36.52c-.11-.44-.23-.88-.34-1.32.26-.08.52-.16.79-.25-.19.52-.33,1.05-.44,1.57Z" fill="#f5db79"/>
    <path d="M51.18,42.04c.95-3.29-1.69-6.79-5.26-6.33-1.07.12-2.44.07-3.61.03-1.18.28-3.13-.53-3.81,1.19-.46,3.18-.77,6.7.15,9.92,2.2,2.73,6.2,1.19,9.26,1.59,3.56.22,3.43-3.83,3.26-6.4Z" fill="#85a08d"/>
    <path d="M92.51,45.36c1.4-2.34-.85-7.27-3.72-8.53-2.94-1.77-6.51.14-9.28-.4-.09.02-.17.05-.25.08-1.13.14-2.41.34-2.92,1.71-.4,5.03-2.71,15.38,5.81,15.12,2.77-.57,6.36.61,8.3-.65,2.07-.97,2.5-4.4,2.07-7.33Z" fill="#85a08d"/>
    <path d="M77.09,86.66c1.46,2.13-2.5,9.51-9.24,9.51-7.15,1.1-12.19-6.51-11.03-9.13,1.4-1.55-4.63-2.67-3.55,1.34-.87,2.55-.43,6.91,2.48,8.74,2.66,2.13,7.79,1.74,10.55,1.66,2.84-.23,7.7.71,10.79-1.06,3.21-1.45,4.68-5.61,3.42-8.44,1.49-4.29-4.83-4.19-3.42-2.6Z" fill="#f37a7a"/>
  </g>
</svg>