<?xml version="1.0" encoding="UTF-8"?>
<svg id="Layer_2" data-name="Layer 2" xmlns="http://www.w3.org/2000/svg" viewBox="0 0 294.19 47.4">
  <g id="Layer_1-2" data-name="Layer 1">
    <path d="M14.49,5.35c-4.87.21-9.13,2.85-11.85,6.85C-.3,16.54,0,21.65.02,26.66c0,2.75.06,5.51.13,8.26s.09,5.94,1.8,8.33c3.1,4.33,9.83,4.1,14.57,4.14,2.71.02,5.43-.04,8.14-.07,2.57-.03,5.14.19,7.7-.08s5.39-.91,7.55-2.57c1.74-1.34,2.88-3.2,3.54-5.28,1.21-3.84.69-8.01.84-11.97.2-5.31-.4-10.54-3.72-14.91-3.05-4.01-7.88-6.19-12.76-7.01-5.89-.99-11.72.15-17.62-.21-3.21-.2-3.2,4.8,0,5,8.05.49,16.5-1.97,23.69,2.7,3.27,2.13,5.1,5.99,5.39,9.82.16,2.16,0,4.33-.05,6.49-.03,1.6.06,3.2,0,4.81-.11,2.99-.66,6.16-3.77,7.37-1.97.77-4.1.89-6.2.89-2.21,0-4.43-.03-6.64-.02-4.65.02-9.73.55-14.27-.67-1.77-.48-2.62-1.32-2.97-3.14-.45-2.33-.26-4.88-.31-7.25-.05-2.68-.07-5.36-.04-8.03.03-2.24-.08-4.44.81-6.54,1.46-3.46,4.83-6.21,8.65-6.37,3.21-.14,3.22-5.14,0-5h0Z" fill="#561e0d"/>
    <path d="M47.48,10.61c-.79,6.22-1.15,12.87,1.07,18.88,1.91,5.14,4.83,10.33,8.51,14.42,1.62,1.8,4.18,3.3,6.01.79l-2.82,1.15c3.82.66,7.15-.71,9.33-3.95,1.2-1.79,1.98-4.04,2.66-6.07s1.12-3.91,1.43-5.92c.55-3.54.66-7.09.58-10.67-.07-3.1-.26-6.2.02-9.29.12-1.35-1.23-2.5-2.5-2.5-1.45,0-2.38,1.15-2.5,2.5-.5,5.64.34,11.31-.21,16.96-.32,3.32-1.15,6.64-2.43,9.72-.53,1.27-1.09,2.79-2.19,3.68-.86.71-1.89.88-2.86.71-1.21-.21-2.11.17-2.82,1.15.85-1.18,2.14-1.21,2.75-.9-.17-.09-.42-.38.08.08-.32-.29-.62-.58-.92-.9-.81-.89-1.22-1.45-1.89-2.41-1.8-2.57-3.39-5.3-4.69-8.15-2.78-6.09-2.43-12.81-1.61-19.28.17-1.34-1.27-2.5-2.5-2.5-1.49,0-2.33,1.15-2.5,2.5h0Z" fill="#561e0d"/>
    <path d="M81.22,28.23c3.24,1.73,6.93,1.15,10.12-.41,3.35-1.63,5.75-4.35,7.14-7.77s1.25-6.7,1.45-10.13c.13-2.19-.51-4.28-2.33-5.61-1.25-.92-2.68-1.02-4.17-1.22-4.78-.63-10.42-.49-13.7,3.61-1.02,1.27-1.72,2.75-2.11,4.34-.47,1.91-.34,3.78-.4,5.72-.13,3.84-.41,7.6.55,11.38,1.09,4.28,3.76,7.89,8.16,9.08,3.09.83,6.19.22,9.32.38s3.21-4.83,0-5c-2.19-.12-4.39.23-6.58.05-1.85-.15-3.72-1-4.98-2.9-1.71-2.57-1.74-6.39-1.64-9.36.05-1.34.14-2.67.18-4.01.04-1.48-.11-2.88.29-4.32.22-.8.72-1.82,1.06-2.21.16-.18.32-.34.49-.51.03-.03.62-.5.21-.2.42-.31.9-.58,1.38-.79-.42.18.56-.17.69-.21.45-.12.9-.22,1.36-.29-.44.07.75-.06.97-.06.55-.02,1.09-.02,1.64,0,.9.03,1.8.12,2.7.23.71.09-.52-.08.17.02.2.03.4.06.6.09s.65.02.8.1c.81.43.29,2.32.25,3.04-.08,1.33-.02,2.68-.2,4.01-.38,2.82-1.66,5.45-3.95,7.11-2.04,1.48-4.99,2.56-6.95,1.51-2.84-1.52-5.37,2.8-2.52,4.32h0Z" fill="#561e0d"/>
    <path d="M107.85,7.88c.13,12.61-2.62,25.9,2.74,37.85l4.32-2.52c-2.02-4.03-2.27-9.16-2.42-13.63s-.31-9.51.89-13.97c.43-1.61,1.14-3.27,2.41-4.27,1.86-1.46,4.55-1.47,6.79-1.52,2.71-.05,5.42.03,8.13,0s5.41-.11,7.99.45c4.16.91,5.79,5.4,5.28,9.22-.18,1.34,1.28,2.5,2.5,2.5,1.5,0,2.32-1.16,2.5-2.5.65-4.89-1.63-10.34-5.97-12.86-2.57-1.5-5.68-1.65-8.59-1.77-3.1-.13-6.19.06-9.29,0-5.79-.1-12.19.21-15.24,5.97-2.48,4.67-2.47,10.52-2.46,15.67,0,6.37.25,13.42,3.15,19.22.6,1.21,2.31,1.55,3.42.9,1.27-.74,1.45-2.18.9-3.42-2.4-5.35-2.7-11.43-2.65-17.2s.65-12.08.59-18.12c-.03-3.22-5.03-3.22-5,0h0Z" fill="#561e0d"/>
    <path d="M151.65,9.83c.33,3.21-.05,6.39-.14,9.6s.25,6.72,1.06,9.96c1.11,4.45,4.04,12.3,9.94,11.55l-2.41-1.84c.28,1.49,1.88,2.4,3.3,2.04.93-.24,1.57-.92,2.14-1.64,1.47-1.89,2.6-4.04,3.7-6.15,3.08-5.89,5.75-12.06,7.81-18.38.42-1.29.81-2.58,1.23-3.87.17-.53.35-1.06.54-1.58.07-.18.33-.84.11-.32.1-.22.2-.44.31-.66.6-1.21.33-2.71-.9-3.42-1.1-.64-2.82-.32-3.42.9-1.1,2.23-1.73,4.66-2.49,7.02-1.11,3.45-2.4,6.83-3.85,10.16-1.34,3.09-2.82,6.13-4.43,9.08-.65,1.19-1.32,2.39-2.07,3.52-.13.2-.27.38-.4.58-.36.54.18-.28-.06.08-.05.08-.32.26-.33.34.24-.24.52-.4.84-.48,2.09,2.1,3.03,2.58,2.8,1.46-.18-.96-1.4-1.96-2.41-1.84-.23.03-.46.05-.7.04.49.02-.09-.02-.23-.07-.43-.17.11.08-.14-.07-.09-.05-.57-.38-.45-.29-.56-.46-1.08-1.22-1.54-2.02-1.19-2.08-1.88-4.43-2.36-6.77-.54-2.63-.68-5.45-.55-8.28s.41-5.75.11-8.64c-.14-1.34-1.05-2.5-2.5-2.5-1.24,0-2.64,1.15-2.5,2.5h0Z" fill="#561e0d"/>
    <path d="M189.69,4.51c.38,10.52.76,21.04,1.14,31.56.06,1.71.12,3.42.18,5.12.12,3.21,5.12,3.22,5,0-.38-10.44-.75-20.88-1.13-31.32-.06-1.79-.13-3.57-.19-5.36-.12-3.21-5.12-3.22-5,0h0Z" fill="#561e0d"/>
    <path d="M213.52,24.97c5.1,1.09,10.53,2.1,15.71,1.02,4.38-.92,8.16-4.09,8.96-8.62s-.58-9.02-3.84-12.18c-3.75-3.63-8.91-4.67-13.94-5.07-4.53-.36-9.14.11-13.67.33-2.54.12-5.12,1.27-6.66,3.34s-1.79,4.77-1.83,7.3c-.04,2.31.01,4.62-.08,6.94-.09,2.46-.13,4.92.15,7.37.33,2.78.9,5.59,2.33,8.03s3.46,3.94,5.98,4.92,5.5,1.19,8.27,1.31,5.79.22,8.69.1c2.28-.1,4.55-.3,6.83-.32.87,0,2.07.03,2.74.12.48.07,1.92.45,2.2.57,1.24.54,2.68.36,3.42-.9.62-1.06.35-2.88-.9-3.42-3.06-1.34-6.27-1.47-9.56-1.31-4.22.2-8.36.34-12.58.18-3.63-.13-8.52-.1-10.67-3.61s-2.07-8.52-1.92-12.64c.07-2.07.1-4.11.08-6.18-.02-1.67-.21-4.08.85-5.51.99-1.33,2.78-1.28,4.26-1.34,1.97-.08,3.94-.23,5.91-.32,6.37-.3,17.43-.16,19,7.94.65,3.37-.48,6.66-4.09,7.81-4.55,1.45-9.79.28-14.31-.69-3.14-.67-4.48,4.15-1.33,4.82h0Z" fill="#561e0d"/>
    <path d="M244.44,8.8c.58,4.74-.39,9.51-.21,14.26.22,5.82,2.23,11.09,6.46,15.18,2.1,2.03,5.17-.52,3.93-3.03-.22-.45.16.46.05.14-.04-.12-.09-.24-.13-.36-.06-.24-.13-.47-.18-.71s-.12-.91-.06-.31c-.03-.36-.06-.72-.07-1.08-.02-.69,0-1.38.05-2.06.02-.35.06-.7.1-1.05.02-.2.05-.4.07-.6-.06.44.04-.24.05-.32.56-3.47,1.57-6.9,2.92-10.14,1.05-2.52,2.89-5.9,4.61-7.76.42-.45.87-.88,1.35-1.27-.49.39.27-.17.42-.26.2-.12.94-.45.34-.22.26-.1.52-.16.79-.25.62-.2-.35-.09.28-.02.2.02.43.05.63.05.66-.01.97-.3,1.51-.54.91-.4-.69.35-.7.36-.58.16-1.31.04-1.71-.21s-.46-.39-.68-.66c.06.07.1.17.14.25.27.49-.19-.64-.05-.12.2.71.44,1.41.62,2.14.56,2.3.96,4.63,1.38,6.95.98,5.52,1.84,11.09,3.21,16.53.54,2.14,1.12,4.51,2.33,6.38,1.37,2.12,4.07,2.99,5.98.94l-1.77.73c2.96.38,5.76-1.56,7.76-3.53,2.49-2.46,4.46-5.54,5.96-8.68,1.66-3.48,2.82-7.15,3.33-10.97.22-1.62.32-3.25.44-4.88.1-1.45.13-2.19.53-3.58.9-3.1-3.93-4.42-4.82-1.33-1,3.47-.64,7.19-1.32,10.73-.84,4.29-2.58,8.39-5.03,12.01-1.03,1.52-2.23,3.01-3.68,4.15-1.19.93-1.9,1.11-3.04,1.12-.8,0-1.32.23-1.91.75-.24.21-.45.28.19-.11-.38.23.53-.17.31-.11.19-.05.47-.05.66-.02.43.06.58.18.83.37-.08-.06-.15-.15-.21-.23-.18-.22.37.63.1.11-.14-.27-.3-.54-.44-.81-.09-.18-.28-.72,0,.02-.08-.22-.17-.43-.25-.64-.32-.87-.58-1.75-.83-2.64-.61-2.24-1.09-4.51-1.53-6.78-.95-4.84-1.7-9.71-2.65-14.55-.34-1.76-.66-3.58-1.28-5.27-.28-.76-.59-1.54-1.19-2.11-1.14-1.1-2.79-1.02-3.94,0l1.77-.73c-5.14-.68-9.02,4.98-11.11,8.84-2.86,5.27-4.77,11.23-5.37,17.2-.26,2.59-.21,5.35.97,7.72l3.93-3.03c-3.58-3.46-4.97-7.77-5.02-12.66-.04-4.41.77-8.84.24-13.24-.16-1.34-1.03-2.5-2.5-2.5-1.22,0-2.67,1.15-2.5,2.5h0Z" fill="#561e0d"/>
  </g>
</svg>