<?xml version="1.0" encoding="UTF-8"?>
<svg id="Layer_2" data-name="Layer 2" xmlns="http://www.w3.org/2000/svg" xmlns:xlink="http://www.w3.org/1999/xlink" viewBox="0 0 120.6 138.65">
  <defs>
    <linearGradient id="linear-gradient" x1="0" y1="69.33" x2="120.6" y2="69.33" gradientUnits="userSpaceOnUse">
      <stop offset="0" stop-color="#da4189"/>
      <stop offset=".4" stop-color="#b04198"/>
      <stop offset=".44" stop-color="#b74f91"/>
      <stop offset=".63" stop-color="#d68776"/>
      <stop offset=".8" stop-color="#ecaf63"/>
      <stop offset=".92" stop-color="#f9c857"/>
      <stop offset="1" stop-color="#ffd253"/>
    </linearGradient>
    <linearGradient id="linear-gradient-2" x1="81.39" y1="47.6" x2="91.05" y2="47.6" xlink:href="#linear-gradient"/>
    <linearGradient id="linear-gradient-3" x1="40.59" y1="76.76" x2="88.08" y2="76.76" xlink:href="#linear-gradient"/>
  </defs>
  <g id="Layer_1-2" data-name="Layer 1">
    <path d="M117.85,53.91c-2.39-12.68-5.45-37.2-17.51-49.28-13.23-12.58-29.44,2.84-43.49,18.16-14.79,16.22-29.01,27.41-42.38,23.15-1.65-.43-2.42-.13-2.54.74-8.91-4.99-12.61.19-11.82,11.1.6,7.52,2.08,14.48,2.72,20.76.64,6.37.6,12.71,1.04,18.73.7,10.7,4.27,12.99,15.27,10.74,11.55-1.66,24.84,8.06,36.83,16.8,14.66,10.63,29.31,18.84,43.91,10.22,5.34-2.89,10.54-8.99,14.23-17.44,3.75-8.6,5.04-15.91,5.71-22.06,1.56-14.37.72-25.86-1.96-41.64ZM104.78,116.72c-4.03,5.43-10.57,6.86-15.24,7.39-5.76.91-11.51.18-17.27-1.62-11.14-3.16-22.64-10.85-34.14-16.24-9.14-4.96-19.19-3.94-22.55-8.23-1.73-2.5-1.79-6.08-1.92-9.49-.16-4.23-.47-8.42-1.13-12.77-.74-4.24-8.1-26.13,5.05-20.46,3.32.9,4.92-.68,4.82-2.2,18.37-.37,39.1-30.51,59-37.51,4.71-1.43,9.57-1.5,14.08.75,5.64,2.99,7.36,10.29,9.13,17.92,3.54,15.71,5.55,30.3,5.89,44.4.24,9.89,1.62,28-5.73,38.06Z" fill="url(#linear-gradient)"/>
    <path d="M86.22,42.6c-3.22,4.02-4.83,1.75-4.83,4.87,0,3.37,1.61,1.11,4.83,5.13,3.22,4.02,4.83-3.25,4.83-5.13,0-1.63-1.61-8.89-4.83-4.87Z" fill="url(#linear-gradient-2)"/>
    <path d="M86.58,69.68c-1.87-6.08-5.38-16.25-9.79-19.18-4.42-3.58-9.75.09-15.26,6.68-1.06.75-2.24,2.01-3.45,3.52-.15.19-.31.38-.46.57-.41.44-.75.85-1.06,1.23-4.28,5.88-8.94,5.46-12.12,8.92-3.18,2.8-4.87,9.49-3.21,14.38,1.95,4.04,7.32-.09,13.53,4.14,6.21,2.75,13.27,13.83,18.6,14.17,6.53,2.29,10.86-8.48,13.04-15.28,2.18-7.82,2.22-11.68.17-19.14ZM77.64,85.53c-1.32,5.91-5.4,5.54-9.19,4.07-4.89-2.43-17.73-7.05-17.77-10.07-.04-3.82,6.59-7.34,11.58-13.84,6.72-5.82,12.78-2.78,14.95,7.15.93,3.95,1.36,8.65.43,12.68Z" fill="url(#linear-gradient-3)"/>
  </g>
</svg>