<?xml version="1.0" encoding="UTF-8"?>
<svg id="Layer_2" data-name="Layer 2" xmlns="http://www.w3.org/2000/svg" viewBox="0 0 467.97 123.2">
  <g id="Layer_1-2" data-name="Layer 1">
    <path d="M41.39,54.77c-8.28-2.76-27.12-2.07-35.68,3.38-4.71,2.71-7.45,7.63-4.47,12.39,7.76,10.65,23.84,11.8,34.81,17.44,9.87,4.62,4.01,10.94-3.63,14.1-3.06,1.33-6.76,2.47-10.39,3.47-2.86,1.09-23.9,4.96-15.42,5.92,9.54.52,22.66-.84,33.48-6.12,6.6-3.12,17.34-11.59,9.68-18.7-4.76-3.91-11.66-5.39-18.15-7.43-31.3-8.47-28.98-17.52,1.79-22.11,1.01-.32,10.15-.94,8.04-2.28l-.08-.04Z" fill="#3054a5"/>
    <path d="M59.07.57c-1.34,4.87-1.55,16.91-1.46,24.15.19,8.13.34,16.87,1.83,24.22.38,1.67,1.18,2.95,2.52,1.43,3.8-4.01,8.71-15.95,15.29-14.1,3.2,1.26,5.43,4.39,7.53,7.1,1.24,1.36,5.18,8.32,5.92,6.56.38-3.18-2.17-10.43-4.06-14.49-10.64-22.24-22.24-6.47-25.39,10.01-.51,2.42-.92,5.09-.97,7.37-.03,1.14.12,2.41.6.72,2.62-15.18,1.91-33.37.09-48.46-.2-1.19-.88-6.68-1.85-4.62l-.04.11Z" fill="#3054a5"/>
    <path d="M101.82,63.9c6.71-.02,26.95-6.28,22.59-15.18-3.32-6.05-16.3-6.97-23.34-4.16-15.8,5.2-18.91,22.98-5.33,32.75,3.57,2.64,8.27,4.5,12.24,5.51,3.23.86,10.39,2.08,4.73-2.18-3.69-2.91-12.32-7.7-15.1-13.51-3.26-5.88,1.12-12.9,6.7-15.49,2.07-1.25,9.33-3.02,8.92.67-.61,2.38-6.57,6.29-9.89,8.68-.76.63-3.75,2.52-1.58,2.9h.06Z" fill="#3054a5"/>
    <path d="M115.48,95.36c-3.07,4.58-2.44,16.32,1.13,21.57,12.11,17.19,40.19-3.54,22.15-31-2.44-3.77-2.83-2.61-.63.95,2.8,4.65,6.77,9.39,11.32,13.62,3.63,3.38,7.23,6.48,9.94,9,3.55,3.31,5.61,5.36,6.32,4.92.71-.36.07-3.23-2.42-7.42-4.72-8.34-15.49-16.5-22.98-22.29-2.76-2.04-6.61-4.38-5.7.82.47,3.46,2.48,9.72,2.32,15.3.21,5.26-3.99,13.54-10.17,10.8-4.03-2.1-6.94-8.74-8.59-12.69-.7-1.35-1.45-4.08-2.63-3.62l-.06.04Z" fill="#3054a5"/>
    <path d="M208.86,67.75c-.87.22-2.87,2.63-5.14,6.69-4.14,7-7.06,17.95-4.79,26.5,3.82,18.24,25.14,27.51,39.85,15,10.4-8.43,13.42-25.98,6.84-38.32-3.58-8.05-13.74-15.17-20.27-16.97-3.2-.97-3.49-.03.49,3.54,2.35,2.2,5.88,5.21,9.05,8.99,4.85,5.58,8.06,13.3,7.47,20.93-2.05,27.17-35.19,28.22-37.64.82-.36-6.21,1.75-13.99,3.21-19.38.48-2.27,2.43-7.66.98-7.8h-.06Z" fill="#3054a5"/>
    <path d="M246.98,29.14c-.62,1.94-.5,4.9.12,7.02.46,1.62,1.61,3.84,3.38,2.83,2.64-2.45,1.67-8.16.06-10.64-1.21-1.85-2.86-1.35-3.46.48l-.11.31Z" fill="#3054a5"/>
    <path d="M259.6,48.61c-3.21,9.6-1.25,30.55,2.47,40.58,1.51,3.72,1.96.82,1.99-1.53.05-12.6-.69-26.93,4.8-38.53,1.97-3.86,5.08-8.43,9.31-9.08,5.7-.07,1.19,17.29,1.67,22.66-.06,5.6,1.18,16.63,6.58,19.09,1.54.08.29-4.2.48-11.42.05-2.88.21-5.85.44-8.77.46-9.39,3.74-19.36-1.15-25.78-3.52-4.43-9.88-4.52-14.84-2.24-6.98,3.2-11.39,9.76-13.57,17.62-2.5,9.02-1.76,18.89.24,27.14,1.02,4.18,3.99,13.02,5.81,8.85,2.47-9.59.67-24.69-1.24-33.66-.35-1.16-1.48-6.9-2.94-5.02l-.06.09Z" fill="#3054a5"/>
    <path d="M298.12,78.12c-14.31,29.49,18.65,40.53,23.32,21.84,4.02-13.44-7.92-28.86-22.31-25.01-3.14.71-1.81,5.53,1.33,4.82,13.14-3.37,21.32,13.88,13.87,23.8l1.49-1.15c-2.78,1.03-5.46,1.74-8.4,1.32.43.06-.33-.08-.44-.1-.54-.12-1.07-.28-1.59-.48-.27-.1.03.01.07.03-1.29-.4-2.95-2.05-3.19-2.43-.58-.79-1.07-1.66-1.47-2.56-.97-2.14-1.37-6.76-.89-9.44.42-2.81,1.26-5.63,2.52-8.13,1.43-2.87-2.89-5.41-4.32-2.52h0Z" fill="#3054a5"/>
    <path d="M322.46,39.31c-1.05,7.19,1.51,20.18,4.91,27.61,3.91,8.87,10.69,10.97,15.53,1.7,3.98-7.79,6.89-22.47,5.3-30.2-.45-.77-1.2.53-2.17,3.27-2.52,6.47-4.26,16.32-8.9,21.91-6.32,6.33-12.51-28.73-14.62-24.41l-.04.12Z" fill="#3054a5"/>
    <path d="M361.86,48.26c-.57,8.46.66,17.42,4.09,25.2,9.67,7.04,1.72-16.11.13-18.29-.71-2.13-.87-2.65-.33-4.53.04-.15.22-.41-.08.17.21-.47.47-.91.76-1.33-.68.85.84-.97,1.12-1.07-.56.49.12-.07.28-.17.51-.33,1.05-.6,1.61-.86-.68.31,1.15-.43,1.44-.44.26-.09,1.97-.36.99-.22,2.26-.43,5.2.26,6.25.68.84.37,1.65.83,2.38,1.38-.38-.29,1.33,1.19,1.51,1.57.79,2.53,6.24,1.61,4.49-2.24-3.24-4.85-9.11-7.08-14.81-6.36-8.72.52-14.53,9.88-9.16,17.4,1.34,3.88,3.01,10.2,3.32,12.8.08.43.03-.25.07-.41-.07.27,0-.2.22-.5,1.42-.55,3.07-1.99,4.07-.14-1.12-1.94-2.74-9.36-3.05-12.08-1.54-3.59,1.92-12.36-2.81-13.03-1.46,0-2.37,1.15-2.5,2.5h0Z" fill="#3054a5"/>
    <path d="M394.69,54.69c-2.07,6.17-.97,21.49.14,30.52.78,5.56,1.86,10.76,2.93,14.88,1.03,4.36,4.98,16.66,5.94,6.78.56-12.84-.78-26.64-3.49-39.75-.43-1.8-3.18-15.61-5.46-12.54l-.06.12Z" fill="#3054a5"/>
    <path d="M399.83,87.05c5.64,4.98,10.83,10.58,15.26,16.58,1.66,2.76,6,.24,4.32-2.52-1.7-2.85-22.44-28.18-19.58-14.06h0Z" fill="#3054a5"/>
    <path d="M401.02,85.47c5.26-.83,17.12-7.61,19.45-12.82.62-2.67-2.93-2.06-4.57-1.52-4.92,1.44-12.89,6.36-15.88,10.14-1.48,1.62-2.4,4.5.85,4.21h.15Z" fill="#3054a5"/>
    <path d="M444.63,69.06c4.79-.65,17.7-9.95,14.59-16.86-1.39-3.12-5.89-4.76-10.97-3.84-7.86,1.33-15.48,8.28-16.24,16.78-1.07,14.24,14.24,22.11,25.76,23.4,5.23.74,9.05.6,9.98.02,1.85-1.35-8.58-4.54-10.65-5.67-7.39-3.06-17.13-8.77-15.39-18.44.34-2.01,1.14-3.91,2.29-5.52,2.2-2.94,4.95-4.28,5.61-2.92.72,2.43-7.62,12.43-5.03,13.04h.04Z" fill="#3054a5"/>
  </g>
</svg>