<?xml version="1.0" encoding="UTF-8"?>
<svg id="Layer_2" data-name="Layer 2" xmlns="http://www.w3.org/2000/svg" viewBox="0 0 80.48 17.22">
  <g id="Layer_1-2" data-name="Layer 1">
    <g>
      <path d="M6.14,14.98c-2.55,2.26-3.93-2.55-4.69-4.4-.67-1.95-2.48-5.05-.66-6.19,1.98-.26,2.41,2.52,3.14,3.88.3.53.53,1.28,1.19,1.29,1.61-1.01,1.64-5.03,4.12-5.14,2.1.43.05,4.07-.51,5.5-.9,1.87-1.37,3.55-2.47,4.94l-.11.12Z" fill="#7880be"/>
      <path d="M14.74,12.44c-6.04-1.54-5.29-9.3.27-10.87,2.2-.58,5.33.22,6.23,2.44.63,1.78-1.01,3.03-2.69,3.4-1.24.47-3.48.23-4.18,1.41-.03.29.23.51.5.67,1.18.73,3.91.75,4.59,1.49.32.3.22.72-.1,1.01-1.15.98-3,.88-4.43.5l-.2-.06ZM17.22,3.94c-.78-.21-1.83.02-2.47.54-.41.31-1.1.96-.79,1.09.18.1.71,0,1.12-.04,1.31-.22,6.01-.3,2.33-1.54l-.19-.05Z" fill="#7880be"/>
      <path d="M30.96,7.63c-.63,2.33-2.2.19-3.67.38-.94.23-1.56,1.11-1.8,2.33-.52,1.49.97,6.84-1.89,5.99-1.11-.56-1.08-3.74-1.33-6.1-.07-1.2-.32-2.48.06-3.62.63-1.71,2.66-1.26,4.13-1.71,2.36-.82,4.7-.33,4.53,2.56l-.03.16Z" fill="#7880be"/>
      <path d="M36.65.18c3.27.84,9.15-.41,10.12,4.27.51,2.24.57,4.95.15,7.15-.82,3.4-2.29,1.9-2.5-1.14-.15-1.43-.06-2.91-.52-4.26-1.4-3.07-2.61,1.66-2.65,3.05-.21,1.32-.34,3.72-1.53,4.09-.42.03-.84-.57-1.08-1.6-.46-1.75-.05-4.16-.47-5.9-1.28-3.31-3.09,4.47-3.72,5.05-.41.72-1.19.86-1.53-.03-.92-2.72-.42-7.49.79-9.93.71-1.17,1.73-.97,2.82-.77l.12.02Z" fill="#7880be"/>
      <path d="M52.73,15.41c-6.94-1.01-4.69-12.26,2.1-11.06,6.08,1.17,3.98,11.71-1.92,11.08l-.18-.02ZM54.13,6.96c-2.89-.23-4.17,5.61-.88,5.77,2.67.26,3.53-5.29,1.03-5.75l-.15-.02Z" fill="#7880be"/>
      <path d="M69.77,11.35c-2.66-.41-2.71-5.46-4-6.61-.7-.72-1.38-.14-1.85,1.16-.92,1.42.38,8.04-2.29,7.11-.35-.2-.65-.56-.88-.94-1.01-1.93-1.53-5.15-1.75-7.58-.05-1.21.19-2.32,1.27-2.89,1.44-.67,4.04-1.34,5.94-.99,2,.56,2.91,3.11,3.51,4.99.53,1.46,1.57,5.25.13,5.72l-.09.02Z" fill="#7880be"/>
      <path d="M79.19,8.92c-3.17,1.16-2.78,4.51-4.06,7.02-.71,1.37-2.5,1.97-2.83.06-.37-2.01,1.22-4.66.43-6.7-.31-1.45-2.76-3.38-.61-4.35.5-.29,1.04-.55,1.53-.87.98-.58,1.93-1.67,2.77-1.59,1,.16,1.56,1.94,2.49,2.97,1.04,1.22,2.71,2.38.43,3.39l-.15.08Z" fill="#7880be"/>
    </g>
  </g>
</svg>