<?xml version="1.0" encoding="UTF-8"?>
<svg id="Layer_2" data-name="Layer 2" xmlns="http://www.w3.org/2000/svg" viewBox="0 0 30.84 23.04">
  <g id="Layer_1-2" data-name="Layer 1">
    <g>
      <path d="M7.17,19.4c-.07.79-.67,1.38-1.42,1.38-1.55-.3-1.62-1.97-2.55-4.45-.92-2.75-2.15-6.41-2.82-8.43-.64-1.48-.66-3.81,1.53-3.24,1.6,1.19,1.47,2.99,2.47,5.4.81,2.82,2.59,6.78,2.81,9.21v.14Z" fill="#f37a7a"/>
      <path d="M16.46,12.76c-1.83-1.33-.84-5.08-1.36-6.81-.25-1.23-1.13-1.37-2.1-.03-.99.84-2.66,7.19-4.32,5.21-1.09-1.95-.27-9.68,2.19-10.85,2.31-.9,6.39.4,7.11,3.41.57,2.07.7,8.48-1.44,9.08l-.07-.02Z" fill="#f37a7a"/>
      <path d="M30.7,6.23c.59,3.01-.9,6.37-1.29,9.41-.42,2.09-1.25,8.77-3.59,7.15-.56-.62-.62-2.28-.67-3.81.13-3.62-2.72-5.82-4.65-8.62-.49-.78-1.32-2.66.11-2.73,1.85.03,3.5,2.52,5.43,2.19,1.54-.66,1.72-3.48,3.19-4.27.59-.38,1.2-.13,1.43.55l.04.12Z" fill="#f37a7a"/>
    </g>
  </g>
</svg>