<?xml version="1.0" encoding="UTF-8"?>
<svg id="Layer_2" data-name="Layer 2" xmlns="http://www.w3.org/2000/svg" viewBox="0 0 185.18 57">
  <g id="Layer_1-2" data-name="Layer 1">
    <path d="M39.26,5.96c-4.15-.21-8.3-.16-12.46-.24-2.09-.04-4.18-.13-6.26-.27-1.39-.1-2.73-.32-4.13-.24-5.63.31-11.4,3.07-14.32,8.04-.8,1.37-1.38,2.91-1.63,4.47-.31,1.91-.65,4.05-.32,5.97v-1.33c-.76,5.05,6.01,7.65,9.7,9.13,6.26,2.52,13.15,4.01,19.9,4.22,3.54.11,6.89-.49,10.36-1.12.69-.13,1.27-.12,1.97-.23.51-.08.07.07-.04-.02-.18-.15-.35-.16-.54-.34-.22-.21-.76-1.1-.44-1.39-.07.06-.07.46-.08.56-.3,2.09-.56,4.19-.56,6.31,0,1.82.45,3.87.09,5.51-.28,1.29-.86,2.47-1.65,3.38-1.81,2.07-4.59,3.37-7.18,3.63-2.1.21-3.61-.22-5.69-.35-2.67-.17-5.35-.05-8.02,0s-5.54.1-8.27-.31c-1.04-.16-4.29-.45-4.46-1.86s-1.03-2.5-2.5-2.5c-1.23,0-2.66,1.15-2.5,2.5.39,3.3,2.6,5.36,5.75,6.2,3.57.96,7.37,1.04,11.04.99,3.35-.05,6.8-.36,10.14.08,2.48.33,4.77.41,7.22-.19,4.82-1.17,9.17-4.55,10.7-9.38.9-2.85.24-5.69.33-8.59.04-1.27.16-2.57.33-3.79.19-1.41.47-2.73-.44-3.96-1.64-2.23-4.85-1.39-7.13-.96-2.5.47-4.33.83-6.88.85-4.84.04-9.61-.79-14.28-2.09-3.94-1.1-7.51-2.26-10.85-4.56-.16-.11-.31-.22-.46-.33.47.35.13.11.03,0-.21-.2-.41-.41-.63-.59-.49-.43.2.38-.1-.12-.05-.09-.1-.23-.17-.31.17.43.22.53.14.3-.06-.25-.05-.13.03.37.01-.32-.12-.07-.04.05l-.03.24c.12-.44.12-.89,0-1.33,0,.48.08-.64.08-.62.03-.4.06-.79.1-1.19.13-1.22.22-2.28.64-3.46,1.49-4.23,6.56-6.7,10.79-6.89,1.57-.07,2.53.14,3.98.25,2.08.16,4.17.23,6.26.27,4.15.08,8.31.03,12.46.24,3.22.16,3.21-4.84,0-5h0Z" fill="#561e0d"/>
    <path d="M60.22,5.31c-.61,4.43-.54,8.89-.56,13.35-.01,2.87-.04,5.73.02,8.6.07,3.42.3,6.84.64,10.24s.52,7.46,1.71,10.88c.19.53.42,1.31.83,1.77.26.3-.27-.56-.14-.33.05.09.07.23.09.34.05.39-.03-.69,0-.04.01.29.04.58.06.87.16,3.2,5.16,3.22,5,0-.07-1.4-.23-2.6-.95-3.81-.36-.61.11.49-.1-.25-.14-.49-.27-.98-.38-1.48-.41-1.9-.66-3.83-.87-5.77-.68-6.19-.91-12.35-.9-18.57.01-4.78-.25-9.72.4-14.47.18-1.34-.32-2.68-1.75-3.08-1.17-.32-2.89.4-3.08,1.75h0Z" fill="#561e0d"/>
    <path d="M50.95,28.76c.47-.07-.41.02.32-.04.18-.01.35-.03.53-.04.38-.02.76-.03,1.14-.03.78,0,1.56,0,2.34-.05,3.07-.23,5.99-1.17,8.89-2.14s5.59-2.12,7.95-3.9c1.34-1.01,2.74-2.22,3.27-3.87.98-3.07-3.85-4.39-4.82-1.33.14-.43.28-.51-.01-.07-.19.28-.19.05.13-.16-.1.06-.17.21-.25.3-.27.26-.53.53-.81.78-.06.06-.56.45-.1.1-.17.13-.35.26-.53.39-2.38,1.65-5.05,2.58-7.78,3.49-1.4.46-2.82.89-4.27,1.18-.29.06-.57.1-.86.16-.55.1.36-.03-.2.03-.41.04-.81.07-1.22.09-1.7.07-3.34.04-5.03.31-1.33.21-2.08,1.88-1.75,3.08.39,1.42,1.74,1.96,3.08,1.75h0Z" fill="#561e0d"/>
    <path d="M80.67,20.62c.36,9.67-1.36,19.64,1.16,29.13l4.82-1.33c-1.05-3.78-1.28-7.76-1.3-11.67-.01-2.37.09-4.74.29-7.11.15-1.82.28-3.88,1.17-5.52.14-.26.26-.48.46-.68.19-.25.26-.31.22-.2.29-.2.35-.22.19-.06,1.05-.32,2.46-.18,3.55-.18s2.11.03,3.16.06c.61.02,1.26-.03,1.86.06.46.07.11-.07.46.13s.55.43.9,1.05c.28.51.41.93.58,1.6.35,1.38.38,2.79.21,4.32-.16,1.34,1.26,2.5,2.5,2.5,1.48,0,2.34-1.15,2.5-2.5.34-2.93-.09-6.42-1.76-8.92-.92-1.38-2.21-2.54-3.84-2.99-1.02-.28-2.12-.21-3.17-.25-1.13-.04-2.26-.07-3.39-.07-2.05,0-4.61-.13-6.39,1.01-1.65,1.06-2.61,2.82-3.21,4.63-.67,2-.84,4.15-1.01,6.24-.18,2.28-.28,4.57-.27,6.86.02,4.33.31,8.81,1.48,13,.86,3.1,5.65,1.79,4.82-1.33-2.39-9.01-.64-18.61-.98-27.8-.12-3.21-5.12-3.22-5,0h0Z" fill="#561e0d"/>
    <path d="M113.96,35.58c3.02,1.34,6.31-.61,7.09-3.77.37-1.52.11-3.13-.4-4.58-.39-1.1-.84-2.31-1.71-3.14-1.44-1.36-3.4-1-5.19-.91-1.4.07-2.77.53-3.83,1.46-1.26,1.12-1.66,2.74-1.84,4.35-.06.57-.09,1.15-.09,1.72,0,.34-.01.67,0,1.01,0,.17.13,1.53.06.76.09,1.03.05,2.06-.02,3.1-.15,2.23-.35,4.54.29,6.73.78,2.64,2.69,4.77,5.41,5.44,1.35.33,2.75.38,4.13.33.59-.02,1.18-.02,1.77-.06l.66-.09c-.39.05-.45.06-.17.03.24,0,.49-.03.73-.03,2.01-.03,4.01.23,6-.19,2.4-.5,4.33-2.25,4.71-4.73.2-1.33-.34-2.69-1.75-3.08-1.18-.32-2.87.4-3.08,1.75-.03.19-.08.37-.11.56-.02.14-.06.61,0,.07,0,.07-.15.29-.19.33.39-.45.14-.16.05-.09-.33.29.05-.01.11-.05-.12.08-.25.15-.38.23-.28.18.57-.12.02,0-.18.04-.36.1-.54.15-.12.03-.26.05-.38.07.53-.11.21-.02.07-.01-.31.02-.62.04-.93.05-.67.02-1.34,0-2.01-.03-.6-.02-1.2-.05-1.8-.03-.27,0-.53.02-.79.05-.29.03-1.16.06-.53.04-.29,0-.59.02-.88.03-1.38.05-3.52.32-4.46-.6-.36-.36-.71-.92-.8-1.24-.1-.36-.2-.71-.27-1.08-.08-.45.02.58-.03-.2-.02-.25-.04-.51-.04-.76-.05-1.53.14-3.06.21-4.59.09-1.97-.23-3.18-.05-5.07.04-.42.15-.8.26-1.21-.11.37.07-.11.07-.09l-.08.13c-.16.11-.17.12-.03.02,0-.06-.1-.02.19-.1.16-.04.32-.09.49-.12-.38.05.58.04.78.03.52-.01,1.21,0,1.71-.13.02,0-.57-.12-.75-.22.35.19-.41-.29-.15-.11.17.12-.23-.51-.05-.03.03.07.31.61.16.27.33.74.69,1.69.62,2.51-.05.56-.14.43-.05.24-.19.39.02.03-.26.32.26-.27-.25.25-.06.05.15-.05.09-.03-.17.04.27-.09.54-.05.8.12-1.23-.55-2.69-.36-3.42.9-.62,1.06-.34,2.87.9,3.42h0Z" fill="#561e0d"/>
    <path d="M135.97,33.45c4.89,1.69,12.92,1.37,15.11-4.27.96-2.48.7-5.68-.78-7.91-2-3.01-5.59-3.73-8.99-3.3-2.48.31-5.53-.32-8.24.16-1.54.27-2.96.99-4.12,2.03-1.35,1.2-1.74,3.17-1.89,4.89-.14,1.51-.03,3.04,0,4.55s-.32,3.11-.23,4.61c.21,3.27,2.57,5.69,5.42,7.01,3.32,1.54,6.73,2.46,10.4,2.61,1.26.05,2.52,0,3.79-.01.51,0,1.02,0,1.52.03.12,0,.76.09.4.03s.39.1.51.13c3.1.87,4.43-3.96,1.33-4.82-1.62-.45-3.34-.38-5-.34-1.99.04-3.94,0-5.74-.38-2.19-.45-5-1.23-6.64-2.73-.46-.42-.58-.57-.81-1.04.17.34-.21-.95-.16-.47,0,0-.02-.85-.04-.37.02-.35.1-.71.13-1.05.08-.81.13-1.62.14-2.43.02-1.22-.05-2.44-.05-3.66,0-.79-.12-2.21.37-2.89.93-1.29,3.63-.92,5.3-.84,1.13.06,2.27.13,3.41.03s2.12-.26,3.31-.04c1.83.34,2.3,1.68,2.25,3.33,0,.17-.01.35-.04.52.06-.42-.14.5-.17.59-.21.72.12-.18-.07.2-.08.15-.5.65-.13.27-.15.16-.3.31-.47.45.39-.31-.22.11-.26.13-.61.35-.55.3-1.19.49-2.24.67-4.68.51-7.01-.29-1.28-.44-2.73.5-3.08,1.75-.38,1.37.47,2.63,1.75,3.08h0Z" fill="#561e0d"/>
    <path d="M167.16,2.41c.09,3.04-.1,6.07-.23,9.11-.15,3.67-.02,7.3.26,10.96.24,3.26.66,6.52,1.16,9.75.38,2.47.73,5.06,1.58,7.43.42,1.17,1.03,2.37,2.34,2.72,1.76.48,3.1-.85,3.53-2.43.84-3.11-3.98-4.44-4.82-1.33-.17.63.21-.31.06-.08.69-1.11,1.87-1.26,3.52-.43.3.42.38.52.24.31-.12-.16-.26-.68,0,.05-.07-.21-.15-.41-.21-.62-.38-1.22-.63-2.49-.87-3.74-.63-3.29-1.07-6.62-1.39-9.95-.36-3.89-.57-7.8-.44-11.71.11-3.35.36-6.69.26-10.04s-5.09-3.22-5,0h0Z" fill="#561e0d"/>
    <path d="M157.51,22.3c2.5-.14,5,.06,7.51,0,3.41-.09,6.82-.51,10.18-1.07,2.44-.41,4.97-.81,7.31-1.64,1.05-.37,2.02-.83,2.47-1.91.65-1.58-.39-3.29-2.04-3.59-1.33-.24-2.69.36-3.08,1.75-.33,1.21.41,2.84,1.75,3.08.82.15-.46.18-1.08-.97l-.34-1.26v.04c.11-.42.23-.84.34-1.26.06-.12.76-.77.63-.67-.23.18.17-.07.24-.09-.32.12-.65.23-.98.32-.91.27-1.84.48-2.77.68-2.13.46-4.32.85-6.47,1.11-2.61.31-5.22.52-7.85.52-1.94,0-3.89-.12-5.83-.01-3.2.17-3.22,5.18,0,5h0Z" fill="#561e0d"/>
  </g>
</svg>