<?xml version="1.0" encoding="UTF-8"?>
<svg id="Layer_2" data-name="Layer 2" xmlns="http://www.w3.org/2000/svg" viewBox="0 0 275.57 226.45">
  <g id="Layer_1-2" data-name="Layer 1">
    <path d="M268.97,32.28c.11-4.76-5.31-5.99-8.22-3.72-2.93-1.03-6.87.47-6.87,4.51v13.06c0,3.07,2.27,4.67,4.65,4.82-.66,27.6-1.31,55.2-1.97,82.81-1-5.26-8.93-4.03-9.7.81-1.92-1.33-4.56-1.46-6.21.15-2.52-.57-5.45.42-5.94,3.38-.15.87-.29,1.75-.44,2.62-1.53-1.07-3.69-1.28-5.53-.36-3.28,1.64-6.6,3.18-9.95,4.63-.91.05-1.81.12-2.72.19-1.11-.7-2.4-1.17-3.77-1.37-3.78-.56-7.17.83-10.12,2.97-5.72.88-11.4,2.2-16.45,5.05-6.63,3.74-11.59,9.9-16.46,15.6-5.54,6.48-10.86,13.14-16.04,19.91-3.88,5.17,4.79,10.08,8.63,5.05,8.09-10.78,21.65-15.76,32.07-23.79,1.74-1.34,3.42-2.75,5.01-4.25,3.19-.43,6.32-1.25,9.35-2.49.2.44.42.88.69,1.32,3.95,6.29,11.94,6.14,17.46,2.22,2.14-1.52,3.91-3.41,5.33-5.54,1.33,3.66,6.47,5.44,8.89,1.13.5-.9.99-1.8,1.45-2.71,1.22,1.29,3.01,1.82,4.67,1.47,1.31,3.2,5.79,3.56,8.16,1.22.81,1.29,2.65,2.39,4.15,2.21,3.53-.42,5.94-1.86,6.88-5.47.23-.87.23-1.68.06-2.4.97-41,1.95-82.01,2.92-123.01Z" fill="#f5db79"/>
    <path d="M121.96,197.89c-2.35-3.18-5.78-5.24-9.62-6.72-1.07-2.15-2.69-3.98-5.13-5.19-5.76-2.86-13.46-3.72-19.76-4.6-4.83-.67-9.76-.94-14.62-.42-.4-.1-.79-.21-1.19-.31-.8-1.39-2.21-2.45-4.15-2.51-1.6-.05-3.21-.08-4.82-.07-1.48-.38-2.98-.71-4.5-.97-2.11-.36-3.83.44-4.92,1.73-3.83.68-7.53,1.93-10.97,4.12-.26.17-.5.35-.72.55.43-3.2-2.25-5.71-5.05-5.71.23-.22.45-.46.64-.71.6-.78,1.17-1.58,1.74-2.39,1.75-.23,3.3-1.38,3.78-3.5,1.1.19,2.27.02,3.31-.59.15-.09.29-.18.43-.27,1.65.67,3.51.52,4.91-1.18,2.82-3.44,5.64-6.87,8.46-10.31,3.77-4.64-2.16-11.19-6.29-7.86-.65-.72-1.48-1.25-2.36-1.58-.01-.06-.01-.13-.02-.2-.05-.26-.1-.51-.15-.75.2-.8.39-1.6.57-2.41,1.15-5.28,1.8-10.73,1.86-16.14.05-4.54.33-10.22-3.27-13.62-4.17-3.94-7.38-2.43-9.79,1.04-.04-.39-.09-.77-.13-1.16-.3-2.51-2.07-4.04-4.04-4.57,0-4.14,0-8.27-.01-12.41,0-.13-.01-.25-.02-.37.07-3.3.19-6.66.15-9.99.58-15.59,1.18-31.18,1.85-46.76.28-6.43-9.72-6.42-10,0-.38,8.73-.72,17.46-1.07,26.19-.39-.15-.8-.28-1.22-.39-1.55-.4-3.17-.48-4.73-.25-1.17-1.87-.97-1.48-3.33-.82,6.19-1.72,3.56-11.37-2.66-9.64-3.39.94-5.65,3.57-5.96,7.14-.08.94,0,1.84.21,2.72-1.15.79-2.02,2.02-2.25,3.7-2.96,22.41-.13,44.83,3.24,67.02.39,2.57.79,5.15,1.19,7.72-1.87,3.98-3.96,7.79-5.89,11.76-2.52,5.18-2.42,10.5-2.41,16.14.02,11.38.03,22.76.05,34.13-3.71,2.2-2.92,9.21,2.39,9.34.81.44,1.74.66,2.67.65.02.56.04,1.12.06,1.68.26,6.41,10.26,6.45,10,0-.1-2.37-.19-4.75-.27-7.13,1.2.07,2.46-.31,3.58-1.34.39-.36.75-.74,1.09-1.13.11,0,.23,0,.34-.02,1.39,3.59,6.89,5.32,8.94,1.02,1.49-3.12,3.32-5.89,5.49-8.47,1.59,3.02,4.06,4.95,7.97,3.77,2.94-.89,5.44-4.38,7.11-8.32,5.83-.25,10.66-4.09,16.22-5.67.64-.18,1.29-.34,1.94-.48,12.28,5.03,23.87,12.05,37.21,13.98,2.06.3,4.39-.4,5.57-2.04,3.92,4.48,12.06-.38,8.33-5.42ZM22.92,154.13c.17-3.51.18-7.05-.06-10.65-.13-1.92-.99-3.26-2.17-4.04-1.5-9.85-2.94-19.74-3.84-29.64,2.14.14,4.24-.91,4.68-3.57,1.37-8.24,2.73-16.47,4.1-24.71.14.44.23.8.26.99.48,3.64.3,7.46.22,11.18-.26,7.08-.53,14.16-.76,21.24-.39,11.82-.76,23.64-1.1,35.46-.11,3.93-.37,7.92-.21,11.8-.36-2.69-.73-5.38-1.12-8.06ZM26.83,188.84c-.25-3.15-.62-6.17-.82-8.79-.3-3.75-.69-7.49-1.12-11.23.75,3.28,2.09,6.41,4.42,9.27.99,1.21,2.29,1.61,3.58,1.48-.16.19-.33.39-.47.62-1.86,2.89-3.72,5.77-5.58,8.66Z" fill="#f5db79"/>
    <path d="M25.06,56.03c-5.24-.33-14.87-1.57-17.67,1.3-2.22,2.31-1.42,5.25-1.63,10.19,0,39.63-.42,118.75-.18,148.81.39,5.31,3.05,5.54,8.84,3.19,10.95-4.7,23.24-13.24,34.74-17.79,36.41-15.61,62.25,18.28,96.19-1.58,24.32-14.35,46.87-33.07,75.39-37.29,7.35-1.29,14.97-1.83,22.38-1.31,7.26.28,16.01,3.03,22.18,3.78,3.41.44,4.6-1.92,4.68-5.14.27-25.96-.07-99.66.02-126.81.83-11.58-6.08-9.49-14.99-7.19" fill="none" stroke="#7880be" stroke-miterlimit="10" stroke-width="11"/>
    <path d="M24.49,185.68c16.71-12.15,36.25-13.69,55.75-8.45,13.09,3.35,26.11,8.52,37.01,16.47,2.89,2.11,6.04,4.63,9.08,6.17,5.66,2.97,10.01.99,14.39-3.52,19.1-21.83,40.52-44.48,67.5-53.29,8.23-2.74,16.86-4.23,25.49-4.88,5.77-.45,12.87-.88,16.34-5.45,1.54-1.96,2.43-4.6,2.84-7.77.9-29.32-.39-58.93-.29-88.29.18-12.87-2.43-22-16.14-24.55" fill="#f5db79" stroke="#7880be" stroke-miterlimit="10" stroke-width="11"/>
    <path d="M128.31,66.89c-11.49-21.2-31.77-38.65-55.24-42.71-15.84-2.94-32.96-.66-32.71,19.81.44,29.01,1.36,58.15,1.22,87.19.05,4.38.44,9.65,2.49,12.99,5.11,7.58,16.25,4.86,24.08,6.98,19.73,4.78,38.07,17.67,52.33,32.21,22.8,24.32,6.1-35.98,75.4-56.3,7.12-2.15,14.54-3.52,21.87-4.53,9-1.03,18.12-4.39,19.63-14.54,1.68-28.95.46-58.56-.31-87.59-1.34-14.31-13.21-16.89-25.29-13.66-14.75,3.44-28.53,10.17-42.7,15.61-26.1,10.06-42.08,19.89-40.49,51.11.12,12.17,1.24,24.25,1.39,36.41.39,27.9-4.37,55.49,3.05,82.74" fill="#f5db79" stroke="#7880be" stroke-miterlimit="10" stroke-width="11"/>
    <path d="M22.86,186.03c.42-31.83-.83-111.26.46-144.08,1.77-5.44,11.46-4.75,16.73-5.4" fill="none" stroke="#7880be" stroke-miterlimit="10" stroke-width="11"/>
  </g>
</svg>