<?xml version="1.0" encoding="UTF-8"?>
<svg id="Layer_2" data-name="Layer 2" xmlns="http://www.w3.org/2000/svg" viewBox="0 0 273 258.15">
  <g id="Layer_1-2" data-name="Layer 1">
    <g>
      <path d="M272.08,104.33c-1.97-4.75-6.8-7.53-11.6-8.75-3.07-.82-6.32-1.2-9.51-1.46-19.94-1.5-40.03-.28-59.78,2.79-5.19.71-11.1.48-12.5-5.75-.61-2.3-.65-5.2-.59-7.76.58-15.81,1.29-31.63,1.87-47.44.25-7.55.04-16.21-5.38-21.78-3.13-3.31-7.68-5.26-12.03-6.52C144.57,2.97,125.97.69,107.43.05c-7.72-.18-17.03-.24-22.66,6-3.03,3.35-4.42,8.11-5.01,12.74-1.99,22.57.39,45.34,3.04,67.72.54,6.38-1.12,11.04-7.52,12.12-2,.4-4.37.47-6.52.49-16.05.05-32.22-.13-48.32.07-3.41.12-6.94.45-10.16,1.47-18.33,6.05-8.19,27.05.12,38.11,4.29,5.75,9.27,11.01,13.91,16.47,4.34,4.99,8.68,9.98,13.04,14.96,14.85,16.73,29.17,34.48,47.5,47.12,5.14,3.67,9.47,8.51,13.94,12.86,2.89,2.73,6.32,5.18,9.53,6.96,4.27,2.24,8.08,5.35,11.31,9.15,5.26,6.18,12.93,12.09,21.14,11.85,14.95-.19,24.63-17.05,33.76-27.61,24.69-29.86,48.22-60.83,73.96-89.7,4.71-5.16,9.67-10.05,14.67-14.88,5.62-5.35,12.26-13.34,8.95-21.54l-.03-.07Z" fill="#303253"/>
      <path d="M113.2,236.62s.14.15.15.15c0,0-.06-.07-.12-.13l-.03-.03Z" fill="#303253"/>
    </g>
    <path d="M232.2,78.23c.08-3.47-3.88-4.37-6-2.71-2.14-.75-5.01.34-5.01,3.29v9.53c0,2.24,1.66,3.41,3.39,3.51-.48,20.14-.96,40.27-1.44,60.41-.73-3.83-6.51-2.94-7.08.59-1.4-.97-3.33-1.07-4.53.11-1.84-.41-3.97.31-4.33,2.47-.11.64-.21,1.28-.32,1.91-1.12-.78-2.69-.93-4.03-.26-2.39,1.19-4.82,2.32-7.26,3.38-.66.04-1.32.09-1.99.14-.81-.51-1.75-.85-2.75-1-2.76-.41-5.23.6-7.39,2.17-4.17.64-8.32,1.61-12,3.68-4.84,2.73-8.46,7.22-12.01,11.38-4.04,4.73-7.92,9.58-11.7,14.52-2.83,3.77,3.49,7.35,6.3,3.68,5.9-7.86,15.79-11.5,23.4-17.36,1.27-.98,2.5-2,3.65-3.1,2.33-.31,4.61-.91,6.82-1.82.14.32.3.64.5.96,2.88,4.59,8.71,4.48,12.74,1.62,1.56-1.11,2.85-2.49,3.89-4.05.97,2.67,4.72,3.97,6.48.83.37-.65.72-1.31,1.06-1.98.89.94,2.2,1.33,3.41,1.07.95,2.33,4.22,2.6,5.95.89.59.94,1.93,1.74,3.03,1.61,2.58-.31,4.34-1.36,5.02-3.99.16-.64.17-1.22.05-1.75.71-29.91,1.42-59.83,2.13-89.74Z" fill="#f5db79"/>
    <path d="M124.96,199.05c-1.72-2.32-4.22-3.82-7.02-4.9-.78-1.57-1.96-2.9-3.75-3.79-4.2-2.09-9.82-2.72-14.41-3.35-3.53-.49-7.12-.69-10.66-.31-.29-.08-.58-.15-.87-.23-.58-1.02-1.61-1.78-3.03-1.83-1.17-.04-2.34-.06-3.51-.05-1.08-.28-2.17-.52-3.28-.71-1.54-.26-2.79.32-3.59,1.26-2.79.5-5.49,1.41-8,3.01-.19.12-.36.26-.53.4.31-2.33-1.64-4.16-3.68-4.17.17-.16.33-.34.47-.52.43-.57.86-1.15,1.27-1.74,1.27-.17,2.41-1.01,2.76-2.56.8.14,1.65.01,2.41-.43.11-.06.21-.13.32-.19,1.2.49,2.56.38,3.58-.86,2.06-2.51,4.11-5.01,6.17-7.52,2.75-3.39-1.57-8.16-4.59-5.73-.47-.52-1.08-.91-1.72-1.15,0-.05,0-.1-.02-.14-.03-.19-.07-.37-.11-.55.15-.58.29-1.17.41-1.76.84-3.85,1.31-7.83,1.36-11.77.04-3.32.24-7.45-2.39-9.94-3.04-2.88-5.39-1.77-7.14.76-.03-.28-.07-.56-.1-.85-.22-1.83-1.51-2.95-2.95-3.33,0-3.02,0-6.04,0-9.05,0-.09,0-.18-.01-.27.05-2.41.14-4.86.11-7.29.42-11.37.86-22.74,1.35-34.11.2-4.69-7.09-4.68-7.29,0-.27,6.37-.53,12.74-.78,19.11-.29-.11-.58-.21-.89-.29-1.13-.29-2.31-.35-3.45-.18-.85-1.36-.71-1.08-2.43-.6,4.52-1.26,2.6-8.3-1.94-7.03-2.47.69-4.12,2.61-4.35,5.21-.06.69,0,1.34.15,1.98-.84.58-1.48,1.47-1.64,2.7-2.16,16.34-.09,32.7,2.36,48.89.28,1.88.58,3.76.87,5.63-1.36,2.9-2.89,5.68-4.3,8.58-1.84,3.78-1.77,7.66-1.76,11.77.01,8.3.02,16.6.04,24.9-2.7,1.6-2.13,6.72,1.74,6.81.59.32,1.27.48,1.95.48.02.41.03.82.05,1.22.19,4.68,7.49,4.7,7.29,0-.07-1.73-.14-3.47-.2-5.2.88.05,1.79-.23,2.61-.98.29-.26.55-.54.79-.82.08,0,.17,0,.25-.01,1.02,2.62,5.03,3.88,6.52.74,1.08-2.27,2.42-4.3,4.01-6.18,1.16,2.2,2.96,3.61,5.82,2.75,2.14-.65,3.97-3.19,5.19-6.07,4.25-.18,7.78-2.98,11.83-4.14.47-.13.94-.25,1.42-.35,8.96,3.67,17.41,8.79,27.15,10.2,1.5.22,3.2-.29,4.06-1.49,2.86,3.27,8.8-.27,6.07-3.96ZM52.71,167.12c.13-2.56.13-5.14-.04-7.77-.09-1.4-.73-2.38-1.58-2.95-1.1-7.19-2.15-14.4-2.8-21.62,1.56.1,3.09-.67,3.41-2.6,1-6.01,1.99-12.02,2.99-18.03.1.32.17.58.19.72.35,2.65.22,5.44.16,8.16-.19,5.16-.38,10.33-.56,15.49-.29,8.62-.55,17.24-.8,25.87-.08,2.87-.27,5.77-.15,8.61-.26-1.96-.53-3.92-.82-5.88ZM55.55,192.44c-.18-2.3-.45-4.5-.6-6.41-.22-2.74-.5-5.47-.82-8.19.55,2.39,1.52,4.67,3.23,6.76.72.88,1.67,1.17,2.61,1.08-.12.14-.24.28-.35.45-1.36,2.11-2.71,4.21-4.07,6.32Z" fill="#f5db79"/>
    <path d="M54.26,95.56c-3.82-.24-10.85-1.15-12.89.95-1.62,1.69-1.03,3.83-1.19,7.44,0,28.91-.31,86.63-.13,108.56.29,3.87,2.22,4.04,6.45,2.32,7.99-3.43,16.95-9.66,25.34-12.98,26.56-11.39,45.41,13.33,70.17-1.15,17.74-10.47,34.19-24.13,55-27.2,5.36-.94,10.92-1.34,16.32-.96,5.3.21,11.68,2.21,16.18,2.76,2.49.32,3.35-1.4,3.41-3.75.2-18.94-.05-72.7.01-92.51.61-8.45-4.43-6.92-10.93-5.24" fill="none" stroke="#7880be" stroke-miterlimit="10" stroke-width="11"/>
    <path d="M53.85,190.14c12.19-8.86,26.44-9.99,40.67-6.16,9.55,2.45,19.04,6.21,27,12.01,2.11,1.54,4.4,3.38,6.62,4.5,4.13,2.17,7.3.72,10.5-2.57,13.93-15.93,29.56-32.45,49.24-38.87,6.01-2,12.3-3.09,18.59-3.56,4.21-.33,9.39-.64,11.92-3.98,1.13-1.43,1.77-3.35,2.07-5.67.66-21.39-.29-42.99-.21-64.41.13-9.39-1.77-16.05-11.77-17.91" fill="#f5db79" stroke="#7880be" stroke-miterlimit="10" stroke-width="11"/>
    <path d="M129.59,103.48c-8.38-15.47-23.18-28.2-40.3-31.16-11.55-2.15-24.04-.48-23.86,14.45.32,21.16.99,42.42.89,63.6.04,3.2.32,7.04,1.82,9.48,3.73,5.53,11.86,3.55,17.57,5.09,14.39,3.49,27.78,12.89,38.18,23.5,16.63,17.74,4.45-26.25,55-41.07,5.19-1.57,10.61-2.57,15.95-3.31,6.57-.75,13.22-3.2,14.32-10.61,1.22-21.12.33-42.72-.22-63.9-.98-10.44-9.64-12.32-18.45-9.97-10.76,2.51-20.81,7.42-31.15,11.39-19.04,7.34-30.7,14.51-29.54,37.28.08,8.88.91,17.69,1.01,26.56.29,20.35-3.19,40.48,2.22,60.36" fill="#f5db79" stroke="#7880be" stroke-miterlimit="10" stroke-width="11"/>
    <path d="M52.66,190.39c.31-23.22-.61-81.16.34-105.11,1.29-3.97,8.36-3.46,12.2-3.94" fill="none" stroke="#7880be" stroke-miterlimit="10" stroke-width="11"/>
  </g>
</svg>