<?xml version="1.0" encoding="UTF-8"?>
<svg id="Layer_2" data-name="Layer 2" xmlns="http://www.w3.org/2000/svg" viewBox="0 0 243.87 167.17">
  <g id="Layer_1-2" data-name="Layer 1">
    <path d="M14.01,144.36c10.69,16.11,39.19,16.82,58.27,17.19,18.82.21,40.34.06,59.87.1,15.52-.02,30.81.05,46.03-.07,16.18-.05,36.34-.99,44.76-7.27,12.78-8.75,13.71-25.04,14.97-39.67,1.11-18.04.47-40.5-4.57-57.48-8.16-29.18-30.45-34.15-57.41-34.76-20.69-.49-42.22-.15-63.07-.25-41.74.12-91.8-4.02-103.36,45.25-4.92,20.37-7.13,60.22,4.45,76.85l.07.1Z" fill="#7880be" stroke="#f37a7a" stroke-miterlimit="10" stroke-width="11"/>
    <path d="M84.98,98.63c4.11,34.79,53.45,55.53,77.64,26.9,20.02-24.97-3.96-59.31-32.26-63.46-22.7-4.23-47.99,11.56-45.41,36.38l.02.18Z" fill="#7880be" stroke="#f37a7a" stroke-miterlimit="10" stroke-width="11"/>
    <path d="M211.43,57.58c10.16-9.5-3.71-20.4-15.72-19.54-5.46.33-11.34,2.64-15.12,6.49-6.77,6.57-.35,14.27,6.98,16.96,7.35,3.19,18.11,1.5,23.74-3.81l.12-.11Z" fill="none" stroke="#f37a7a" stroke-miterlimit="10" stroke-width="11"/>
    <path d="M37.22,29.37c.69-6.3,1.29-12.83,3.73-17.85,2.89-6.16,9.04-7.91,14.81-3.76,5.95,4.12,9.76,12.32,13.45,19.74" fill="none" stroke="#f37a7a" stroke-miterlimit="10" stroke-width="11"/>
  </g>
</svg>