<?xml version="1.0" encoding="UTF-8"?>
<svg id="Layer_2" data-name="Layer 2" xmlns="http://www.w3.org/2000/svg" viewBox="0 0 86.99 26.02">
  <g id="Layer_1-2" data-name="Layer 1">
    <g>
      <path d="M5.81,16.56c-2.35.06-4.73-1.26-5.52-3.51-1.47-3.83,3.05-9.32,7.43-7.8,1.13.35,2.54,1.45.94,2.08-1.5.57-4,.98-4.72,2.75-1.21,3.32,2.26,3.49,4.81,3.87,2.87.8-1.43,2.82-2.73,2.61h-.21Z" fill="#f5db79"/>
      <path d="M18.88,12.14c-2.25-.29-5.9-1.16-7.31-3.36C9.05,4.28,14.57-1.64,19.52.42c3.27,1.19,2.95,3.9,1.83,6.67-.64,1.54-.16,4.89-2.33,5.04h-.14ZM18.92,4.72c1.17-2.67-2.49-2.1-3.67-.98-1.35,1.09-2,3.5-.56,4.48,3.02,1.71,3.49-1.14,4.17-3.35l.06-.16Z" fill="#f5db79"/>
      <path d="M29.27,20.96c-1.64,1.26-1.78,3.45-2.99,4.95-1.91,1.03-2.53-5.1-2.78-6.81-.32-2.45-.9-4.5-.99-6.72-.46-4.8,7.96-4.04,9.59-.93,2.16,3.72.72,7.23-2.7,9.4l-.13.11ZM28.21,12.15c-1.54.12-2.7,1.56-2.24,3.07.22,1.02.21,2.61,1.53,2.77.94.11,2.08-.32,2.51-1.21.58-1.43.27-4.42-1.63-4.63h-.17Z" fill="#f5db79"/>
      <path d="M39.74,13.74c-9.55-.13-7.11-12.91,1.66-10.97,1.66.43,3.02,1.89,2.06,3.51-.91,1.66-3.54,2.31-4.7,3.74-.77,1.5,4.1.69,4.82,1.26.42.14.63.52.36.91-.85,1.12-2.55,1.51-3.98,1.56h-.22ZM39.54,4.92c-1.04.06-2.01.72-2.51,1.64-.25.43-.34.81-.12.87.18.07.58-.08,1-.26,1.2-.57,5.67-2.09,1.84-2.26h-.21Z" fill="#f5db79"/>
      <path d="M60.34,17.93c-2.35.06-4.73-1.26-5.52-3.51-1.47-3.83,3.05-9.32,7.43-7.8,1.13.35,2.54,1.45.94,2.08-1.5.57-4,.98-4.72,2.75-1.21,3.32,2.26,3.49,4.81,3.87,2.87.8-1.43,2.82-2.73,2.61h-.21Z" fill="#f5db79"/>
      <path d="M69.41,13.57c-6.82-1.85-3.24-12.75,3.32-10.76,5.9,1.91,2.67,12.03-3.15,10.8l-.18-.04ZM71.76,5.3c-2.9-.49-4.75,5.1-1.52,5.65,2.63.51,4.13-4.79,1.67-5.62l-.15-.03Z" fill="#f5db79"/>
      <path d="M83.06,7.29c.98-.9,1.33-2.57,2.25-3.47,2.79-1.17,1.19,9.17,1.48,10.79-.02,1.46.06,3.15-.65,4.38-1.67,2.35-5.83,1.61-8.02.17-2.61-1.83-2.83-6.06-.83-8.41,1.55-1.93,4.16-1.95,5.66-3.37l.11-.1ZM83.5,12.35c-.51-1.22-2.36-1.44-3.45-.84-1.56.82-1.88,3.17-1.01,4.61.91,1.68,3.87,1.55,4.48.1.41-1.11.32-2.58.04-3.71l-.06-.16Z" fill="#f5db79"/>
    </g>
  </g>
</svg>