<?xml version="1.0" encoding="UTF-8"?>
<svg id="Layer_2" data-name="Layer 2" xmlns="http://www.w3.org/2000/svg" viewBox="0 0 153.06 132.01">
  <g id="Layer_1-2" data-name="Layer 1">
    <g id="_8rJjAn" data-name="8rJjAn">
      <path d="M140.5,15.06c6.08,7.75,8.75,17.91,10.62,27.55,2.06,10.22,2.08,20.54,1.85,30.48-.21,7.45-.12,14.93-.71,22.37-.46,9.23-4.75,12.32-9.78,19.1-3.93,5.1-4.13,13.05-9.41,16.72-5.27,2.88-6.06-3.29-4.83-7.04,1.3-5.47,7.68-14.5,3.34-18.99-4.88-3.68-13.18-1.12-19-1.21-5.29.33-10.96-.28-15.95.82-1.76.38-3.55.92-5.27,1.35-9.66,2.73-10.57-3.51-18.56-3.34-6.64.37-13.65-1.92-18.97,2.91-4.29,4.77-9.25,10.43-16.16,11.05-5.63.62-10.55-1.35-16.13-1.45-5.94-.03-11.95,3.32-17.88,1.57-2.98-.88-4.26-3.34-3.38-5.97.84-2.91,4.32-5.86,6.43-9.58.82-1.42,1.45-2.92,1.94-4.49,2.17-6.08,1.77-13.37,3.79-19.12,1.61-4.42,4.53-8.15,7.03-12.1,2.12-3.32,3.65-6.63,6.16-9.42,5.23-5.03,15.2-9.37,21.99-4.63,4.96,3.66,8.6,9.52,14.09,12.67,7.75,5.25,18.44,5.26,27.19,8.17,3.49,1.56-8.23.73-8.91,1.45-2.54.72-.19,2.37,1.31,2.9,8.13,3.69,16.92-2.23,25.01-3.71,7.93-1.64,18.54-.01,25.12-4.89,5.02-3.71,5.5-11.02,5.14-16.61-.07-.91-.17-2.16-1.04-2.54-3.6-.35-5.69.69-6.72-4.04-1.63-7.91,1.46-16.34-.43-24.07-.59-3.96-5.33-10.13-9.26-6.56-1.38,1.28-3.06,3.25-5.04,1.88-1.79-1.08-1.78-5.73-3.54-8.86-5.38-9.48,7.15-7.18,7.15-7.18,8.67,2.68,17.19,7.66,22.69,14.66l.12.15Z" fill="#685e30"/>
    </g>
    <path d="M35.6,92.04c-2.35.06-4.73-1.26-5.52-3.51-1.47-3.83,3.05-9.32,7.43-7.8,1.13.35,2.54,1.45.94,2.08-1.5.57-4,.98-4.72,2.75-1.21,3.32,2.26,3.49,4.81,3.87,2.87.8-1.43,2.82-2.73,2.61h-.21Z" fill="#f5db79"/>
    <path d="M48.67,87.62c-2.25-.29-5.9-1.16-7.31-3.36-2.53-4.5,2.99-10.42,7.94-8.36,3.27,1.19,2.95,3.9,1.83,6.67-.64,1.54-.16,4.89-2.33,5.04h-.14ZM48.71,80.2c1.17-2.67-2.49-2.1-3.67-.98-1.35,1.09-2,3.5-.56,4.48,3.02,1.71,3.49-1.14,4.17-3.35l.06-.16Z" fill="#f5db79"/>
    <path d="M59.06,96.44c-1.64,1.26-1.78,3.45-2.99,4.95-1.91,1.03-2.53-5.1-2.78-6.81-.32-2.45-.9-4.5-.99-6.72-.46-4.8,7.96-4.04,9.59-.93,2.16,3.72.72,7.23-2.7,9.4l-.13.11ZM58.01,87.64c-1.54.12-2.7,1.56-2.24,3.07.22,1.02.21,2.61,1.53,2.77.94.11,2.08-.32,2.51-1.21.58-1.43.27-4.42-1.63-4.63h-.17Z" fill="#f5db79"/>
    <path d="M69.53,89.22c-9.55-.13-7.11-12.91,1.66-10.97,1.66.43,3.02,1.89,2.06,3.51-.91,1.66-3.54,2.31-4.7,3.74-.77,1.5,4.1.69,4.82,1.26.42.14.63.52.36.91-.85,1.12-2.55,1.51-3.98,1.56h-.22ZM69.33,80.41c-1.04.06-2.01.72-2.51,1.64-.25.43-.34.81-.12.87.18.07.58-.08,1-.26,1.2-.57,5.67-2.09,1.84-2.26h-.21Z" fill="#f5db79"/>
    <path d="M90.13,93.42c-2.35.06-4.73-1.26-5.52-3.51-1.47-3.83,3.05-9.32,7.43-7.8,1.13.35,2.54,1.45.94,2.08-1.5.57-4,.98-4.72,2.75-1.21,3.32,2.26,3.49,4.81,3.87,2.87.8-1.43,2.82-2.73,2.61h-.21Z" fill="#f5db79"/>
    <path d="M99.21,89.05c-6.82-1.85-3.24-12.75,3.32-10.76,5.9,1.91,2.67,12.03-3.15,10.8l-.18-.04ZM101.55,80.79c-2.9-.49-4.75,5.1-1.52,5.65,2.63.51,4.13-4.79,1.67-5.62l-.15-.03Z" fill="#f5db79"/>
    <path d="M112.85,82.78c.98-.9,1.33-2.57,2.25-3.47,2.79-1.17,1.19,9.17,1.48,10.79-.02,1.46.06,3.15-.65,4.38-1.67,2.35-5.83,1.61-8.02.17-2.61-1.83-2.83-6.06-.83-8.41,1.55-1.93,4.16-1.95,5.66-3.37l.11-.1ZM113.29,87.84c-.51-1.22-2.36-1.44-3.45-.84-1.56.82-1.88,3.17-1.01,4.61.91,1.68,3.87,1.55,4.48.1.41-1.11.32-2.58.04-3.71l-.06-.16Z" fill="#f5db79"/>
  </g>
</svg>