<?xml version="1.0" encoding="UTF-8"?>
<svg id="Layer_2" data-name="Layer 2" xmlns="http://www.w3.org/2000/svg" viewBox="0 0 98.87 38.31">
  <g id="Layer_1-2" data-name="Layer 1">
    <path d="M97.93,19.13c-1.05-3.17-1.19-6.73-2.15-10-.24-.74-.61-1.48-1.19-1.98-1.63-1.33-3.96-.68-5.84-1.36-3.97-1.14-8.49-6.28-12.69-3.57-1.57.88-3.16,2.34-5.06,2.17-5.75-.35-9.84-9.36-13.67-.52-1.12,1.81-4.4,2.14-6.24,1.29-.82-.51-1.37-1.49-2.11-2.13-1.6-1.47-4.32-1.02-6.64-1.45-1.62-.27-3.28-.89-4.94-.62-1.52.22-2.77,1.09-4.03,1.9-1.51,1.01-3.09,1.28-5.09,1.02-2.14-.19-4.35-.27-6.33-.88-1.91-.62-4.04-.93-5.6.66-2.3,2.3-3.36,5.01-7.25,4-1.06-.18-2.19-.32-3.22.02C2.87,8.81.62,12,.03,15.06c-.27,4.99,1.36,9.98,3.85,14.17,1.37,2.8,4.7,8.92,8,4.86,1.07-1.39,1.27-3.74,2.05-4.83.67-1.08,2.09-1.04,3.14-.56,2.11.89,2.92,3.26,4.46,4.9,1.24,1.4,3.19,2.34,4.89,3.43.98.57,2.01,1.22,3.16,1.27,2.53.09,4.92-2.4,7.29-3.51,1.55-.57,3.57-1.57,4.79-1.09,1.84.66,2.32,2.99,4.14,3.74,2.91,1.04,6.45,1.1,9.55.39,1.31-.4,2.51-1.27,3.71-1.81,3.85-1.79,8.09-2.69,12.4-2.55,1.07.02,2.09-.05,3.08.25,1.85.48,3.48,2.8,5.58,2.93,1.31.07,2.45-.91,3.52-1.56,1.67-1.11,3.66-1.29,5.92-1.76,7.11-1.53,11.24-6.81,8.41-14.03l-.05-.17Z" fill="#685e30"/>
    <path d="M12.17,22.71c-2.35.06-4.73-1.26-5.52-3.51-1.47-3.83,3.05-9.32,7.43-7.8,1.13.35,2.54,1.45.94,2.08-1.5.57-4,.98-4.72,2.75-1.21,3.32,2.26,3.49,4.81,3.87,2.87.8-1.43,2.82-2.73,2.61h-.21Z" fill="#f5db79"/>
    <path d="M25.24,18.28c-2.25-.29-5.9-1.16-7.31-3.36-2.53-4.5,2.99-10.42,7.94-8.36,3.27,1.19,2.95,3.9,1.83,6.67-.64,1.54-.16,4.89-2.33,5.04h-.14ZM25.28,10.86c1.17-2.67-2.49-2.1-3.67-.98-1.35,1.09-2,3.5-.56,4.48,3.02,1.71,3.49-1.14,4.17-3.35l.06-.16Z" fill="#f5db79"/>
    <path d="M35.63,27.1c-1.64,1.26-1.78,3.45-2.99,4.95-1.91,1.03-2.53-5.1-2.78-6.81-.32-2.45-.9-4.5-.99-6.72-.46-4.8,7.96-4.04,9.59-.93,2.16,3.72.72,7.23-2.7,9.4l-.13.11ZM34.57,18.3c-1.54.12-2.7,1.56-2.24,3.07.22,1.02.21,2.61,1.53,2.77.94.11,2.08-.32,2.51-1.21.58-1.43.27-4.42-1.63-4.63h-.17Z" fill="#f5db79"/>
    <path d="M46.1,19.88c-9.55-.13-7.11-12.91,1.66-10.97,1.66.43,3.02,1.89,2.06,3.51-.91,1.66-3.54,2.31-4.7,3.74-.77,1.5,4.1.69,4.82,1.26.42.14.63.52.36.91-.85,1.12-2.55,1.51-3.98,1.56h-.22ZM45.9,11.07c-1.04.06-2.01.72-2.51,1.64-.25.43-.34.81-.12.87.18.07.58-.08,1-.26,1.2-.57,5.67-2.09,1.84-2.26h-.21Z" fill="#f5db79"/>
    <path d="M66.7,24.08c-2.35.06-4.73-1.26-5.52-3.51-1.47-3.83,3.05-9.32,7.43-7.8,1.13.35,2.54,1.45.94,2.08-1.5.57-4,.98-4.72,2.75-1.21,3.32,2.26,3.49,4.81,3.87,2.87.8-1.43,2.82-2.73,2.61h-.21Z" fill="#f5db79"/>
    <path d="M75.77,19.71c-6.82-1.85-3.24-12.75,3.32-10.76,5.9,1.91,2.67,12.03-3.15,10.8l-.18-.04ZM78.12,11.45c-2.9-.49-4.75,5.1-1.52,5.65,2.63.51,4.13-4.79,1.67-5.62l-.15-.03Z" fill="#f5db79"/>
    <path d="M89.42,13.44c.98-.9,1.33-2.57,2.25-3.47,2.79-1.17,1.19,9.17,1.48,10.79-.02,1.46.06,3.15-.65,4.38-1.67,2.35-5.83,1.61-8.02.17-2.61-1.83-2.83-6.06-.83-8.41,1.55-1.93,4.16-1.95,5.66-3.37l.11-.1ZM89.86,18.5c-.51-1.22-2.36-1.44-3.45-.84-1.56.82-1.88,3.17-1.01,4.61.91,1.68,3.87,1.55,4.48.1.41-1.11.32-2.58.04-3.71l-.06-.16Z" fill="#f5db79"/>
  </g>
</svg>