<?xml version="1.0" encoding="UTF-8"?>
<svg id="Layer_2" data-name="Layer 2" xmlns="http://www.w3.org/2000/svg" viewBox="0 0 64.56 66.94">
  <g id="Layer_1-2" data-name="Layer 1">
    <path d="M60.73,9.99C54.37,2.52,43.32-.85,33.61.18,22.21,1.43,9.92,4.96,4.38,15.82c-5.76,10.61-6,24.18.24,34.69,3.49,5.64,8.77,10.87,14.3,14.15,5.58,3.23,12.35,2.72,18.21.48,8.62-3.57,20.63-5.26,23.96-15.33,1.86-5.98,1.76-12.49,2.68-18.65.91-7.3,2.05-15.12-2.93-21.03l-.12-.14Z" fill="#2d3d34"/>
    <path d="M45.28,29.72c-.28.05-.56.08-.83.13-.3-.06-.63-.1-.97-.1h-5.57c-.32-4.78-.41-9.56-.22-14.36.23-5.79-8.77-5.78-9,0-.19,4.8-.12,9.58.21,14.36h-9.75c-1.01,0-1.84.29-2.5.74-2.42.91-4.07,3.48-2.1,6.11,4.44,5.9,8.87,11.8,13.31,17.7.74.98,1.68,1.54,2.67,1.78,1.89.89,4.28.61,5.61-1.73,1.05-1.86,2.21-3.63,3.44-5.34.94-.57,1.57-1.46,1.88-2.47,2.34-2.89,4.94-5.56,7.84-8.02.85-.72,1.27-1.59,1.38-2.47,1.04-2.84-1.33-7.06-5.38-6.34Z" fill="#90cd91"/>
  </g>
</svg>