<?xml version="1.0" encoding="UTF-8"?>
<svg id="Layer_2" data-name="Layer 2" xmlns="http://www.w3.org/2000/svg" viewBox="0 0 39.24 28.45">
  <g id="Layer_1-2" data-name="Layer 1">
    <g id="FaXo8a">
      <path d="M38.28-.05c-.16-.22-.79-.27-1.52-.42-1.98-.36-4.36-.7-6.37-.92-8.2-1-18.81-.74-26.86.76-.46.1-.81.27-.89.53-.11.48.38.99.65,1.35,3.93,4.71,10.14,10.77,16.15,16.56.83.68,1.74.51,2.39-.23,1.13-1.13,3.52-3.53,5.46-5.46C31.62,7.58,36.66,3.14,38.31,0c0-.02-.02-.04-.02-.05ZM39.77,26.45c.75-1.01,1.24-4.02,1.57-5.56,1.42-5.08.18-15.88-1.48-18.95-.09-.2-.19-.31-.32-.32-2.89,2.6-6.6,7.08-10.82,11.01-.84.71-1.23,1.84-.24,2.56,2.87,2.57,8.87,9.34,11.23,11.28.02,0,.04-.01.06-.02ZM2.36,3.95C1.26,2.96-.21-.17-1.13,3.39c-2.49,6.14-1.71,19.85.72,23.17.29.11.64-.2.83-.41,2.14-2.46,5.96-6.3,9.4-9.67.84-.91,2.42-1.91,1.48-3.26-3-3.5-6.43-6.37-8.83-9.15-.04-.04-.07-.08-.11-.12ZM38.62,28.25c-.94-2.29-6.95-8.03-10.34-11.59-.45-.46-1-.97-1.67-.99-2.58.29-3.96,4.49-6.84,4.44-2.41-.06-4.06-3.02-5.88-4.16-.33-.17-.73-.31-1.08-.26-.6.06-1.07.49-1.47.89-3.03,3-8.77,9.12-10.03,10.91-.32.31-.65,1.1.34,1.19,5.09,1.54,27.59,2.98,36.94-.38.01-.02.02-.03.03-.05Z" fill="#343659"/>
    </g>
  </g>
</svg>