<?xml version="1.0" encoding="UTF-8"?>
<svg id="Layer_2" data-name="Layer 2" xmlns="http://www.w3.org/2000/svg" viewBox="0 0 277.67 218.5">
  <g id="Layer_1-2" data-name="Layer 1">
    <g>
      <polygon points="30.28 181.18 43.12 179.36 49.13 180.69 51.17 192.45 56.2 202.75 64.46 200.91 73.73 182.99 78.97 205.52 86.34 203.39 93.65 191.65 101.13 186.1 108.57 192.2 116.04 191.89 123.53 204.55 131.01 192.48 138.5 192.52 145.98 206.72 153.47 192.56 161.14 184.79 168.82 185.97 176.49 189.27 184.17 199.46 191.82 193.8 199.44 185.02 207.03 190.43 214.64 192.13 222.9 198.64 230.4 195.21 238.51 194.44 246.63 191.12 250.21 183.33 259.32 179.48 249.93 168.13 250.4 161.53 259.46 155.5 265.21 148.56 260.98 140.93 259.05 133.65 253.43 126.59 264.2 118.86 264.01 111.4 267.96 103.2 253.3 98.32 265.67 87.46 250.51 84.44 253.88 74.17 245.91 70.12 244.3 59.56 238.1 52.22 226.97 57.33 217.31 66.76 211.74 57.84 205.16 46.21 197.01 65.56 190.24 54.9 183.15 63.79 176.21 58.62 169.21 63.69 162.22 64.58 155.21 63.44 148.19 61.19 141.18 51.18 134.18 44.21 126.86 55.68 119.57 48.58 112.2 50.24 104.83 51.69 98.27 67.62 90.05 53.54 81.41 45.94 73.51 47.53 66.99 54.47 61.31 61.49 52.85 61.76 55.5 78.18 42.55 73.86 44.4 84.29 43.76 91.12 34.22 94.34 28.98 100.44 30.89 108.14 25.92 114.62 18.45 121.22 15.59 128.58 24.67 136.27 34.82 143.14 36.13 149.76 17.4 159.4 37.5 162.64 26.03 173.84 29.51 173.71 30.28 181.18" fill="#7880be"/>
      <polygon points="30.28 181.18 43.12 179.36 49.13 180.69 51.17 192.45 56.2 202.75 64.46 200.91 73.73 182.99 78.97 205.52 86.34 203.39 93.65 191.65 101.13 186.1 108.57 192.2 116.04 191.89 123.53 204.55 131.01 192.48 138.5 192.52 145.98 206.72 153.47 192.56 161.14 184.79 168.82 185.97 176.49 189.27 184.17 199.46 191.82 193.8 199.44 185.02 207.03 190.43 214.64 192.13 222.9 198.64 230.4 195.21 238.51 194.44 246.63 191.12 250.21 183.33 259.32 179.48 249.93 168.13 250.4 161.53 259.46 155.5 265.21 148.56 260.98 140.93 259.05 133.65 253.43 126.59 264.2 118.86 264.01 111.4 267.96 103.2 253.3 98.32 265.67 87.46 250.51 84.44 253.88 74.17 245.91 70.12 244.3 59.56 238.1 52.22 226.97 57.33 217.31 66.76 211.74 57.84 205.16 46.21 197.01 65.56 190.24 54.9 183.15 63.79 176.21 58.62 169.21 63.69 162.22 64.58 155.21 63.44 148.19 61.19 141.18 51.18 134.18 44.21 126.86 55.68 119.57 48.58 112.2 50.24 104.83 51.69 98.27 67.62 90.05 53.54 81.41 45.94 73.51 47.53 66.99 54.47 61.31 61.49 52.85 61.76 55.5 78.18 42.55 73.86 44.4 84.29 43.76 91.12 34.22 94.34 28.98 100.44 30.89 108.14 25.92 114.62 18.45 121.22 15.59 128.58 24.67 136.27 34.82 143.14 36.13 149.76 17.4 159.4 37.5 162.64 26.03 173.84 29.51 173.71 30.28 181.18" fill="none" stroke="#f37a7a" stroke-miterlimit="10" stroke-width="11"/>
    </g>
    <g>
      <polygon points="109.24 131.75 107.83 139.19 108.66 146.9 111.48 154.26 116.87 159.9 122.44 165.33 129.27 169.04 136.75 171.04 145.21 167.64 151.68 170.76 158.64 170.28 165.82 170.32 172.24 167.24 179.17 164.6 182 157.4 191.27 154.81 193.33 147.17 194.14 139.44 187.55 132.87 189.09 125.34 186.59 118.53 182.02 112.91 176.21 108.64 169.4 106.2 163.8 102.58 157.81 99.57 151.48 96.7 144.23 94.02 136.29 92.8 130.2 99.23 124.16 102.98 119.4 108.02 111.79 110.66 106.78 116.65 108.91 124.77 107.42 130.37 109.24 131.75" fill="#7880be"/>
      <polygon points="109.24 131.75 107.83 139.19 108.66 146.9 111.48 154.26 116.87 159.9 122.44 165.33 129.27 169.04 136.75 171.04 145.21 167.64 151.68 170.76 158.64 170.28 165.82 170.32 172.24 167.24 179.17 164.6 182 157.4 191.27 154.81 193.33 147.17 194.14 139.44 187.55 132.87 189.09 125.34 186.59 118.53 182.02 112.91 176.21 108.64 169.4 106.2 163.8 102.58 157.81 99.57 151.48 96.7 144.23 94.02 136.29 92.8 130.2 99.23 124.16 102.98 119.4 108.02 111.79 110.66 106.78 116.65 108.91 124.77 107.42 130.37 109.24 131.75" fill="none" stroke="#f37a7a" stroke-miterlimit="10" stroke-width="11"/>
    </g>
    <polygon points="231.89 90.13 237.68 85.73 234.97 78.91 229.97 74.32 223.45 72.84 216.91 69.78 208.25 71.93 200.69 76.79 200.22 84.54 202.46 91.18 208.72 95.37 215.03 95.97 221.25 96.1 228.05 96.22 231.42 90.8 231.89 90.13" fill="none" stroke="#f37a7a" stroke-miterlimit="10" stroke-width="11"/>
    <polyline points="57.42 62.71 59.22 56.76 61.07 50.93 63.5 45.57 68.98 40.4 76.26 42.38 81.72 47.64 86.27 54.12 91.81 60.33" fill="none" stroke="#f37a7a" stroke-miterlimit="10" stroke-width="11"/>
    <polyline points="91.37 4.74 100.3 15.52 105.34 28.63" fill="none" stroke="#f5db79" stroke-miterlimit="10" stroke-width="11"/>
    <polyline points="133.5 28.62 133.21 14.54 134.39 .46" fill="none" stroke="#f5db79" stroke-miterlimit="10" stroke-width="11"/>
    <line x1="167.03" y1="28.21" x2="177.23" y2="7.56" fill="none" stroke="#f5db79" stroke-miterlimit="10" stroke-width="11"/>
  </g>
</svg>