<?xml version="1.0" encoding="UTF-8"?>
<svg id="Layer_2" data-name="Layer 2" xmlns="http://www.w3.org/2000/svg" viewBox="0 0 193.77 142.22">
  <g id="Layer_1-2" data-name="Layer 1">
    <g>
      <path d="M193.68,81.45c-.65-1.73-3.43-3.71-7.57-5.78-6.16-3.29-15.23-6.46-21.61-9.78-22.24-10.49-13.83-33.12-14.05-51.87.33-8.6-3.58-15.02-11.57-7.5-4.27,4.45-8.65,11.75-13.29,16.61-4.29,4.79-7.62.72-10.54-5.72-1.77-4.12-3.41-10.61-5.35-14.23-5.01-8.65-7.11,2.73-7.27,6.94-.59,5.86-.5,15.06-.48,20.9-.16,2.58.22,5.81-1.03,7.94-1.07.69-1.94-1.43-2.79-2.65-2.28-3.24-6.83-14.13-11.13-13.35-1.42.41-2.49,2.55-3.4,5.65-2.26,6.09-2.54,17.61-10.97,18.01-5.96-.23-10.41-3.08-17.07-7.01-7.85-4.89-16.26-10.85-24.58-15.14-5.77-3.24-23.24-10.77-11.05,2.64,4.25,4.72,12.13,11.15,17.53,15.82,5.58,4.8,16.4,15.4,8.53,20.81-2.81,1.84-9.41,2.33-14.3,2.34-8.4.26-18.97-1.01-27.35.34-12.38,2.88,5.26,12.28,9.9,13.63,10.9,3.85,21.56,5.84,34.51,7.56,7.16.94,15.21,2.1,21.18,6.04,14.18,7.85,8.94,37.1,16.25,35.54,3.4-1.18,6.38-5.11,9.01-7.41,1.41-1.3,2.56-2.11,3.49-1.74,1.09.43,2.1,2.25,3.2,5.03,1.91,4.74,3.92,11.11,7.22,15.16,6.47,7.08,10.45-6.36,13.24-11.81,2.04-4.43,5.67-8.28,10.69-8.89,8.6-.7,18,2.95,26.75,3.01,3.3.1,6.35.11,8.09-1.13,5.14-4.17-6.03-17.91-5.62-24.05-1.23-13.39,33.13-7.25,31.47-15.81l-.03-.08Z" fill="#f2f1f3"/>
      <path d="M79.04,55.6c.92.69,2.87,1.09,3.11,1.79.15.47-.21.87-.49,1.26-.83,1-2.08,2.17-2.15,3.68-.07.53.09,1.68.2,2.08.43,1.82,1.45,4.71.19,6.17-.9,1.11-2.49.12-3.2-1.98-.76-2.48-1.24-5.35-3.48-6.91-2.43-1.68-1.45-2.71-.19-5.48.87-1.82,1.11-4.09,2.96-5.41.96-.85,4.71-1.95,4.55.15-.22,1.38-2.94,3.35-1.59,4.57l.1.08Z" fill="#f37a7a"/>
      <path d="M88.73,71.12c-7.97-.42-6.67-13.35,1.13-12.83,7.09.6,5.89,12.92-.95,12.83h-.19ZM89.4,61.35c-3.4.09-4.08,7.05-.19,6.64,1.75-.29,2.42-1.93,2.31-3.67-.04-1.37-.5-2.93-1.95-2.97h-.16Z" fill="#f37a7a"/>
      <path d="M106.72,52.17c1.16,3.44,2.97,7.46-1.86,8.78-6.3,2.37-9.21-2.26-10.28-7.73-.37-1.92.62-4.53,2.4-2.42,1.46,1.75,1.58,5.48,3.88,6.58.95.48,1.96.02,2.3-.96,1.19-2.78-2.08-6.48.01-9,2.09-.76,2.98,3.06,3.49,4.57l.06.18Z" fill="#f37a7a"/>
      <path d="M120.89,61.72c-1.18,3.71-4.44-3.1-6.34,2.8-.61,1.46.19,8.13-2.77,6.31-.9-.79-.85-3.52-.83-5.79.07-1.75-.22-3.69.5-5.31.9-1.74,3.02-1.23,4.69-1.51,1.21-.13,2.62-.42,3.57.24.97.57,1.49,1.96,1.22,3.1l-.04.16Z" fill="#f37a7a"/>
      <path d="M129.89,52.15c-2.35,1.74-2.38,4.04-2.3,6.73-.18,5.59-4.27,4.88-3.94-.47.22-2.69-.96-4.87-2.8-6.63-1.42-1.38-.11-2.25.99-3.23,1.01-.79,2.11-2.6,3.11-2.86,1.16-.22,2.8,1.97,4.19,2.92,1.26,1.02,2.89,1.94.87,3.44l-.12.11Z" fill="#f37a7a"/>
      <path d="M139.81,50.35c.75.51,2.04.3,3.01.41,3.35.2,3.98,3.63,4.28,6.85.12,1.83.66,4.41-.49,5.87-.58.64-1.52.08-2.11-1.33-.69-1.52-.63-3.83-1.02-5.34-.6-2.62-2.42-2.05-3.47.1-1.07,1.91-.9,4.53-2.33,6.15-1.37,1.3-2.33-1.55-2.23-3.23.18-4.36-.25-9.92.39-14,.24-1.27,1.37-2.37,2.24-.85,1.06,1.58.47,4.01,1.65,5.3l.08.07Z" fill="#f37a7a"/>
      <path d="M119.24,91.58c-7.97-.42-6.67-13.35,1.13-12.83,7.09.6,5.89,12.92-.95,12.83h-.19ZM119.92,81.81c-3.4.09-4.08,7.05-.19,6.64,1.75-.29,2.42-1.93,2.31-3.67-.04-1.37-.5-2.93-1.95-2.97h-.16Z" fill="#7880be"/>
      <path d="M132.01,71.89c.97.64,2.95.94,3.24,1.62.18.46-.14.88-.4,1.29-.76,1.05-1.92,2.29-1.89,3.8-.04.53.21,1.67.35,2.07.56,1.79,1.79,4.63.64,6.16-.82,1.16-2.48.25-3.34-1.81-.94-2.45-1.63-5.29-3.98-6.73-2.53-1.53-1.66-2.62-.59-5.47.74-1.86.81-4.15,2.57-5.57.92-.92,4.57-2.18,4.56-.08-.13,1.4-2.7,3.52-1.26,4.66l.1.07Z" fill="#7880be"/>
      <path d="M100.33,108.94c1.8-2.19,1.37-6.33,1.55-9.25.24-1.69.28-3.87,1.89-4.41,2.13.4,2.69,4.16,3.01,7.37.2,3.67.08,7.38-1.94,10.08-1.17,1.66-3.56,2.47-5.41,1.71-.93-.36-1.43-.93-1.44-1.57-.06-1.09,1.19-2.31,2.24-3.79l.09-.14ZM102.82,93.34c-2.4-.36-1.93-3.87.54-3.46,2.22.35,1.79,3.52-.35,3.47h-.19Z" fill="#f37a7a"/>
      <path d="M121.62,110.97c-.04,3.3.53,8.02-4.2,7.65-6.4.17-7.31-5.59-6.68-10.68.23-1.9,1.85-4.07,2.8-1.49.76,2.13-.25,5.65,1.45,7.48.68.77,1.71.66,2.29-.14,1.55-2.05.59-5.31,1.75-7.54.53-1.17,1.62-1.33,2.15-.02.62,1.35.47,3.02.45,4.54v.18Z" fill="#f37a7a"/>
      <path d="M125.56,113.44c-.57,1.11-2.32,1.31-2.82.08-.33-.76-.13-1.67,0-2.5.56-3.25,1.81-10.72,2.3-13.5.13-.67.29-1.34.74-1.8,1.19-1.12,3.04,0,2.73,1.63-.74,4.3-1.68,11.9-2.88,15.97l-.07.12Z" fill="#f37a7a"/>
      <path d="M145.35,99.52c-1.51,3.21-5.94,6.39-8.4,9.33-1.04,1.07-1.97,2.21-3.08,3.17-2.03,1.82-4.2,1.54-3.61-.45.43-1.39,1.61-2.52,2.36-3.78,2.51-3.36.26-7.62.48-11.34.04-1.02.62-2.65,1.86-1.94,2.01,1.18,1.5,4.83,3.28,6.1,1.47.51,2.58-1.28,3.75-1.96,1.95-1.39,3.83-1.01,3.38.74l-.04.13Z" fill="#f37a7a"/>
    </g>
  </g>
</svg>