<?xml version="1.0" encoding="UTF-8"?>
<svg id="Layer_2" data-name="Layer 2" xmlns="http://www.w3.org/2000/svg" viewBox="0 0 277.67 184.75">
  <g id="Layer_1-2" data-name="Layer 1">
    <g>
      <polygon points="30.28 147.43 43.12 145.61 49.13 146.94 51.17 158.69 56.2 169 64.46 167.15 73.73 149.23 78.97 171.76 86.34 169.63 93.65 157.89 101.13 152.35 108.57 158.44 116.04 158.13 123.53 170.8 131.01 158.72 138.5 158.77 145.98 172.97 153.47 158.81 161.14 151.03 168.82 152.21 176.49 155.52 184.17 165.71 191.82 160.05 199.44 151.27 207.03 156.68 214.64 158.38 222.9 164.89 230.4 161.45 238.51 160.68 246.63 157.37 250.21 149.58 259.32 145.72 249.93 134.37 250.4 127.77 259.46 121.75 265.21 114.8 260.98 107.18 259.05 99.89 253.43 92.83 264.2 85.1 264.01 77.64 267.96 69.45 253.3 64.57 265.67 53.71 250.51 50.68 253.88 40.41 245.91 36.37 244.3 25.81 238.1 18.46 226.97 23.58 217.31 33 211.74 24.09 205.16 12.46 197.01 31.8 190.24 21.14 183.15 30.04 176.21 24.86 169.21 29.93 162.22 30.83 155.21 29.68 148.19 27.44 141.18 17.42 134.18 10.46 126.86 21.92 119.57 14.83 112.2 16.48 104.83 17.94 98.27 33.87 90.05 19.78 81.41 12.18 73.51 13.77 66.99 20.71 61.31 27.73 52.85 28 55.5 44.42 42.55 40.1 44.4 50.53 43.76 57.36 34.22 60.58 28.98 66.69 30.89 74.38 25.92 80.86 18.45 87.47 15.59 94.83 24.67 102.52 34.82 109.38 36.13 116 17.4 125.65 37.5 128.88 26.03 140.08 29.51 139.96 30.28 147.43" fill="#7880be"/>
      <polygon points="30.28 147.43 43.12 145.61 49.13 146.94 51.17 158.69 56.2 169 64.46 167.15 73.73 149.23 78.97 171.76 86.34 169.63 93.65 157.89 101.13 152.35 108.57 158.44 116.04 158.13 123.53 170.8 131.01 158.72 138.5 158.77 145.98 172.97 153.47 158.81 161.14 151.03 168.82 152.21 176.49 155.52 184.17 165.71 191.82 160.05 199.44 151.27 207.03 156.68 214.64 158.38 222.9 164.89 230.4 161.45 238.51 160.68 246.63 157.37 250.21 149.58 259.32 145.72 249.93 134.37 250.4 127.77 259.46 121.75 265.21 114.8 260.98 107.18 259.05 99.89 253.43 92.83 264.2 85.1 264.01 77.64 267.96 69.45 253.3 64.57 265.67 53.71 250.51 50.68 253.88 40.41 245.91 36.37 244.3 25.81 238.1 18.46 226.97 23.58 217.31 33 211.74 24.09 205.16 12.46 197.01 31.8 190.24 21.14 183.15 30.04 176.21 24.86 169.21 29.93 162.22 30.83 155.21 29.68 148.19 27.44 141.18 17.42 134.18 10.46 126.86 21.92 119.57 14.83 112.2 16.48 104.83 17.94 98.27 33.87 90.05 19.78 81.41 12.18 73.51 13.77 66.99 20.71 61.31 27.73 52.85 28 55.5 44.42 42.55 40.1 44.4 50.53 43.76 57.36 34.22 60.58 28.98 66.69 30.89 74.38 25.92 80.86 18.45 87.47 15.59 94.83 24.67 102.52 34.82 109.38 36.13 116 17.4 125.65 37.5 128.88 26.03 140.08 29.51 139.96 30.28 147.43" fill="none" stroke="#f37a7a" stroke-miterlimit="10" stroke-width="11"/>
    </g>
    <g>
      <polygon points="109.24 97.99 107.83 105.44 108.66 113.14 111.48 120.5 116.87 126.14 122.44 131.58 129.27 135.29 136.75 137.28 145.21 133.88 151.68 137.01 158.64 136.53 165.82 136.57 172.24 133.48 179.17 130.84 182 123.64 191.27 121.06 193.33 113.41 194.14 105.68 187.55 99.12 189.09 91.58 186.59 84.77 182.02 79.15 176.21 74.88 169.4 72.44 163.8 68.82 157.81 65.82 151.48 62.94 144.23 60.27 136.29 59.04 130.2 65.48 124.16 69.23 119.4 74.27 111.79 76.9 106.78 82.89 108.91 91.01 107.42 96.62 109.24 97.99" fill="#7880be"/>
      <polygon points="109.24 97.99 107.83 105.44 108.66 113.14 111.48 120.5 116.87 126.14 122.44 131.58 129.27 135.29 136.75 137.28 145.21 133.88 151.68 137.01 158.64 136.53 165.82 136.57 172.24 133.48 179.17 130.84 182 123.64 191.27 121.06 193.33 113.41 194.14 105.68 187.55 99.12 189.09 91.58 186.59 84.77 182.02 79.15 176.21 74.88 169.4 72.44 163.8 68.82 157.81 65.82 151.48 62.94 144.23 60.27 136.29 59.04 130.2 65.48 124.16 69.23 119.4 74.27 111.79 76.9 106.78 82.89 108.91 91.01 107.42 96.62 109.24 97.99" fill="none" stroke="#f37a7a" stroke-miterlimit="10" stroke-width="11"/>
    </g>
    <polygon points="231.89 56.37 237.68 51.98 234.97 45.16 229.97 40.57 223.45 39.08 216.91 36.03 208.25 38.17 200.69 43.03 200.22 50.79 202.46 57.42 208.72 61.61 215.03 62.21 221.25 62.34 228.05 62.46 231.42 57.04 231.89 56.37" fill="none" stroke="#f37a7a" stroke-miterlimit="10" stroke-width="11"/>
    <polyline points="57.42 28.96 59.22 23.01 61.07 17.18 63.5 11.82 68.98 6.65 76.26 8.62 81.72 13.89 86.27 20.37 91.81 26.57" fill="none" stroke="#f37a7a" stroke-miterlimit="10" stroke-width="11"/>
  </g>
</svg>