<?xml version="1.0" encoding="UTF-8"?>
<svg id="Layer_2" data-name="Layer 2" xmlns="http://www.w3.org/2000/svg" viewBox="0 0 96.38 45.22">
  <g id="Layer_1-2" data-name="Layer 1">
    <polygon points="88.08 7.85 87.59 6.13 85.71 3.24 84.13 5.61 82.33 5.42 81.9 8.36 79.98 4.94 77.68 10.35 76.44 8.94 75.61 7.48 74.59 6.55 73.65 5.61 73.45 1.33 70.99 .34 71.06 8.62 67.43 2.69 67.47 6.4 67.25 9.05 66 9.95 61.61 4.37 62.4 9.97 59.84 5.66 58.75 12.81 56.34 12.17 55.7 8.7 54.04 8.12 56.87 2.88 52.24 5.88 50.93 5.29 50.14 4.19 49.43 2.77 47.8 6.34 46.44 .92 45.63 3.73 42.68 0 41.72 1.72 39.84 .35 41.48 9.03 38.15 2.76 36.66 1.86 35.4 1.91 34.84 6.8 32.83 2.32 31.67 4 30.88 8.64 29.88 11.24 27.59 5.36 25.63 3.46 25.18 7.92 22.61 4.12 23.27 11.28 20.86 8.28 19.7 9.32 18.35 9.73 16.97 10.04 15.33 9.06 14.69 13.83 13.09 13.89 11.58 13.02 10.14 10.31 9.09 13.46 6.74 8 7.16 13.64 5.16 12.38 4.34 13.42 4.71 15.06 6.15 16.74 .36 16.6 4.9 18.66 2.55 19.76 .5 21.13 0 22.65 2.07 24 6.72 24.2 3.73 26.53 4.45 27.73 5.9 28.41 3.23 32.48 7.87 30.02 10.19 28.87 8.2 34.51 11.22 31.5 10.58 37.86 13.64 31.54 14.68 31.03 15.78 31.59 18.06 37.69 19.52 36.7 19.52 29.97 20.97 29.32 23.33 33.41 24.64 30.41 26.38 31.22 28.27 29.75 28.93 32.45 29.73 34.94 31.06 31.87 33.3 36.44 34.05 33.82 34.51 31.59 35.98 31.38 36.73 28.14 39.81 29.89 39.63 33.09 40.68 34 42.11 35.24 44.16 35.77 43.87 30.14 48.19 37.21 47.64 29.57 50.37 29.88 52.22 31.42 52.6 33.04 54.75 31.49 53.63 36.9 56.84 31.62 56.65 37.91 58.45 36.87 59.78 39.44 61.4 38.2 63.83 32.62 64.53 37.28 66.71 36.18 69.62 35.39 67.49 39.88 68.28 40.96 69.17 42 71.66 41.69 73.49 40.87 72.58 43.82 74.16 45.22 74.45 42.35 77.45 43.81 80.27 44.54 76.05 37.7 81.42 41.14 78.83 36.18 83.68 39.3 84.68 38.64 83.72 34.47 84.58 33.02 85.68 32.17 87.99 32.9 86.99 30.15 89.61 30.59 93.96 30.98 88.16 27.25 91.44 26.82 88.26 24.86 89.37 23.76 96.38 22.83 87.82 21.18 92.54 19.75 91.49 18.39 92.02 16.91 94.41 15.01 89.3 14.6 92.79 12.22 91.58 11.02 87.31 11.23 92.79 6.99 88.54 8.28 88.08 7.85" fill="#313354"/>
    <g>
      <path d="M12.18,27.39l-1.19.87-1.08-1.01-1.39-.97.16-1.78-.46-1.48-1.21-.96-.8-1.15.07-1.46.08-1.34.81-.73,1.06.08.68,1.07.83,1.1.1,1.46,1.46.77.73-.83.66-1.19.61-1.26.88-1.1,1.28-.03.46.73.74,1.65-1.36,1.17-.23,1.59-.31,1.37-.52,1.29-1.38.86-.26,1.58-.41-.31Z" fill="#7880be"/>
      <path d="M20.85,25.61l-1.48-.63-.63-1.69-1.62-.59-.67-1.48-.19-1.62.47-1.55.87-1.31,1.36-.77.95-1.14,1.44-.32,1.35-.54,1.38.45,1.6-.16.68,1.52.6,1.06.68,1.5-1.02,1.56-1.8.21-1.5.18-1.58-.03-1.23,1.14.49.92,1.67.25,1.48.81h1.81s-.17,1.44-.17,1.44l-1.51.62-1.58.08-1.47-.31-.37.37ZM23.33,17.11l-1.06-.06-1.63-.36-.29,1.22.92-.16,1.37-.22h1.36s.82-.22.82-.22l-1.27-1.09-.22.89Z" fill="#7880be"/>
      <path d="M37.56,20.37l-1.17,1.19-1.29-.91-1.64-.43-1.13,1.35-.96,1.33.35,1.54-.55,1.48,1.03,1.5-.63,1.63-1.51-.61-1.35-.69-.37-1.62-.21-1.6.04-1.6.14-1.23.53-1.21-.19-1.19,1.11-.83,1.39-.69,1.64.05,1.46-1.03,1.44,1.08.78.9,1,1.28.09.32Z" fill="#7880be"/>
      <path d="M42.77,13.38l1.57-.06,1.46.52,1.56-.83,1.49.23,1.21,1.12,1.16.65,1.15.78,1.27,1.17-.78,1.61.66,1.37-.35,1.44-.05,1.42.33,1.51-.42,1.55-1.73.22v-1.61s-.09-1.41-.09-1.41l-.69-1.38.39-1.49-.89-1.29-.99-1.69-.22,2.02-.51,1.32-1.56,1.28.97,1.65-.27,1.61-1.37,1.56-1.64-2.14.07-1.56.68-1.5-.5-1.48.12-1.59-1.45-.46-1.19,1.13.21,1.79-1.6,1.09-.69,1.23-1.21.47-.77-1.4.49-1.55.18-1.45.55-1.39-.09-1.46.49-1.35.13-1.49,1.43-.33,1.85-.66-.37.86Z" fill="#7880be"/>
      <path d="M59.03,27.68l-1.65.51-1.27-.95-.86-1.28-.71-1.36.65-1.53-.11-1.39.69-1.21.08-1.58,1.04-1.07,1.51-.22,1.29-.29,1.38-.2,1.63-.05.65,1.55,1.06,1.01.08,1.47.04,1.42.13,1.51-.47,1.44-.99,1.16-1.42.54-1.26.42-1.37.51-.12-.43ZM60.42,19.22l-1.05,1.2-.87.78-.59,1.14.11,1.26-.07,1.61,1.55.36,1.76-.33.27-1.74.28-1.44.23-1.67-1.27-1.06-.35-.1Z" fill="#7880be"/>
      <path d="M76,24.21l-1.2-.76-.67-1.17-.56-1.21-.98-1.1-.07-1.37-.15-1.56-1.43.43-.94,1-.46,1.38-.22,1.4.99,1.44-.29,1.42-.67,1.39-1.65.57-.27-1.6-.82-1.27-.09-1.57-1.11-1.36-.22-1.56.48-1.61.19-1.48.72-1.27,1.21-1.17,1.7.5,1.45-.62,1.47.41,1.27.72,1.32.98.8,1.43.37,1.57-.11,1.62.2,1.47.58,1.46-.96.9.12.56Z" fill="#7880be"/>
      <path d="M85.39,21.43l-1.07.95-1.13.87-.36,1.39-.26,1.38-.02,1.49-.67,1.35-1.54.5-1.13.42-.91-1.07.15-1.4.4-1.31.22-1.34-.54-1.36.22-1.26.18-1.52-1.3-.72.08-1.25.8-.61,1.65-.74.62-1.97,1.95-.6,1.23,1.12.89,1.04-.12,1.73,1.25.89.1.99-.42,1.42-.28-.37Z" fill="#7880be"/>
    </g>
  </g>
</svg>