<?xml version="1.0" encoding="UTF-8"?>
<svg id="Layer_2" data-name="Layer 2" xmlns="http://www.w3.org/2000/svg" viewBox="0 0 204.96 231.67">
  <g id="Layer_1-2" data-name="Layer 1">
    <g>
      <polyline points="152.92 204.77 145.63 216.1 138.33 210.62 131.04 218.21 123.75 213.62 116.45 221.01 109.16 209.3 101.86 214.31 94.57 222.53 87.27 224.05 79.97 224.08 72.68 214.07 65.4 220.28 58.08 206.84 50.6 217.5 42.5 222.8 38.07 204.58 28.15 212.36 16.5 211.33 14.44 201.25 17.31 192.28 15.57 184.92 15.91 177.46 16.17 170.09 23.78 162.81 14.15 155.44 17.74 148.11 23.62 140.76 16.16 133.42 21.19 126.07 22.01 118.72 13.37 111.39 24.9 104.03 24.25 96.69 18.74 89.35 17.89 82 26.58 74.66 26.38 67.32 12.12 59.93 26.49 52.74 20.61 45.91 21.31 39.29 12.11 30.58 23.01 26.83 26.75 21.08 34.27 23.9 40.24 17.33 47.23 11.49 54.22 17.89 61.33 10.26 68.47 12.27 75.59 12.04 82.72 24.93 89.85 16.85 96.98 19.89 104.11 24.77 111.25 22.16 118.39 10.84 125.51 23.85 132.64 19.56 139.78 28.5 146.9 12.17 154.51 21.66 162.02 24.21 169.28 27.37 180.12 15.95 189.48 23.91 180.66 34.85 179.57 42.02 189.47 49.04 186.7 56.29 189.64 63.48 194.71 70.67 190.46 77.91 183.59 85.13 188.69 92.33 192.17 99.55 179.5 106.71 191.56 113.97 190.32 121.17 194.81 128.4 180.29 135.53 192.67 142.79 175.55 149.94 182.38 157.17 184.26 164.37 187.4 171.56 181.19 178.8" fill="#7880be"/>
      <polyline points="152.92 204.77 145.63 216.1 138.33 210.62 131.04 218.21 123.75 213.62 116.45 221.01 109.16 209.3 101.86 214.31 94.57 222.53 87.27 224.05 79.97 224.08 72.68 214.07 65.4 220.28 58.08 206.84 50.6 217.5 42.5 222.8 38.07 204.58 28.15 212.36 16.5 211.33 14.44 201.25 17.31 192.28 15.57 184.92 15.91 177.46 16.17 170.09 23.78 162.81 14.15 155.44 17.74 148.11 23.62 140.76 16.16 133.42 21.19 126.07 22.01 118.72 13.37 111.39 24.9 104.03 24.25 96.69 18.74 89.35 17.89 82 26.58 74.66 26.38 67.32 12.12 59.93 26.49 52.74 20.61 45.91 21.31 39.29 12.11 30.58 23.01 26.83 26.75 21.08 34.27 23.9 40.24 17.33 47.23 11.49 54.22 17.89 61.33 10.26 68.47 12.27 75.59 12.04 82.72 24.93 89.85 16.85 96.98 19.89 104.11 24.77 111.25 22.16 118.39 10.84 125.51 23.85 132.64 19.56 139.78 28.5 146.9 12.17 154.51 21.66 162.02 24.21 169.28 27.37 180.12 15.95 189.48 23.91 180.66 34.85 179.57 42.02 189.47 49.04 186.7 56.29 189.64 63.48 194.71 70.67 190.46 77.91 183.59 85.13 188.69 92.33 192.17 99.55 179.5 106.71 191.56 113.97 190.32 121.17 194.81 128.4 180.29 135.53 192.67 142.79 175.55 149.94 182.38 157.17 184.26 164.37 187.4 171.56 181.19 178.8" fill="none" stroke="#90cd91" stroke-miterlimit="10" stroke-width="11"/>
    </g>
    <g>
      <polyline points="56.2 2.37 56.29 9.71 58.08 17.05 56.21 24.39 57.62 31.73" fill="#303253"/>
      <polyline points="56.2 2.37 56.29 9.71 58.08 17.05 56.21 24.39 57.62 31.73" fill="none" stroke="#90cd91" stroke-miterlimit="10" stroke-width="11"/>
    </g>
    <g>
      <polyline points="96.79 2.65 96.02 9.99 95.53 17.33 97.27 24.67 96.05 32.01" fill="#303253"/>
      <polyline points="96.79 2.65 96.02 9.99 95.53 17.33 97.27 24.67 96.05 32.01" fill="none" stroke="#90cd91" stroke-miterlimit="10" stroke-width="11"/>
    </g>
    <g>
      <polyline points="136.61 7.5 138.64 14.61 136.89 21.73 136.96 28.84 138.79 35.95" fill="#303253"/>
      <polyline points="136.61 7.5 138.64 14.61 136.89 21.73 136.96 28.84 138.79 35.95" fill="none" stroke="#90cd91" stroke-miterlimit="10" stroke-width="11"/>
    </g>
    <g>
      <polyline points="17.86 61.41 25.11 66.03 32.36 68.25 39.6 70.22 46.85 59.84 54.1 71.97 61.35 59.2 68.6 65.67 75.85 60.98 83.1 56.34 90.36 59.31 97.61 70.39 104.86 59.37 112.12 65.19 119.37 66.39 126.63 56.77 133.88 66.07 141.13 57.12 148.39 70.96 155.64 66 162.89 66.17 170.15 59.31 177.4 67.2 184.64 56" fill="#7880be"/>
      <polyline points="17.86 61.41 25.11 66.03 32.36 68.25 39.6 70.22 46.85 59.84 54.1 71.97 61.35 59.2 68.6 65.67 75.85 60.98 83.1 56.34 90.36 59.31 97.61 70.39 104.86 59.37 112.12 65.19 119.37 66.39 126.63 56.77 133.88 66.07 141.13 57.12 148.39 70.96 155.64 66 162.89 66.17 170.15 59.31 177.4 67.2 184.64 56" fill="none" stroke="#90cd91" stroke-miterlimit="10" stroke-width="11"/>
    </g>
    <g>
      <polyline points="72.15 102.49 79.59 104.16 87.04 105.51 94.48 103.46 101.93 106.49 109.37 102.94 116.82 102.98 124.27 101.25 131.71 106.04 139.16 104.36" fill="#303253"/>
      <polyline points="72.15 102.49 79.59 104.16 87.04 105.51 94.48 103.46 101.93 106.49 109.37 102.94 116.82 102.98 124.27 101.25 131.71 106.04 139.16 104.36" fill="none" stroke="#90cd91" stroke-miterlimit="10" stroke-width="11"/>
    </g>
    <g>
      <polyline points="69.01 137.54 76.21 132.17 83.5 136.83 90.73 131.43 98 134.29 105.25 133.64 112.51 138.55 119.76 138.37 127.02 132.7 134.27 132.55 141.53 134.99" fill="#303253"/>
      <polyline points="69.01 137.54 76.21 132.17 83.5 136.83 90.73 131.43 98 134.29 105.25 133.64 112.51 138.55 119.76 138.37 127.02 132.7 134.27 132.55 141.53 134.99" fill="none" stroke="#90cd91" stroke-miterlimit="10" stroke-width="11"/>
    </g>
    <g>
      <polyline points="68.55 167.68 75.98 162.16 83.41 167.24 90.85 163.9 98.28 167.13 105.72 161.8 113.15 165.99 120.59 167.13 128.02 168.73 135.46 164.96 142.89 162.38" fill="#303253"/>
      <polyline points="68.55 167.68 75.98 162.16 83.41 167.24 90.85 163.9 98.28 167.13 105.72 161.8 113.15 165.99 120.59 167.13 128.02 168.73 135.46 164.96 142.89 162.38" fill="none" stroke="#90cd91" stroke-miterlimit="10" stroke-width="11"/>
    </g>
    <g>
      <polyline points="190.34 179.5 183.4 178.78 176.51 178.74 169.7 180.12 162.52 180.08 157.19 185.29 151.2 188.71 147.37 194.88 147.41 203.28 146.39 211.47 147.01 219.6" fill="#7880be"/>
      <polyline points="190.34 179.5 183.4 178.78 176.51 178.74 169.7 180.12 162.52 180.08 157.19 185.29 151.2 188.71 147.37 194.88 147.41 203.28 146.39 211.47 147.01 219.6" fill="none" stroke="#90cd91" stroke-miterlimit="10" stroke-width="11"/>
    </g>
    <g>
      <polyline points="144.95 217.55 148.18 210.57 155.46 208.28 160.31 203.18 164.13 196.9 171.22 194.37 174.94 187.99 181.11 184.4 186.95 180.43" fill="#303253"/>
      <polyline points="144.95 217.55 148.18 210.57 155.46 208.28 160.31 203.18 164.13 196.9 171.22 194.37 174.94 187.99 181.11 184.4 186.95 180.43" fill="none" stroke="#90cd91" stroke-miterlimit="10" stroke-width="11"/>
    </g>
  </g>
</svg>