<?xml version="1.0" encoding="UTF-8"?>
<svg id="Layer_2" data-name="Layer 2" xmlns="http://www.w3.org/2000/svg" viewBox="0 0 290.14 230.33">
  <g id="Layer_1-2" data-name="Layer 1">
    <path d="M34.2,176.74c-2.08-5.94-6.18-11.1-8.15-16.96-1.03-3.04-.53-6.53-.51-9.7.02-3.92-.03-7.83-.12-11.75-.19-7.71-12.19-7.74-12,0,.16,6.78-.5,13.81.22,20.55.7,6.62,4.97,11.79,7.64,17.69,2.49,5.51,4.43,12.05,2.18,17.96-2.16,5.69-5.7,9.95-6.04,16.28-.42,7.72,11.58,7.69,12,0,.29-5.37,5.08-10.14,6.31-15.45,1.43-6.17.54-12.73-1.54-18.64Z" fill="#f5db79"/>
    <g>
      <path d="M274.96,99.79c-.05-.3-.09-.55-.13-.77,0-.29-.02-.66-.04-1.15-.14-3.42-.27-6.8-.18-10.22.57-1.82.98-3.73,1.22-5.75.31-2.68.29-5.29.13-7.97,0-.11-.02-.23-.02-.34.74-4.47,1.62-8.91,2.54-13.35,1.01-3.15,1.61-6.32,1.65-9.95.11-10.72-8.27-19.72-18.64-21.12-1.36-.18-2.75-.21-4.13-.12-1.91-7.39-7.33-14.07-15.05-15.83-9.45-2.15-19.15,1.47-24.28,9.88-8.55,14.04-15.83,28.77-23.73,43.17-7.66,13.98-16.42,26.95-25.84,39.78-4.65,6.34-9.25,12.74-13.19,19.55-1.76,3.04-3.37,6.15-4.82,9.35-1.51,3.33-2.89,6.73-4.31,10.09-.17.41-.3.71-.39.92-.08.17-.17.35-.27.56-1.74,3.65-3.6,7.07-5.7,10.53-.04.07-.07.12-.11.18-.07.07-.14.15-.22.23-1.03,1.11-2.02,2.22-3.11,3.27-.31.3-2.31,1.91-3.01,2.53-.92.6-1.97,1.29-2.19,1.42-1.26.76-2.56,1.41-3.86,2.1-.65.24-1.3.48-1.96.68-10.65,3.54-18.72,15-15.02,26.45,3.43,10.61,15.02,18.82,26.45,15.02,17.36-5.77,32.27-16.94,41.77-32.72,2.17-3.6,3.85-7.44,5.5-11.29.76-1.8,1.52-3.6,2.28-5.4.12-.28.29-.68.53-1.23.74-1.62,1.45-3.25,2.25-4.85,3.75-7.57,8.47-14.6,13.4-21.44,7.19-10,14.32-19.86,20.83-30.21,2.68,15.26,5.35,30.52,8.03,45.78,1.95,11.11,16.13,18.36,26.45,15.02,11.29-3.65,15.99-12.9,15.29-23.71-.02.18-.05.37-.07.55-.1-.32-.07-.75.03-1.23-.06-.68-.13-1.36-.23-2.05.11.85.19,1.47.27,1.88.06-.27.13-.54.22-.83-.05.39-.1.79-.15,1.18.13.56.19.13.18-1.28.3-.95.7-1.92.87-2.55,1.23-4.63,2.21-9.12,2.68-13.92.5-5.11-.2-10.02-.97-15.09-.29-1.93-.63-3.84-.95-5.76Z" fill="#f5db79"/>
      <path d="M273.04,138.21c.02.23.03.45.04.68.02-.17.04-.33.06-.5-.02-.09-.04-.21-.07-.35-.01.06-.03.11-.04.17Z" fill="#f5db79"/>
    </g>
    <path d="M137.92,173.6c-.53-11.82-9.44-21.29-21.5-21.5-7.25-.13-11.98,2.2-18.45,4.65-2.16.95-1.97.85.57-.3-.81.29-1.64.54-2.48.74-.41.12-.82.22-1.24.31-.03,0-.07,0-.1,0-1.43-1.82-3.03-3.51-4.72-5-7.54-6.59-16.49-10.09-26.34-10.75-.85-.82-1.8-1.58-2.81-2.28-.27-7.67-1.17-15.3-3.31-22.73-.64-2.21-1.21-4.45-1.86-6.65.02-.17.04-.34.06-.55.03-.27,0-.7-.01-1.16.03-.15.08-.39.14-.76.1-.57.21-1.13.32-1.7.28-1.42.58-2.83.84-4.25.06-.31.1-.62.16-.92,1.03-2.48,1.74-5.21,2.1-8.13.32-2.56.56-5.12.69-7.7.91-1.05,1.73-2.23,2.43-3.53,5.21-9.68,8.65-20.22,5.21-31.16-3.36-10.71-15.12-18.68-26.45-15.02-8.66,2.8-15.44,10.78-15.88,19.78-2.56,2.39-4.7,5.4-6.21,8.97-2.51,5.95-2.36,12.79-2.37,19.48-.53,1.8-.88,3.69-1.03,5.68-.02.25-.03.46-.04.64-.28,1.28-.49,2.6-.74,3.88-.76,3.87-1.36,7.73-1.81,11.65-.76,6.64.18,13.34,2.04,19.74.72,2.48,1.51,4.94,2.06,7.47.08.35.28,1.08.46,1.71.12.93.1,1.95.15,2.83.28,4.23.25,8.46.13,12.7-.32,1.8-.4,3.64-.2,5.5-.01.25-.02.5-.03.74-.49,12.28,9.68,20.2,20.26,21.08,1.54,1.31,3.22,2.47,4.95,3.42,5.58,3.06,11.97,3.98,18.26,4.2.22.38.44.76.67,1.13,2.55,3.94,5.56,7.32,9.59,9.79,5.64,3.46,12.77,4.58,19.25,4.91,5.85.3,12.03-.44,17.65-2.07,2.7-.78,5.27-1.93,7.85-3.05.16-.05.44-.15.84-.3,11.03-.16,21.41-10.23,20.9-21.49Z" fill="#f5db79"/>
    <polygon points="276.85 32.44 271.95 28.88 267 30.76 256.89 33.19 258.75 39.72 258.55 46.25 262.47 53.21 264.93 57.98 264.41 64.87 265.81 71.81 264.68 78.68 262.2 85.53 266.95 92.55 263.16 99.36 265.78 106.33 260.34 113.1 265.39 120.13 266.11 127.05 263.31 133 257.69 130.16 254.04 136.83 246.17 132.15 239.68 138.01 240.83 137.66 233.97 138.55 229.37 141.53 225.47 146.73 221.56 147.56 218.97 140.73 212.97 143.86 209.06 148.88 200.08 149.26 191.48 151.16 186.96 157.74 179.11 160.61 174.92 167.08 172.38 173.29 168.91 178.68 164.59 183.38 157.35 185.89 162.21 191.74 168.87 193.12 170.34 185.2 177.54 183.07 181.56 176.88 190.09 177.92 196.25 175.01 201.16 170.05 205.13 164.42 213.88 159.54 213 164.64 220.81 165.77 226.55 167.71 230.88 163.03 238.33 162.86 242.41 161.93 247.96 161.71 248.99 155.39 255.2 157.54 260.84 160.13 265.11 161.71 270.75 157.45 274.35 155.34 270.19 148.13 272.21 140.93 273.5 133.72 272.68 126.46 273.05 119.23 273.37 112 273.96 104.77 270.35 97.45 275.52 90.33 271.47 82.99 276.28 75.87 271.52 68.51 272.37 61.3 273.96 54.09 276.48 46.91 276.51 39.67 276.85 32.44" fill="#f5db79"/>
    <path d="M123.84,201.56l-.04-8.71-7.35.36-6.4-2.57-5.66-2.6-5.53-6.93-7.18,1.86-7.23-3.6-7.58,1-3.3,4.04-1.83-6.41-4.6-.35-4.58.2-4.72,3.72-7.1-1.94-4.19,5.44,1.03.53-6.82-6.6,2.51,1.54-.32-4.12,1.52-5.18,4.55-.59.83,3.91,2.94-5.65,5.53-4.09,4.87-4.63.32-5.69-6-1.96-1.03-3.83-4.7,3.12.35-1.82,2.3-2.27-.76-8.14,1.16-7.76,4.65-7.51-7.72-3.41-2.91-7.16-4.21,5.67,3.09-1.7-6.05-5.21-4.58-5.16,2.5-6.21.44-.38-3.33-10.02,2.26-7.83,4.53-7.63,1.2-7.76-3.78-7.96.74-7.78,3.03-7.68-7.24-1.22-4.14,1.16-4,6.39,5.45,6.78-4.27,6.39-1.62,6.04.77,1.53-2.87-4.13-4.57,2.63,1.16-6.54-3.95-3.57-5.12,6.74,1.92,4.15-5.94,2.05,1.61,7.68,1.32,7.45-4.9,7.42,4.45,7.33.14,7.42-2.69,7.76,2.96,7.19-3.13,7.99,5.89,6.7,1.02,8.08-2.37,6.66-5.2,4.74-4.09,7.87,4.86,8.48-6.07,6.84-.33,6.83,2.38,6.82-1.47,6.83.76,5.67v6.72s4.98.23,4.98.23l2.27,3.98-.67,1.92,5.78,1.34,5.59-1.4-1.17-7.17,1.59-3.62,5.08,3.36-1.59-2.12,3.73,6.75,6.58-5.16,3.88-6.26,7.74-.9,2.28-3.58,5.37-2.94,7.13-4.85,9.09-.84,1.58,1.03,7.61-1.3,4.72,5.69,5.49,4.08,6.54,1.78,7.08-.38,6.67-.92,5.55-1.3,5.74,2.71-.22-3.58ZM24.24,156.19l6.36-10.99-5.81-3.75-3.99-7-.51-7.51,4.74-8.11-3.68-6.83,7.66-3.26.62-8.36-4-9.13,6.25-7.24-4.16.78,1.47,5.28,2.01,5.62-4,6.95,2.77,7.19-2.27,7.01.85,7.13-1.9,7.04,2.5,7.18,2.57,7.17-1.03,7.07-4.8,5.77-.9,7.19-.73-9.18ZM30.66,193.65l3.08-11.92-4.16-5.33,2.31-6.69,3.52,8.76,1.48,6.26-.61-2.8-5.62,11.72Z" fill="#f5db79"/>
    <polyline points="31.31 55.28 25.25 55.47 19.52 60.01 16.72 60.48 16.11 67.76 13.32 74.72 9.74 81.8 8.55 88.88 10.16 95.97 9.47 103.05 9.82 110.14 7.86 117.22 16.24 124.33 14.51 131.41 9.69 138.49 11.31 145.58 11.35 152.68 16.38 159.77 9.1 166.85 16.81 173.95 6.62 181.02 9.22 188.12 15.82 195.21 9.52 202.3 11.04 209.38 10.1 216.53 14.66 222.12 22.55 224.31 29.23 219.3 33.53 210.78 42.84 211.47 48.2 205 56.47 204.57 61.12 196.35 68.36 193.96 75.96 199.69 82.74 200.4 89.44 201.82 97.61 197.73 103.52 203.16 109.48 208.64 117.89 203.21 124.25 209.51 131.3 203.43 139.41 209.48 146.21 205.84 154.16 204.74 156.82 195.4 163.15 192.22 167.52 185.95 177.16 187.93 181.83 182.13 187.16 177.26 195.08 177.09 199.69 170.59 207.59 171.23 212.09 162.75 221.16 169.26 227.7 167.79 234.14 159.91 241.76 158.5 249.3 161.72 256.23 165.46 264.9 160.44 271.96 161.65 272.82 160.25 275.09 153.26 271.55 146.21 275.24 139.18 275.71 132.14 276.73 125.1 279.03 118.06 272.09 111.02 275.52 103.97 273.69 96.93 278.55 89.87 281.16 82.82 271.45 75.79 276.17 68.73 277.01 61.68 280.77 54.62 280.13 47.58 273.62 40.54 280.7 33.71 271.3 29.06 268.85 28.43 260.73 24.51" fill="none" stroke="#7880be" stroke-miterlimit="10" stroke-width="11"/>
    <g>
      <polyline points="33.18 189.22 35.06 178.67 44.97 182.59 50.36 176.47 57.59 175.65 64.73 171.44 72.11 174.44 78.64 179.44 85.52 180.83 93.29 178.15 100.04 179.61 106.9 181.11 113.94 182.68 119.83 186.71 121.95 195.85 129.15 195.28 134.25 196.65 141.33 204.29 147.25 196.79 150.66 190.1 153.87 183.17 161.72 180.54 163.91 172.45 173.93 172.39 180.2 168.75 184.57 162.89 189.2 157.12 193.06 149.65 202.27 151.16 208.85 148.64 214.31 142.91 220.42 140.45 227.69 143.67 233.56 140 239.71 135.93 248.25 135.35 253 130.35 260.44 125.2 256.99 117.68 257.6 110.35 263.9 103.01 262.83 95.63 256.05 88.33 259.82 80.93 260.1 73.56 260.77 66.19 255.22 58.91 258 51.51 259.51 44.14 254.29 36.75 255.5 30.51 254.09 24.85 257.07 15.54 249 13.98 242.7 11.94" fill="#f5db79"/>
      <polyline points="33.18 189.22 35.06 178.67 44.97 182.59 50.36 176.47 57.59 175.65 64.73 171.44 72.11 174.44 78.64 179.44 85.52 180.83 93.29 178.15 100.04 179.61 106.9 181.11 113.94 182.68 119.83 186.71 121.95 195.85 129.15 195.28 134.25 196.65 141.33 204.29 147.25 196.79 150.66 190.1 153.87 183.17 161.72 180.54 163.91 172.45 173.93 172.39 180.2 168.75 184.57 162.89 189.2 157.12 193.06 149.65 202.27 151.16 208.85 148.64 214.31 142.91 220.42 140.45 227.69 143.67 233.56 140 239.71 135.93 248.25 135.35 253 130.35 260.44 125.2 256.99 117.68 257.6 110.35 263.9 103.01 262.83 95.63 256.05 88.33 259.82 80.93 260.1 73.56 260.77 66.19 255.22 58.91 258 51.51 259.51 44.14 254.29 36.75 255.5 30.51 254.09 24.85 257.07 15.54 249 13.98 242.7 11.94" fill="none" stroke="#7880be" stroke-miterlimit="10" stroke-width="11"/>
    </g>
    <g>
      <polyline points="135.26 66.6 127.74 62.8 123.88 57.03 121.17 50.14 118.31 42.83 110.55 40.74 107.82 32.1 101.11 28.64 93.1 28.32 85.9 27.24 79.9 20.73 71.97 19.68 64.53 26.52 57.84 27.65 53.68 32.31 45.09 35.97 44.42 44.14 44.5 51.41 50.25 58.57 50.83 65.82 49.89 73.11 46.81 80.44 45.82 87.73 43.58 95.03 45.06 102.26 46.42 109.51 44.44 116.78 51.01 124.03 45.12 131.31 46.76 138.19 48.83 145.21 55.32 148.08 61.64 148.5 68.07 148.54 74.96 148.86 80.76 153.84 87.15 156.32 92.33 161.25 100.45 160.76 105.69 165.49 111.97 168.68 115.12 175.76 124.39 175.79 127.39 182.8 131.78 188.37 139.47 188.91 140.82 181.21 143.32 174.65 150.35 170.34 148.84 161.3 157.31 158.51 160.17 151.86 163.89 145.51 169.53 141.03 176.1 137.98 182.51 134.98 188.56 131.3 194.71 127.49 201 123.58 209.31 125.46 216.88 125.56 223.71 120.88 229.76 118.99 238.47 121.96 244.56 116.43 243 108.05 242.79 100.77 241.55 93.45 248.16 86.28 240.54 78.9 240.61 71.64 245.08 64.31 248.12 56.94 247.05 49.64 246.5 42.35 242.03 35.16 245.57 27.76 240.66 20.68 244.16 12.84 238.86 6.93 231.44 5.55 224.65 6.23 218.06 7.22 211.45 11.45 202.67 9.06 196.16 13.42 187.93 13.36 182.43 19.93 174 19.16 168.3 24.35 161.43 26.68 156.32 32.33 150.7 36.51 143.13 38.9 141.35 46.57 133.77 51.17 137.67 59.69 133.67 66.37 134.75 73.58 132.8 80.94 138.46 87.99 136.36 95.39 137.61 102.64 133.07 110.03 136.67 116.92 137.07 123.87 134.54 130.71 137.81 137.78 133.75 144.56 132.59 151.49 134.7 158.46 133.1 165.47 138.38 172.04 140.01 178.66 137.84 185.94 142.32 191.88" fill="#f5db79"/>
      <polyline points="135.26 66.6 127.74 62.8 123.88 57.03 121.17 50.14 118.31 42.83 110.55 40.74 107.82 32.1 101.11 28.64 93.1 28.32 85.9 27.24 79.9 20.73 71.97 19.68 64.53 26.52 57.84 27.65 53.68 32.31 45.09 35.97 44.42 44.14 44.5 51.41 50.25 58.57 50.83 65.82 49.89 73.11 46.81 80.44 45.82 87.73 43.58 95.03 45.06 102.26 46.42 109.51 44.44 116.78 51.01 124.03 45.12 131.31 46.76 138.19 48.83 145.21 55.32 148.08 61.64 148.5 68.07 148.54 74.96 148.86 80.76 153.84 87.15 156.32 92.33 161.25 100.45 160.76 105.69 165.49 111.97 168.68 115.12 175.76 124.39 175.79 127.39 182.8 131.78 188.37 139.47 188.91 140.82 181.21 143.32 174.65 150.35 170.34 148.84 161.3 157.31 158.51 160.17 151.86 163.89 145.51 169.53 141.03 176.1 137.98 182.51 134.98 188.56 131.3 194.71 127.49 201 123.58 209.31 125.46 216.88 125.56 223.71 120.88 229.76 118.99 238.47 121.96 244.56 116.43 243 108.05 242.79 100.77 241.55 93.45 248.16 86.28 240.54 78.9 240.61 71.64 245.08 64.31 248.12 56.94 247.05 49.64 246.5 42.35 242.03 35.16 245.57 27.76 240.66 20.68 244.16 12.84 238.86 6.93 231.44 5.55 224.65 6.23 218.06 7.22 211.45 11.45 202.67 9.06 196.16 13.42 187.93 13.36 182.43 19.93 174 19.16 168.3 24.35 161.43 26.68 156.32 32.33 150.7 36.51 143.13 38.9 141.35 46.57 133.77 51.17 137.67 59.69 133.67 66.37 134.75 73.58 132.8 80.94 138.46 87.99 136.36 95.39 137.61 102.64 133.07 110.03 136.67 116.92 137.07 123.87 134.54 130.71 137.81 137.78 133.75 144.56 132.59 151.49 134.7 158.46 133.1 165.47 138.38 172.04 140.01 178.66 137.84 185.94 142.32 191.88" fill="none" stroke="#7880be" stroke-miterlimit="10" stroke-width="11"/>
    </g>
    <polyline points="28.24 186.14 31.05 178.96 28.46 171.74 26.43 164.54 31.4 157.33 31.3 150.12 29.93 142.92 29.3 135.72 29.02 128.52 27.19 121.33 29.01 114.11 28.72 106.91 29.87 99.69 30.47 92.49 31.73 85.29 28.56 78.07 31.54 70.89 28.33 63.65 28.08 56.44 30.47 49.29 26.8 41.59 33.12 35.44 40.1 37.09 45.95 34.18" fill="none" stroke="#7880be" stroke-miterlimit="10" stroke-width="11"/>
  </g>
</svg>