<?xml version="1.0" encoding="UTF-8"?>
<svg id="Layer_2" data-name="Layer 2" xmlns="http://www.w3.org/2000/svg" viewBox="0 0 117.82 48.93">
  <g id="Layer_1-2" data-name="Layer 1">
    <g>
      <path d="M117.55,22.22c-1.02-4.21-3.56-8.56-7.55-9.88-2.4-.56-4.82.87-6.14.86-1.7-.15-2.1-1.52-3.15-3.07-5.75-11.16-10.78-6.2-18.96-1.08-1.82.82-3.82.63-4.5-1.33-.82-2.04-1.49-5.43-3.01-6.9-3.52-2.82-7.32,2.31-9.56,4.63-1.38,1.45-2.26,2.04-3.61.71-1.25-1.26-2.56-3.16-4.47-3.61-2.58-.61-5.22,1.37-7.6,1.98-2.8.81-5.58-.16-8.41.86-2.62.98-4.88,3.58-7.26,5.07-3.81,2.45-8.28,1.69-12.68.22-9.7-4.05-15.26-.13-18.57,9.65-1.85,6.32-3.67,16.01.27,21.73,6.56,6.75,13.61-5.1,20.55-4.38,2.8.38,4.76,4.82,7.41,6.25,3.2,1.85,6.54-1.1,8.74-3.23,1.03-.84,1.55-1.83,2.59-1.49,1.06.87,1.74,2.82,3.19,3.77,3.05,2.06,7.36,2.68,10.86,1.56,3.31-1.18,5.26-5.62,7.55-7.38,1.17-.8,2.5-.1,3.67.38,3.11,1.73,6.63.73,9.88-.24,3.52-.89,7.91-1.18,10.44,1.06,2.62,2.34,2.49,6.76,4.41,9.49,3.16,3.67,6.95-2.96,8.83-5.36,3.04-4.04,6.49-7.47,10.84-9.86,4.21-2.01,7.44-5.14,6.28-10.22l-.03-.18Z" fill="#35463c"/>
      <path d="M16.54,23.53c.66,4.53,1.5,12.07-4.64,12.97-1.33.31-3.87-.15-2.93-1.15,1.1-1.08,7.16-3.42,2.85-4.38-5.04-.24-7.07-5.65-3.67-9.3,2.7-2.79,7.73-2.35,8.34,1.68l.04.18ZM12.01,22.28c-2.03.33-3.17,2.26-2.77,4.41.13.95.69,2.02,1.73,2.08,1.86.06,2.71-2.45,2.63-3.99.06-1-.11-2.63-1.42-2.52l-.17.02Z" fill="#90cd91"/>
      <path d="M27.99,20.16c.35,2.06,1.21,4.55-.2,6.36-1.15,1.42-4.31,1.97-6.44,1-2.74-1.24-3.83-4.76-3.88-7.54-.01-1.53.75-3.49,2.04-1.76,1.25,1.59,1.17,5.59,3.7,5.91.93-.04,1.53-1.52,1.48-3.37-.02-1.25-.48-5.79,1.53-4.77,1.18.99,1.4,2.53,1.73,3.97l.04.19Z" fill="#90cd91"/>
      <path d="M41.21,31.9c-2.16.69-5.47,2.07-7.86,1.06-5.58-2.98-2.41-12.16,4.05-11.11,2.39.39,2.54,2.58,3.05,4.65.21,1.54,2.73,4.26.88,5.33l-.12.07ZM37.18,25.72c-.39-2.93-3.26-.7-3.65.99-.62,1.91.64,4.73,2.83,4.14,2.85-.57,1.28-3.18.86-4.97l-.04-.16Z" fill="#90cd91"/>
      <path d="M50.07,19.17c-.76.81-1.59,1.75-1.86,2.95-.39,1.42-.03,3.46-.57,4.88-.54,1.64-2.11,2.14-2.8.33-.65-1.39-.14-3.79-.88-5.49-.44-1.09-1.32-2.07-1.98-2.99-.63-.77-.64-1.47.03-2.17,1.08-1.04,2.81-3.39,4.04-3.13,1.59.68,3.04,2.25,4.33,3.31.87.75.58,1.43-.19,2.18l-.11.12Z" fill="#90cd91"/>
      <path d="M57.36,30.9c-9.02,1.66-9.51-11.49-.67-11.12,1.8.1,3.49,1.49,2.72,3.32-.65,1.77-3.09,2.74-3.96,4.34-.32,1.81,3.95-.23,5.23.2.49.1.65.52.43.98-.62,1.26-2.17,1.94-3.55,2.24l-.21.04ZM55.38,22.27c-.97.24-1.78,1.09-2.06,2.05-.17.48-.22.93.02.94.19.03.58-.26.93-.5,1-.78,5.09-3.11,1.3-2.53l-.19.05Z" fill="#90cd91"/>
      <path d="M66.94,15.09c3.54,1.31,8.85.68,9.86,5.61.47,2.23.3,4.97-.38,7.07-.75,2.3-1.9,2.22-2.22-.69-.2-1.52-.06-3.21-.49-4.7-.22-.86-.85-1.47-1.49-.58-1.01,1.42-1.38,3.85-2.08,5.42-.35.84-.75,1.35-1.1,1.34-1.47-.77-.9-4.29-1.04-5.86,0-.87-.23-2.8-1.33-1.82-.87.5-2.58,5.75-3.93,5.04-1.28-1.86-.55-4.8-.15-6.96.58-2.45,1.61-4.68,4.22-3.9l.13.03Z" fill="#90cd91"/>
      <path d="M88.1,31.95c-2.25.18-5.76.78-7.84-.76-4.67-4.16.6-12.35,6.58-9.86,2.22.93,1.83,3.09,1.82,5.21-.17,1.55,1.61,4.76-.43,5.38l-.14.04ZM85.63,25.06c.33-2.9-2.89-1.37-3.63.14-.83,1.36-.68,3.83.78,4.4.9.35,2.22.23,2.72-.68.52-1,.04-2.64.13-3.69v-.16Z" fill="#90cd91"/>
      <path d="M95.56,27.91c-.14.78-.78,1.32-1.53,1.26-1.51-.43-1.44-2.1-2.15-4.65-.67-2.81-1.58-6.57-2.07-8.63-.51-1.51-.32-3.86,1.79-3.1,1.49,1.32,1.2,3.1,1.99,5.59.56,2.87,1.98,6.98,2,9.4l-.02.13Z" fill="#90cd91"/>
      <path d="M109.07,28.93c-2.04.99-5.1,2.83-7.61,2.16-5.94-2.14-4.25-11.7,2.34-11.59,2.42.05,2.9,2.2,3.72,4.18.43,1.49,3.35,3.84,1.67,5.16l-.11.08ZM104.16,23.36c-.82-2.87-3.34-.25-3.47,1.51-.28,1.76,1.02,4.21,2.88,3.88,3.41-.74,1.55-3.19.65-5.23l-.06-.16Z" fill="#90cd91"/>
    </g>
  </g>
</svg>