<?xml version="1.0" encoding="UTF-8"?>
<svg id="Layer_2" data-name="Layer 2" xmlns="http://www.w3.org/2000/svg" xmlns:xlink="http://www.w3.org/1999/xlink" viewBox="0 0 67.55 57.69">
  <defs>
    <linearGradient id="instagram" x1="0" y1="28.84" x2="67.55" y2="28.84" gradientUnits="userSpaceOnUse">
      <stop offset="0" stop-color="#da4189"/>
      <stop offset=".4" stop-color="#b04198"/>
      <stop offset=".44" stop-color="#b74f91"/>
      <stop offset=".63" stop-color="#d68776"/>
      <stop offset=".8" stop-color="#ecaf63"/>
      <stop offset=".92" stop-color="#f9c857"/>
      <stop offset="1" stop-color="#ffd253"/>
    </linearGradient>
    <linearGradient id="instagram-2" data-name="instagram" x1="21" y1="27.55" x2="50.1" y2="27.55" xlink:href="#instagram"/>
    <linearGradient id="instagram-3" data-name="instagram" x1="50.1" y1="13.66" x2="54.12" y2="13.66" xlink:href="#instagram"/>
  </defs>
  <g id="Layer_1-2" data-name="Layer 1">
    <g>
      <path d="M60.9,6.72C53.7-1.18,38.83-.07,27.99.22c-6.96.5-13.84,1.13-19.29,5.42C-.65,13.82-.85,29.2.77,40.82c1.64,11.01,8.32,15.33,19.06,16.24,9.08.83,19.04.84,28.07.04,10.72-.88,17.21-5.18,18.81-16.37,1.62-10.78,1.5-25.41-5.71-33.9l-.1-.11ZM8.92,47.59c-7.11-8.3-5.98-24.3-.56-33.83,4.42-7.34,11.71-9.16,21.27-9.64,11.09-.46,25.72-.66,30.72,11.3,4.21,9.59,4.84,23.52-1.19,31.46-5.17,6.16-13.79,6.35-21.46,6.72-9.43.03-22.49.65-28.68-5.91l-.1-.1Z" fill="url(#instagram)"/>
      <path d="M48.49,32.87c5.75-8.46-5.13-17.49-13.42-17.2-11.05.31-19.44,12.02-9.92,19.75,6.92,6.22,18.04,5.06,23.25-2.43l.09-.13ZM35.94,35.34c-7.52.32-15.22-7.44-8.24-13.46,4.16-3.14,12.77-2.94,16.49,1.19,5.12,6.15-.99,12.69-8.06,12.27h-.19Z" fill="url(#instagram-2)"/>
      <path d="M52.01,11.66c-2.5.11-2.57,3.76-.1,3.99,2.73.23,3.03-3.85.3-3.99h-.2Z" fill="url(#instagram-3)"/>
    </g>
  </g>
</svg>