<?xml version="1.0" encoding="UTF-8"?>
<svg id="Layer_2" data-name="Layer 2" xmlns="http://www.w3.org/2000/svg" viewBox="0 0 131.4 54.8">
  <g id="Layer_1-2" data-name="Layer 1">
    <path d="M127.85,20.6c-.71-1.19-1.34-2.44-2.04-3.64-1.49-2.74-4.04-4.52-5.92-6.87-2.91-3.91-5.64-6.52-10.86-5.93-5.96.41-11.3-1.33-15.44,4.21-.81.84-1.74,1.49-2.91,1.53-1.63.11-4.08-.76-6.39-.19-2.1.37-4.36,1.72-6.45.87-2.4-1.1-4.59-5.23-8.02-5.45-1.97-.35-3.96.22-5.9.55-3.78.48-7.77.78-11.58.36-1.85-.41-3.37-1.75-4.99-2.71-2.09-1.29-4.57-1.29-6.78-1.65-3.25-.36-6.38-2.23-9.69-1.52-2.81.38-4.9,3.44-6.72,4.67-1.69,1.11-3.71.45-5.59.24-5.22-.84-8.78,3.92-10.34,8.34-2.05,4.83-4.69,9.25-5.24,14.52-.69,4.46-2.55,8.59-2.91,13.22-.88,6.83,6.24,12.29,12.24,8.89,6.78-4.81,7.49-3.62,14.63-.72,2.44.86,4.96.31,7.23.44,2.14.04,4.19.74,6.31.96,7.67.2,6.29-7.47,16.94-4.51,3.61,1.08,5.76,5.19,9.87,5.1,5.22.39,8.32-5.15,13.19-6.05,4.26-1.18,4.41,2.67,5.74,5.43,1.98,4.46,7.92,5.21,11.69,2.56,5.73-4.38,2.64-8.64,12.21-6.43,5.96.22,14.79,3.56,17.55-3.83.89-2.28,1.13-4.78,1.85-7.12.79-2.74,2.1-5.5,1.84-8.14-.23-2.68-2.15-4.72-3.42-6.99l-.1-.16Z" fill="#002b54"/>
    <g>
      <path d="M21.22,31.21c-.11,1.79.38,4.24-1.1,5.49-.56.37-1.24.05-1.57-.48-.99-1.59-.67-4.57-.68-6.62.05-1.68.09-4.06,1.02-4.97.36-.39.92-.54,1.39-.24,1.72,1.53.79,4.5.94,6.62v.21ZM20.03,22.43c-2.35-.15-2.29-3.45.08-3.47,2.37.02,2.42,3.33.08,3.47h-.17Z" fill="#0073bc"/>
      <path d="M35.08,20.19c-.2,1.57-2.09,1.34-3.29,1.56-.96.1-1.72.68-2.07,1.59-1.03,1.51-.41,8.59-2.68,7.6-1.25-1.02-1.71-3.64-1.94-5.46-.23-2.45-.78-5.61,1.62-7.05,2.26-1.44,8.21-2.24,8.38,1.64v.11Z" fill="#0073bc"/>
      <path d="M40.42,36.64c-7.61-2.56-2.95-14.67,4.42-12.1,6.69,2.52,2.39,13.97-4.24,12.15l-.18-.05ZM43.61,27.35c-3.24-.69-5.75,5.4-2.09,6.36,3.01.8,5.07-5.28,2.25-6.32l-.15-.04Z" fill="#0073bc"/>
      <path d="M60.65,28.52c-2.67.17-4.58-10.58-6.77-4.83-.69,1.43-.42,7.71-2.59,7.34-2.49-1.69-3.36-6.8-3.24-9.84.06-3.69,4.32-5.27,7.46-4.42,3.38.72,5.22,4.89,5.79,8.11.33,2.03.08,3.46-.58,3.62l-.07.02Z" fill="#0073bc"/>
      <path d="M79,27.37c.3,3.33-3.36,14.3-7.08,9.51-.59-.65-1.17-1.79-1.94-2.02-1.46-.15-2.86,1.87-4.45,1.47-2.5-1.24-2.42-6.57-2.08-9.37.22-1.07.36-2.43,1.24-3.06.92-.49,1.81,3.07,2.5,3.65.71.44,1.43-.81,2.02-1.22,3.24-3.32,4.04.84,4.83,3.53.55,1.84,1.07.15,2.12-1.51.68-1.18,2.51-3.84,2.83-1.13v.14Z" fill="#0073bc"/>
      <path d="M88.64,33.35c-7.76,2.59-11.13-10.3-3.52-12.49,6.84-1.74,9.96,9.92,3.7,12.42l-.17.07ZM85.61,23.95c-3,1.4-1.34,7.77,2.16,6.35,2.88-1.17.87-7.27-2.01-6.41l-.15.06Z" fill="#0073bc"/>
      <path d="M98.85,36.98c-7.97-.49-6.6-13.38,1.13-12.82,7.08.7,5.89,12.85-.95,12.82h-.18ZM99.51,27.19c-3.27.18-4.09,6.67-.36,6.66,3.07-.01,3.47-6.39.51-6.66h-.16Z" fill="#0073bc"/>
      <path d="M114.46,21.3c1.28-1.01,1.99-2.72,3.35-3.49,2.5.4.91,9.28.98,11.94-.15,3.22-.59,5.59-2.42,6.63-2.46,1.27-5.74.46-7.85-1.15-2.88-2.17-3.1-6.88-.74-9.53,1.9-2.14,4.73-2.59,6.57-4.29l.12-.1ZM114.92,27.57c-.56-1.5-2.75-1.81-4.04-1.09-1.66.88-2.13,3.29-1.38,4.93.77,1.99,4,2.28,5.09.84.84-1.25.72-3.1.39-4.52l-.06-.17Z" fill="#0073bc"/>
    </g>
  </g>
</svg>