<?xml version="1.0" encoding="UTF-8"?>
<svg id="Layer_2" data-name="Layer 2" xmlns="http://www.w3.org/2000/svg" viewBox="0 0 203.1 102.92">
  <g id="Layer_1-2" data-name="Layer 1">
    <g>
      <g id="B9gPRb">
        <path d="M70.91,1.21c.2.66-.61,2.4-1.33,3.3-1.31,1.86-2.82,3.44-4.28,5.28-2.83,3.66-5.24,7.78-6.86,12.12-.73,2.26-2.6,7.57,1.31,6.9,3.84-.58,7.55-2.85,12.24-2.59,6.59.3,12.27,4.55,17.36,8.49,7.88,5.77,18.13,6.27,26.85,2.99,3.71-1.47,6.8-4.33,10.1-6.7,6.65-5.3,14.99-6.76,23.15-9.61,4.1-1.22,8.24-3.54,12.54-3.37,2.52.26,4.06,2.51,5.94,4.72,7.65,10.39,20.22-2.86,26.7,8.83,1.22,2.1,2.14,4.65,3.84,6.41,1.29,1.45,2.96,2.83,4.11,4.28,2.54,3.66-4.66,4.19-7.1,4.76-2.92.48-5.51,1.2-8.06,2.47-11.44,6.69-17.85-2.29-29.37,2.27-3,1.15-5.81,2.72-8.7,4.12-5.25,2.64-10.71,4.61-14.94,8.44-3.01,2.56-5.44,6.48-8.3,9.01-1.45,1.19-2.19.78-2.65-.59-1.46-4.44-1.46-3.6-5.98-1.52-4.54,2.04-8.62,3.31-10.57,9.16-2.93,5.67-7.83,33.08-16.09,18.13-2.39-5.35-4.1-11.07-7.87-15.77-5.55-7.22-14.04-10.64-23.11-11.75-3.29-.35-6.34-.65-9.6-1.14-10.64-1.94-21.48-3.78-32.13-5.81-5.33-1.51-17.81-5.47-18.11-11.4.07-2.22,1.57-3.79,4.15-6.04,10.84-8.79,25.09-12.99,34.64-23.35C47.19,15.11,54.87,2.19,67.12.12c2.19-.33,3.57.02,3.78,1.02v.06Z" fill="#002b54"/>
      </g>
      <path d="M45.27,52.5c-.11,1.79.38,4.24-1.1,5.49-.56.37-1.24.05-1.57-.48-.99-1.59-.67-4.57-.68-6.62.05-1.68.09-4.06,1.02-4.97.36-.39.92-.54,1.39-.24,1.72,1.53.79,4.5.94,6.62v.21ZM44.09,43.72c-2.35-.15-2.29-3.45.08-3.47,2.37.02,2.42,3.33.08,3.47h-.17Z" fill="#0073bc"/>
      <path d="M59.14,41.48c-.2,1.57-2.09,1.34-3.29,1.56-.96.1-1.72.68-2.07,1.59-1.03,1.51-.41,8.59-2.68,7.6-1.25-1.02-1.71-3.64-1.94-5.46-.23-2.45-.78-5.61,1.62-7.05,2.26-1.44,8.21-2.24,8.38,1.64v.11Z" fill="#0073bc"/>
      <path d="M64.48,57.94c-7.61-2.56-2.95-14.67,4.42-12.1,6.69,2.52,2.39,13.97-4.24,12.15l-.18-.05ZM67.67,48.64c-3.24-.69-5.75,5.4-2.09,6.36,3.01.8,5.07-5.28,2.25-6.32l-.15-.04Z" fill="#0073bc"/>
      <path d="M84.7,49.81c-2.67.17-4.58-10.58-6.77-4.83-.69,1.43-.42,7.71-2.59,7.34-2.49-1.69-3.36-6.8-3.24-9.84.06-3.69,4.32-5.27,7.46-4.42,3.38.72,5.22,4.89,5.79,8.11.33,2.03.08,3.46-.58,3.62l-.07.02Z" fill="#0073bc"/>
      <path d="M103.06,48.67c.3,3.33-3.36,14.3-7.08,9.51-.59-.65-1.17-1.79-1.94-2.02-1.46-.15-2.86,1.87-4.45,1.47-2.5-1.24-2.42-6.57-2.08-9.37.22-1.07.36-2.43,1.24-3.06.92-.49,1.81,3.07,2.5,3.65.71.44,1.43-.81,2.02-1.22,3.24-3.32,4.04.84,4.83,3.53.55,1.84,1.07.15,2.12-1.51.68-1.18,2.51-3.84,2.83-1.13v.14Z" fill="#0073bc"/>
      <path d="M112.69,54.64c-7.76,2.59-11.13-10.3-3.52-12.49,6.84-1.74,9.96,9.92,3.7,12.42l-.17.07ZM109.66,45.24c-3,1.4-1.34,7.77,2.16,6.35,2.88-1.17.87-7.27-2.01-6.41l-.15.06Z" fill="#0073bc"/>
      <path d="M122.9,58.27c-7.97-.49-6.6-13.38,1.13-12.82,7.08.7,5.89,12.85-.95,12.82h-.18ZM123.57,48.48c-3.27.18-4.09,6.67-.36,6.66,3.07-.01,3.47-6.39.51-6.66h-.16Z" fill="#0073bc"/>
      <path d="M138.51,42.59c1.28-1.01,1.99-2.72,3.35-3.49,2.5.4.91,9.28.98,11.94-.15,3.22-.59,5.59-2.42,6.63-2.46,1.27-5.74.46-7.85-1.15-2.88-2.17-3.1-6.88-.74-9.53,1.9-2.14,4.73-2.59,6.57-4.29l.12-.1ZM138.98,48.87c-.56-1.5-2.75-1.81-4.04-1.09-1.66.88-2.13,3.29-1.38,4.93.77,1.99,4,2.28,5.09.84.84-1.25.72-3.1.39-4.52l-.06-.17Z" fill="#0073bc"/>
    </g>
  </g>
</svg>