<?xml version="1.0" encoding="UTF-8"?>
<svg id="Layer_2" data-name="Layer 2" xmlns="http://www.w3.org/2000/svg" viewBox="0 0 113.44 68.74">
  <g id="Layer_1-2" data-name="Layer 1">
    <path d="M109.9,1.75c-2.02-1.26-4.61-.89-6.7-.04-2.22.84-4.4,2.14-6.73,1.13-2.23-.89-5.78-3.44-9.14-2.52-4.72,1-8.4,5.42-13.38,5.41-5.68.09-10.35-5.11-16.07-5.03-8.15.57-12.22,11.61-21.71,7.01-6.25-2.91-10.1-5.35-17.36-2.06C11.4,8.57,3.62,12,1.42,20.57c-1.58,6.08-.47,12.39-.76,18.59-.1,5.35-1.61,11.09.91,15.85,2.76,4.63,8.76,6.57,12.8,10.13,13.95,11.52,15.13-9.02,25.47-12.21,2.73-.88,5.71-.92,8.51-1.49,3.21-.62,6.71-1.02,8.64.73,1.73,1.39,2.86,3.23,4.74,4.66,3.46,2.7,7.92.92,11.7-.11,4-1.11,7.93-2.61,11.61-4.33,9.25-4.7,15.25-5.41,19.07-16.34,2.22-5.79,4.43-11.55,6.75-17.28,2.15-5.32,4.57-13.41-.84-16.94l-.13-.08Z" fill="#f2f1f3" stroke="#808285" stroke-miterlimit="10" stroke-width=".25"/>
    <g>
      <path d="M11.77,38.41c1.8-2.19,1.37-6.33,1.55-9.25.24-1.69.28-3.87,1.89-4.41,2.13.4,2.69,4.16,3.01,7.37.2,3.67.08,7.38-1.94,10.08-1.17,1.66-3.56,2.47-5.41,1.71-.93-.36-1.43-.93-1.44-1.57-.06-1.09,1.19-2.31,2.24-3.79l.09-.14ZM14.26,22.8c-2.4-.36-1.93-3.87.54-3.46,2.22.35,1.79,3.52-.35,3.47h-.19Z" fill="#f37a7a"/>
      <path d="M33.05,40.44c-.04,3.3.53,8.02-4.2,7.65-6.4.17-7.31-5.59-6.68-10.68.23-1.9,1.85-4.07,2.8-1.49.76,2.13-.25,5.65,1.45,7.48.68.77,1.71.66,2.29-.14,1.55-2.05.59-5.31,1.75-7.54.53-1.17,1.62-1.33,2.15-.02.62,1.35.47,3.02.45,4.54v.18Z" fill="#f37a7a"/>
      <path d="M37,42.91c-.57,1.11-2.32,1.31-2.82.08-.33-.76-.13-1.67,0-2.5.56-3.25,1.81-10.72,2.3-13.5.13-.67.29-1.34.74-1.8,1.19-1.12,3.04,0,2.73,1.63-.74,4.3-1.68,11.9-2.88,15.97l-.07.12Z" fill="#f37a7a"/>
      <path d="M56.79,28.99c-1.51,3.21-5.94,6.39-8.4,9.33-1.04,1.07-1.97,2.21-3.08,3.17-2.03,1.82-4.2,1.54-3.61-.45.43-1.39,1.61-2.52,2.36-3.78,2.51-3.36.26-7.62.48-11.34.04-1.02.62-2.65,1.86-1.94,2.01,1.18,1.5,4.83,3.28,6.1,1.47.51,2.58-1.28,3.75-1.96,1.95-1.39,3.83-1.01,3.38.74l-.04.13Z" fill="#f37a7a"/>
      <g>
        <path d="M67.67,28.1c-1.35-1.09-3.65-.59-5.35-.94-2.76-.34-3.02-2.09-1.72-3.8,1.81-2.42,3.75-5.19,5.75-7.62,1.9-2.45,5.49-3.58,5.67.49.22,2.23-.27,5.22.61,6.91.48,1.07,1.96,1.85,1.34,3.16-.39.83-1.05,1.6-1.44,2.46-.62,1.41-1.35,4.58-3.16,2.84-.8-.94-.72-2.52-1.59-3.39l-.11-.1ZM68.43,18.81c-1.03,1.47-2.18,3.11-3.31,4.74-.3.52.05.51.68.51.78-.05,1.9.1,2.61-.07.26-.6.04-1.89.11-2.78-.02-1.25.05-2.45-.05-2.41l-.04.02Z" fill="#7880be"/>
        <path d="M83.62,24.19c-3.52,1.65-1.57,5.99-2.48,8.87-.3,1.37-1.94,2.43-2.83.99-.82-1.29-.57-2.84-.64-4.51-.02-1.42-.14-3.04-1.04-4.08-.85-1.17-3.9-2.54-1.73-3.93.66-.45,1.4-.84,1.91-1.48.71-.83,1.21-2.31,2.18-2.41,1.16-.16,2.04,1.83,3.14,2.67,1.39,1.08,4.45,2.14,1.64,3.8l-.14.09Z" fill="#7880be"/>
        <path d="M90.02,24.08c.69.4,1.93,0,2.82-.03,3.7-.33,4.42,3.46,4.59,6.79.05,1.86.85,4.4-.35,5.91-.66.74-1.8.14-2.36-1.4-1.03-1.78.14-7.1-2.27-7.32-2.74.48-2.93,5.11-3.59,7.23-.62,1.85-2.26,1.78-2.76.2-.26-.79-.27-1.65-.25-2.48.08-2.8.03-5.63.09-8.46.16-2.48-.6-7.52,2.02-6.82,2.04,1.35.73,4.88,1.97,6.32l.08.05Z" fill="#7880be"/>
      </g>
    </g>
  </g>
</svg>