<?xml version="1.0" encoding="UTF-8"?>
<svg id="Layer_2" data-name="Layer 2" xmlns="http://www.w3.org/2000/svg" viewBox="0 0 41.45 36.77">
  <g id="Layer_1-2" data-name="Layer 1">
    <path d="M40.19,11.08c-.59-1.25-1.75-1.98-2.89-2.67-1.81-1.02-3.48-2.41-5.39-2.63-1.04-.16-2.2-.02-3.16-.48-1.13-.53-1.73-1.84-2.52-2.79C24.8.43,22.09.36,19.65.34c-2.84-.18-6.14-1.13-8.33,1.27-1.52,1.45-3.94,1.74-5.67,3.16-1.68,1.4-3.92,2.16-4.98,4.07C-.39,11.53.15,15.48.03,18.41c.07,2.61.95,5.07,1.71,7.54.61,1.98,2.27,3.28,2.96,5.03.69,2.39,1.11,6.33,4.61,5.72,1.65-.38,2.87-1.75,4.2-2.71,1.77-1.34,4.41-.61,6.4-1.57,2.34-1.41,1.89-.51,3.31,1.18,1.08,1.28,2.83,1.33,4.19,1.85,1.11.37,2.14.99,3.29,1.23,2.38.41,4.9-1.21,6.11-3.21.96-1.66,1.37-3.59,2.51-5.16,1.22-1.69,2.16-3.82,2.14-6.01-.02-3.71.08-7.58-1.18-11.07l-.08-.16Z" fill="#6a2e2f"/>
    <g>
      <path d="M13.48,27.04c-.07.79-.67,1.38-1.42,1.38-1.55-.3-1.62-1.97-2.55-4.45-.92-2.75-2.15-6.41-2.82-8.43-.64-1.48-.66-3.81,1.53-3.24,1.6,1.19,1.47,2.99,2.47,5.4.81,2.82,2.59,6.78,2.81,9.21v.14Z" fill="#f37a7a"/>
      <path d="M22.77,20.39c-1.83-1.33-.84-5.08-1.36-6.81-.25-1.23-1.13-1.37-2.1-.03-.99.84-2.66,7.19-4.32,5.21-1.09-1.95-.27-9.68,2.19-10.85,2.31-.9,6.39.4,7.11,3.41.57,2.07.7,8.48-1.44,9.08l-.07-.02Z" fill="#f37a7a"/>
      <path d="M37.01,13.86c.59,3.01-.9,6.37-1.29,9.41-.42,2.09-1.25,8.77-3.59,7.15-.56-.62-.62-2.28-.67-3.81.13-3.62-2.72-5.82-4.65-8.62-.49-.78-1.32-2.66.11-2.73,1.85.03,3.5,2.52,5.43,2.19,1.54-.66,1.72-3.48,3.19-4.27.59-.38,1.2-.13,1.43.55l.04.12Z" fill="#f37a7a"/>
    </g>
  </g>
</svg>