<?xml version="1.0" encoding="UTF-8"?>
<svg id="Layer_2" data-name="Layer 2" xmlns="http://www.w3.org/2000/svg" viewBox="0 0 178.81 218.52">
  <g id="Layer_1-2" data-name="Layer 1">
    <path d="M140.86,212.16c-27.05-.01-58.98.01-87.53,0-38.62.28-49.24-1.63-47.68-44.41.21-38.8-.12-78.22.07-117.52.63-24.42.34-34.49,29.32-33.43,29.96-.1,69.66.03,99.8,0,9.43.02,17.16-.04,22.84.49,10.1.35,14.5,5.57,14.88,15.06,1.24,46.08.05,99.08.38,144.06" fill="#7880be" stroke="#90cd91" stroke-miterlimit="10" stroke-width="11"/>
    <path d="M44.7,0v29.36" fill="#303253" stroke="#90cd91" stroke-miterlimit="10" stroke-width="11"/>
    <path d="M84.16.29v29.36" fill="#303253" stroke="#90cd91" stroke-miterlimit="10" stroke-width="11"/>
    <path d="M125.53,5.13v28.46" fill="#303253" stroke="#90cd91" stroke-miterlimit="10" stroke-width="11"/>
    <path d="M5.8,61.82c46.02,0,118.49,0,166.78,0" fill="#303253" stroke="#90cd91" stroke-miterlimit="10" stroke-width="11"/>
    <path d="M60.09,101.61h67" fill="#303253" stroke="#90cd91" stroke-miterlimit="10" stroke-width="11"/>
    <path d="M56.92,132.86c23.78-.3,48.68-.21,72.55-.22" fill="#303253" stroke="#90cd91" stroke-miterlimit="10" stroke-width="11"/>
    <path d="M56.49,163.15h74.34" fill="#303253" stroke="#90cd91" stroke-miterlimit="10" stroke-width="11"/>
    <path d="M178.22,176.54c-15.25,1.65-37.01-.98-41.52,16.32-1.86,7.8-1.05,16.21-1.21,24.38" fill="#7880be" stroke="#90cd91" stroke-miterlimit="10" stroke-width="11"/>
    <path d="M132.17,214.34c14.18-12.16,28.25-24.44,42.21-36.86" fill="#303253" stroke="#90cd91" stroke-miterlimit="10" stroke-width="11"/>
  </g>
</svg>