<?xml version="1.0" encoding="UTF-8"?>
<svg id="Layer_2" data-name="Layer 2" xmlns="http://www.w3.org/2000/svg" viewBox="0 0 98.81 125.28">
  <g id="Layer_1-2" data-name="Layer 1">
    <g id="jpPHEI">
      <g>
        <path d="M45.61,43.04c.28.15,2.05,1.63,2.24,1.89.84,1.19-.05,1.49-.98,2.08-3.16,1.97-7.6,1.73-10.47-.66-1.33,19.5,3.53,39.59,15.17,55.37.48.65,2.58,3.63,3.04,3.83.56.25,1.95-.46,2.58-.72,4.67-1.93,9.73-5.87,13.1-9.59,1.31-1.45,2.38-3.13,3.68-4.59.06-.5-.04-.3-.35-.35-4.37-.68-7.04-1.55-10.59-4.3s-12.04-12.76-1.34-11.3c-.35-.77-.29-1.82.65-2.09,2.57-.72,10.24,5.19,11.76,7.52l1.37-4.06c1.58-2.83,3.48-5.63,5.95-7.76,1.95-1.67,6.03-4.78,6.51-.23,3.92-1.73,4.27,1.17,3.98,4.34-.45,5.02-3.34,10.35-6.59,14.09,3.61.49,10.19,2.69,12.62,5.46,2.22,2.53-.43,2.67-.55,3.19-.18.77,3.35,4.65-.81,5.8s-12.32-3.15-15.63-5.95c-1.36-1.15-2.46-2.6-3.65-3.86-.52-.55-.98.97-1.34,1.48-4.84,6.81-11.44,12.37-19.23,15.5,3.89,4.38,8.46,8.38,13.15,11.89.62.47,4.08,2.66,4.22,2.88.32.5-.97,2.36-1.42,2.37-.58.02-6.86-4.69-7.8-5.45-8.19-6.59-15.11-14.68-20.45-23.75-1.99-.03-4.02.29-6.02.12-3.59-.32-7.58-2.54-10.29-4.84-.57-.48-2.34-2.57-2.77-2.69-.46-.12-1.06.21-1.59.21-5.74.1-14.8-1.71-18.69-6.38-1.1-1.32.96-1.15,2.02-1.2,3.75-.16,7.08.22,10.63,1.42.29-.27-1.85-2.22-2.12-2.54-2.39-2.98-4.52-6.4-5.21-10.21,4.01,1.29,7.22,4.07,10.05,7.09l2,2.37c-.51-3.82-.83-7.78,0-11.58.11-.49.37-2.67,1.07-2.13.29.23,1.01,1.42,1.25,1.82,2.47,4.18,3.71,9.76,3.35,14.6-.08,1.04-.91,3.92-.59,4.61.11.25,1.88,1.94,2.24,2.25,1.78,1.57,6.28,4.37,8.63,4.37h4.37c-.67-2.15-1.85-4.08-2.71-6.15-4.25-10.21-6.49-21.42-6.75-32.47-.06-2.57.09-5.13.25-7.69-2.71,1.3-4.89,1.82-7.85.88-.6-.19-2.87-1.39-3.15-1.82-.5-.78,2.76-3.24,3.44-3.55,1.66-.74,4.63-.82,6.38-.36.75.2,2.84,1.52,3.15,1.49.34-.03,2.16-1.27,2.99-1.49,2.26-.6,5.04-.3,7.09.83Z" fill="#769e76"/>
        <path d="M25.99,42.56c-7.76-2.93-14.19-9.63-15.6-17.96l7.79,4.02c-.91-5.51-1.68-11.76.6-17.01l6.97,12.52c-.2-6.7.55-13.71,3.9-19.62.39-.7,2.03-3.3,2.61-3.54.51-.21.3.36.34.59.93,5.2,1.12,10.53,2.49,15.71.09.36.25,1.29.59,1.41,1.48-6.25,2.08-12,1.77-18.43-.03-.65.97.07,1.19.23,1.23.89,2.83,3.13,3.55,4.49,3.11,5.84,3.29,13.15,2.95,19.62,1.71-.37,2.8-2.74,3.42-4.26,1.46-3.55,1.79-7.43,2.6-11.1,4.51,5.55,5.33,13.79,3.43,20.56,3.2-.22,6.08-1.65,8.98-2.83-2.85,7.91-9.98,13.77-17.96,16.07-2.05-1.13-4.84-1.43-7.09-.83-.82.22-2.65,1.46-2.99,1.49-.31.03-2.4-1.29-3.15-1.49-1.76-.47-4.73-.38-6.38.36Z" fill="#d087aa"/>
        <path d="M7.09,81.32c-3.67-5.54-5.87-11.91-7.09-18.43.17-.17,2.48,1.33,2.81,1.56,1.54,1.04,3.37,2.45,4.81,3.65.22.18.62,1.29.59-.07l-5.38-8.68c6.42.76,13.35,2.46,18.21,6.96.45.42.85,1.18,1.4,1.54-.83,3.8-.52,7.76,0,11.58l-2-2.37c-2.82-3.01-6.04-5.79-10.05-7.09.69,3.82,2.82,7.24,5.21,10.21.26.33,2.4,2.28,2.12,2.54-3.56-1.19-6.88-1.58-10.63-1.42ZM8.74,69.03c.17-.33-.15-.63-.23-.47-.17.33.15.63.23.47Z" fill="#d087aa"/>
        <path d="M8.74,69.03c-.08.16-.4-.14-.23-.47.08-.16.4.14.23.47Z" fill="#fefefe"/>
      </g>
    </g>
  </g>
</svg>