<?xml version="1.0" encoding="UTF-8"?>
<svg id="Layer_2" data-name="Layer 2" xmlns="http://www.w3.org/2000/svg" viewBox="0 0 92.41 47.48">
  <g id="Layer_1-2" data-name="Layer 1">
    <path d="M3.52,15.22c.79,1.37,1.94-2.95,2.73-1.58,1.62,2.8-6.01,1.95-4.39,4.75,2.58,4.47,6.35-9.62,8.93-5.16,2.98,5.15-12.34,2.19-9.36,7.34,3.97,6.87,9.78-14.81,13.74-7.94,4.26,7.39-18.15,2.53-13.88,9.92C7.21,32.82,15.89.45,21.81,10.71c6.14,10.63-26.65,2.87-20.51,13.5,7.38,12.78,18.18-27.53,25.55-14.75S-6.11,12.73,1.44,25.81C9.89,40.43,22.25-5.7,30.69,8.92,39.29,23.82-6.76,12.77,1.84,27.66,11.58,44.52,25.83-8.66,35.56,8.19S-7.4,12.28,2.42,29.29C14.36,49.96,31.83-15.25,43.76,5.42,55.72,26.14-8.91,9.83,3.05,30.55,15.87,52.76,34.64-17.3,47.46,4.91,60.27,27.09-8.93,9.65,3.87,31.83S36.15-17.04,49.24,5.64-7.91,10.72,5.11,33.27C18.31,56.14,37.64-16,50.84,6.86,63.97,29.6-7.24,11.25,5.88,33.98,19.09,56.86,38.43-15.31,51.64,7.57S-6.27,12.03,6.83,34.71C20.01,57.55,39.31-14.48,52.5,8.35c13.01,22.54-57.46,4.56-44.44,27.1C21.17,58.16,40.36-13.48,53.47,9.23S-3.55,13.71,9.36,36.07C22.37,58.61,41.42-12.5,54.44,10.04,67.1,31.97-1.28,14.77,11.38,36.7c12.89,22.32,31.75-48.09,44.64-25.77S1.62,15.58,13.98,37c12.85,22.26,31.67-47.96,44.52-25.7,11.94,20.68-52.54,4.48-40.6,25.17,14.73,25.51,36.3-54.98,51.03-29.46,13.74,23.79-60.65,4.8-46.92,28.59,14.34,24.83,35.32-53.5,49.66-28.67S10.61,11.52,24.41,35.43c14.01,24.26,34.51-52.27,48.52-28.01,13.48,23.34-59.15,5.29-45.67,28.64,13.73,23.78,33.83-51.24,47.56-27.46,13.35,23.12-58.9,4.73-45.55,27.85S62.54-13.96,76.05,9.43c12.57,21.78-55.54,4.36-42.97,26.14,12.74,22.06,31.39-47.54,44.12-25.48,11.52,19.95-50.72,4.24-39.2,24.19,11.89,20.59,29.3-44.37,41.19-23.78,11.7,20.26-51.24,4.77-39.54,25.03,13.35,23.13,32.9-49.84,46.26-26.71,13.12,22.72-57.66,5-44.54,27.71S74.14-13.09,87.44,9.95c11.95,20.69-52.5,4.59-40.55,25.28s29.43-44.57,41.37-23.89c11.46,19.84-50.25,4.55-38.79,24.39S77.57-6.85,88.98,12.91c11.2,19.4-49.27,4.22-38.07,23.63,11.13,19.28,27.44-41.55,38.57-22.27s-47.82,4.23-36.94,23.09c10.79,18.69,26.59-40.28,37.39-21.59,10.46,18.11-45.81,4.26-35.35,22.37,10.32,17.87,25.43-38.51,35.74-20.64,10.04,17.38-44.25,3.62-34.21,21S80.6,1.44,90.53,18.64c9.3,16.11-40.52,4.13-31.22,20.24s22.39-33.91,31.48-18.17c8.5,14.72-36.99,3.83-28.49,18.55,8.26,14.31,20.35-30.82,28.61-16.52,7.96,13.78-34.84,3.26-26.88,17.04,7.76,13.44,19.12-28.96,26.88-15.52s-32.94,3.31-25.39,16.4c7.3,12.65,17.99-27.25,25.29-14.6,7.18,12.44-31.14,3.42-23.96,15.86s16.83-25.49,23.66-13.66-29.34,3.25-22.57,14.97c6.35,11,15.65-23.71,22.01-12.71s-27.68,2.58-21.36,13.53,14.78-22.39,20.78-12-25.86,2.74-19.91,13.05c5.32,9.21,13.1-19.84,18.42-10.63,5.19,9-22.35,2.73-17.15,11.73,2.26,3.92,5.58-8.45,7.84-4.53" fill="none" stroke="#313354" stroke-linecap="round" stroke-linejoin="round"/>
    <g>
      <path d="M11.27,30.06c-2.55,2.26-3.93-2.55-4.69-4.4-.67-1.95-2.48-5.05-.66-6.19,1.98-.26,2.41,2.52,3.14,3.88.3.53.53,1.28,1.19,1.29,1.61-1.01,1.64-5.03,4.12-5.14,2.1.43.05,4.07-.51,5.5-.9,1.87-1.37,3.55-2.47,4.94l-.11.12Z" fill="#7880be"/>
      <path d="M19.87,27.52c-6.04-1.54-5.29-9.3.27-10.87,2.2-.58,5.33.22,6.23,2.44.63,1.78-1.01,3.03-2.69,3.4-1.24.47-3.48.23-4.18,1.41-.03.29.23.51.5.67,1.18.73,3.91.75,4.59,1.49.32.3.22.72-.1,1.01-1.15.98-3,.88-4.43.5l-.2-.06ZM22.35,19.02c-.78-.21-1.83.02-2.47.54-.41.31-1.1.96-.79,1.09.18.1.71,0,1.12-.04,1.31-.22,6.01-.3,2.33-1.54l-.19-.05Z" fill="#7880be"/>
      <path d="M36.09,22.71c-.63,2.33-2.2.19-3.67.38-.94.23-1.56,1.11-1.8,2.33-.52,1.49.97,6.84-1.89,5.99-1.11-.56-1.08-3.74-1.33-6.1-.07-1.2-.32-2.48.06-3.62.63-1.71,2.66-1.26,4.13-1.71,2.36-.82,4.7-.33,4.53,2.56l-.03.16Z" fill="#7880be"/>
      <path d="M41.79,15.25c3.27.84,9.15-.41,10.12,4.27.51,2.24.57,4.95.15,7.15-.82,3.4-2.29,1.9-2.5-1.14-.15-1.43-.06-2.91-.52-4.26-1.4-3.07-2.61,1.66-2.65,3.05-.21,1.32-.34,3.72-1.53,4.09-.42.03-.84-.57-1.08-1.6-.46-1.75-.05-4.16-.47-5.9-1.28-3.31-3.09,4.47-3.72,5.05-.41.72-1.19.86-1.53-.03-.92-2.72-.42-7.49.79-9.93.71-1.17,1.73-.97,2.82-.77l.12.02Z" fill="#7880be"/>
      <path d="M57.86,30.49c-6.94-1.01-4.69-12.26,2.1-11.06,6.08,1.17,3.98,11.71-1.92,11.08l-.18-.02ZM59.27,22.04c-2.89-.23-4.17,5.61-.88,5.77,2.67.26,3.53-5.29,1.03-5.75l-.15-.02Z" fill="#7880be"/>
      <path d="M74.9,26.43c-2.66-.41-2.71-5.46-4-6.61-.7-.72-1.38-.14-1.85,1.16-.92,1.42.38,8.04-2.29,7.11-.35-.2-.65-.56-.88-.94-1.01-1.93-1.53-5.15-1.75-7.58-.05-1.21.19-2.32,1.27-2.89,1.44-.67,4.04-1.34,5.94-.99,2,.56,2.91,3.11,3.51,4.99.53,1.46,1.57,5.25.13,5.72l-.09.02Z" fill="#7880be"/>
      <path d="M84.33,24c-3.17,1.16-2.78,4.51-4.06,7.02-.71,1.37-2.5,1.97-2.83.06-.37-2.01,1.22-4.66.43-6.7-.31-1.45-2.76-3.38-.61-4.35.5-.29,1.04-.55,1.53-.87.98-.58,1.93-1.67,2.77-1.59,1,.16,1.56,1.94,2.49,2.97,1.04,1.22,2.71,2.38.43,3.39l-.15.08Z" fill="#7880be"/>
    </g>
  </g>
</svg>