<?xml version="1.0" encoding="UTF-8"?>
<svg id="Layer_2" data-name="Layer 2" xmlns="http://www.w3.org/2000/svg" viewBox="0 0 101.29 48.92">
  <g id="Layer_1-2" data-name="Layer 1">
    <g>
      <path d="M60.12,5.81c.61,1.05,1.5-2.27,2.11-1.22,13.4,23.21-58.89,5.12-45.5,28.33,13.83,23.96,34.08-51.62,47.91-27.66,13.41,23.23-58.93,5.19-45.51,28.42S52.78-17.28,66.43,6.37,6.73,11.29,20.27,34.76,54.11-16.49,67.85,7.29c13.69,23.71-60.1,5.36-46.41,29.08S55.91-15.83,69.9,8.4c13.96,24.18-61.72,4.77-47.76,28.96S57.22-15.78,71.46,8.88,8.98,13.96,23.14,38.5c16.21,28.08,39.95-60.51,56.17-32.43,16.07,27.84-70.98,5.62-54.91,33.46,16.58,28.72,40.86-61.89,57.44-33.16,16.37,28.35-72.19,5.85-55.82,34.2,16.68,28.89,41.1-62.26,57.79-33.36,16.44,28.47-72.43,5.98-56,34.45,16.7,28.93,41.16-62.34,57.86-33.41,16.45,28.48-72.57,5.82-56.13,34.31,16.68,28.89,41.1-62.24,57.77-33.36,16.25,28.14-71.89,5.43-55.64,33.57,16.44,28.48,40.52-61.37,56.96-32.89,13.58,23.52-59.98,4.72-46.4,28.23S76.33-13.52,90.17,10.44c13.58,23.52-59.95,4.79-46.36,28.32,14,24.24,34.49-52.24,48.49-28,13.91,24.09-61.08,5.4-47.17,29.49,14.45,25.03,35.61-53.94,50.06-28.9s-63.77,4.79-49.36,29.75S81.6-13.1,96.12,12.05s-63.61,4.92-49.22,29.85c14.39,24.93,35.47-53.71,49.86-28.79,14.04,24.31-61.89,5.06-47.85,29.37,13.95,24.16,34.37-52.06,48.32-27.9,13.39,23.19-58.89,5.04-45.51,28.23S84.35-6.61,97.6,16.33s-56.49,4.32-43.72,26.44,31.24-47.31,43.92-25.35c11.27,19.52-49.69,4.07-38.42,23.6,11.15,19.32,27.49-41.63,38.64-22.31,9.45,16.37-41.58,3.57-32.12,19.95,9.34,16.17,23.01-34.85,32.35-18.68,8.25,14.28-35.85,3.77-27.61,18.05,8.08,14,19.91-30.16,27.99-16.16,7.28,12.61-31.49,3.57-24.21,16.17,7.14,12.36,17.59-26.64,24.73-14.28,6.83,11.83-29.94,2.75-23.11,14.58s16.69-25.28,23.46-13.55-28.48,3.04-21.92,14.4,15.86-24.03,22.3-12.88-26.94,3.2-20.69,14.03,14.85-22.49,20.87-12.05c5.65,9.79-24.24,3.1-18.58,12.89,5.27,9.13,12.99-19.68,18.27-10.55,2.83,4.9-11.57,2.27-8.75,7.17,2.09,3.62,5.15-7.8,7.24-4.18" fill="none" stroke="#685e30" stroke-linecap="round" stroke-linejoin="round"/>
      <path d="M17.33,8.51c.68,1.18,1.68-2.55,2.37-1.37" fill="none" stroke="#685e30" stroke-linecap="round" stroke-linejoin="round"/>
      <path d="M4.4,14c.94,1.62,2.31-3.5,3.24-1.87,1.77,3.06-7.1,1.59-5.33,4.65,2.28,3.94,5.61-8.5,7.89-4.55,2.83,4.9-11.66,2.18-8.83,7.08C7.37,29.71,16.16-3.09,22.16,7.3c6.2,10.73-27.09,2.61-20.89,13.34S17.2-3.48,23.66,7.72c6.68,11.58-29,3.15-22.32,14.72,7.14,12.37,17.6-26.65,24.74-14.28S-5.79,11.11,1.49,23.71c7.68,13.3,18.93-28.67,26.61-15.36C35.9,21.86-6.1,11.45,1.7,24.96,9.92,39.19,21.94-5.7,30.16,8.53S-6.36,11.66,1.94,26.04C10.79,41.38,23.76-7,32.61,8.33,41.55,23.82-6.66,11.82,2.29,27.31,13.19,46.2,29.15-13.38,40.06,5.51S-8.11,10.05,2.9,29.11C14.44,49.1,31.34-13.96,42.88,6.03S-8.04,10.63,3.57,30.74,33.57-14.69,45.74,6.39-8.06,10.81,4.15,31.94C16.81,53.87,35.34-15.3,48,6.62,60.68,28.58-7.84,11.27,4.83,33.23,17.81,55.69,36.8-15.18,49.77,7.29,62.76,29.8-7.24,12.46,5.76,34.98,18.88,57.71,38.1-14,51.22,8.73,64.35,31.47-6.38,13.93,6.75,36.67,20.1,59.79,39.64-13.13,52.98,9.98c13.32,23.08-58.88,4.57-45.56,27.65C21.15,61.4,41.24-13.6,54.97,10.18S-5.33,15.02,8.34,38.69c1.8,3.11,4.43-6.7,6.22-3.59,1.64,2.84-6.17,1.9-4.53,4.74,1.04,1.8,2.56-3.87,3.59-2.07" fill="none" stroke="#685e30" stroke-linecap="round" stroke-linejoin="round"/>
    </g>
    <path d="M13.41,27.26c-2.35.06-4.73-1.26-5.52-3.51-1.47-3.83,3.05-9.32,7.43-7.8,1.13.35,2.54,1.45.94,2.08-1.5.57-4,.98-4.72,2.75-1.21,3.32,2.26,3.49,4.81,3.87,2.87.8-1.43,2.82-2.73,2.61h-.21Z" fill="#f5db79"/>
    <path d="M26.48,22.84c-2.25-.29-5.9-1.16-7.31-3.36-2.53-4.5,2.99-10.42,7.94-8.36,3.27,1.19,2.95,3.9,1.83,6.67-.64,1.54-.16,4.89-2.33,5.04h-.14ZM26.52,15.42c1.17-2.67-2.49-2.1-3.67-.98-1.35,1.09-2,3.5-.56,4.48,3.02,1.71,3.49-1.14,4.17-3.35l.06-.16Z" fill="#f5db79"/>
    <path d="M36.87,31.66c-1.64,1.26-1.78,3.45-2.99,4.95-1.91,1.03-2.53-5.1-2.78-6.81-.32-2.45-.9-4.5-.99-6.72-.46-4.8,7.96-4.04,9.59-.93,2.16,3.72.72,7.23-2.7,9.4l-.13.11ZM35.81,22.86c-1.54.12-2.7,1.56-2.24,3.07.22,1.02.21,2.61,1.53,2.77.94.11,2.08-.32,2.51-1.21.58-1.43.27-4.42-1.63-4.63h-.17Z" fill="#f5db79"/>
    <path d="M47.34,24.44c-9.55-.13-7.11-12.91,1.66-10.97,1.66.43,3.02,1.89,2.06,3.51-.91,1.66-3.54,2.31-4.7,3.74-.77,1.5,4.1.69,4.82,1.26.42.14.63.52.36.91-.85,1.12-2.55,1.51-3.98,1.56h-.22ZM47.14,15.63c-1.04.06-2.01.72-2.51,1.64-.25.43-.34.81-.12.87.18.07.58-.08,1-.26,1.2-.57,5.67-2.09,1.84-2.26h-.21Z" fill="#f5db79"/>
    <path d="M67.94,28.63c-2.35.06-4.73-1.26-5.52-3.51-1.47-3.83,3.05-9.32,7.43-7.8,1.13.35,2.54,1.45.94,2.08-1.5.57-4,.98-4.72,2.75-1.21,3.32,2.26,3.49,4.81,3.87,2.87.8-1.43,2.82-2.73,2.61h-.21Z" fill="#f5db79"/>
    <path d="M77.01,24.27c-6.82-1.85-3.24-12.75,3.32-10.76,5.9,1.91,2.67,12.03-3.15,10.8l-.18-.04ZM79.36,16c-2.9-.49-4.75,5.1-1.52,5.65,2.63.51,4.13-4.79,1.67-5.62l-.15-.03Z" fill="#f5db79"/>
    <path d="M90.66,17.99c.98-.9,1.33-2.57,2.25-3.47,2.79-1.17,1.19,9.17,1.48,10.79-.02,1.46.06,3.15-.65,4.38-1.67,2.35-5.83,1.61-8.02.17-2.61-1.83-2.83-6.06-.83-8.41,1.55-1.93,4.16-1.95,5.66-3.37l.11-.1ZM91.1,23.05c-.51-1.22-2.36-1.44-3.45-.84-1.56.82-1.88,3.17-1.01,4.61.91,1.68,3.87,1.55,4.48.1.41-1.11.32-2.58.04-3.71l-.06-.16Z" fill="#f5db79"/>
  </g>
</svg>