<?xml version="1.0" encoding="UTF-8"?>
<svg id="Layer_2" data-name="Layer 2" xmlns="http://www.w3.org/2000/svg" viewBox="0 0 140.3 46.18">
  <g id="Layer_1-2" data-name="Layer 1">
    <g id="_0BvOET" data-name="0BvOET">
      <g>
        <path d="M92.22,33.99c-.17.65-2.89-1.03-5.38-2.39h0c0-.16.22-.17.76.03.59.17,2.87,1.65,4.63,2.35Z" fill="#1c1b3a"/>
        <path d="M88.04,40.59c1.56-.13,3.07-.59,4.56-.97-.71,1.01-2.8,1.4-4.33,1.63-6.18,1-12.7,2.34-18.78.28-1.74-.79-2.35-2.19-3.33-3.3-1.02-1.37-2.97-1.75-4.63-1.99-2.72-.41-4.22-1.21-6.19-1.42-1.83-.25-4.94-.04-5.02-2.47-.19-1.41-1.61-.64-2.75-.35-1.57.51-3.32,1.05-4.98,1.22-3.76.57-6.83-.95-10.84-1.44-3.76-.7-7.65.38-11.4.16-3.43-.37-3.18-4.59-2.89-7.21.03-.2.09-.4.15-.58,0,0,.02,0,.03,0,1.15.59,1,3.56,1.82,5.12,1.28,2.24,4.33,1.34,6.55,1.15,1.67-.22,3.34-.28,5.01-.13,3.31.07,6.67,1.46,9.6,1.72,2.09.11,4.11-.14,6.12-.84,1.66-.55,3.73-1.78,5.29-2.14.88-.12.46.72.32,1.28-.18.61-.41,1.32-.32,1.96.15,1.32,2.29.9,3.81.96,2.5-.1,2.9,1.46,6.25,1.94,2.55.36,6.06-.28,6.57,3.05,1.37,6.13,14.79,2.85,19.39,2.34Z" fill="#596e60"/>
        <path d="M92,37.09c.54.64.79,1.18.83,1.64-2.26-1.04-4.42-2.59-6.03-3.99-.71-.56-5.25-5.12-2.02-4.18.62.28,1.33.64,2.06,1.03h0c.03.77,4.78,4.74,5.17,5.5Z" fill="#596e60"/>
        <path d="M92.22,33.99c.12-.42-.86-1.85-3.7-5.03-2.94-3.4-6.62-6.52-8.88-10.5-1.13-2.11-.3-2.77-.33-4.5,0-.66-.03-1.36,0-2.02.02-.32.05-.61.12-.85.3-1.03,1.19-.9.28-2.46-.53-1.35-5.83-6.93-4.72-8.29.1.03.2.08.29.12l.11.06c1.58.82,2.93,2.85,4.09,4.44,1.17,1.66,2.57,3.32,3.13,5.17.44,1.45-.17,2.98-.44,4.54-.19,3.04.68,5.16,2.99,7.79,2.77,3.44,7.56,7.08,9.22,11,.15,1.16-.86,1.07-2.16.54Z" fill="#596e60"/>
        <path d="M94.17,39.28c-.53.09-1.05.21-1.58.34-1.49.38-3,.84-4.56.97-4.6.51-18.02,3.79-19.39-2.34-.52-3.33-4.02-2.69-6.57-3.05-3.35-.48-3.76-2.04-6.25-1.94-1.52-.06-3.66.36-3.81-.96-.09-.65.14-1.35.32-1.96.14-.56.56-1.4-.32-1.28-1.56.35-3.63,1.58-5.29,2.14-2.02.71-4.03.96-6.12.84-2.93-.26-6.29-1.65-9.6-1.72-1.67-.15-3.34-.09-5.01.13-2.21.19-5.26,1.09-6.55-1.15-.82-1.57-.66-4.53-1.82-5.12,0,0-.02,0-.03,0,1.03-3.39,5.25-4.69,8.15-6.35,5.87-3.07,11.54-4.01,17.84-4.64,3.55-.45,6.85-1.82,9.96-3.51,3.3-1.77,6.79-3.53,10.05-5.69,3.06-1.95,7.94-4.97,11.38-3.63-1.11,1.36,4.19,6.93,4.72,8.29.9,1.57.02,1.43-.28,2.46-.07.24-.1.53-.12.85-.03.65.02,1.35,0,2.02.03,1.73-.8,2.39.33,4.5,2.26,3.98,5.94,7.1,8.88,10.5,2.84,3.18,3.82,4.61,3.7,5.03-1.76-.7-4.04-2.18-4.63-2.35-.53-.21-.76-.2-.76-.04-.72-.4-1.44-.76-2.06-1.03-3.23-.94,1.31,3.62,2.02,4.18,1.61,1.4,3.77,2.95,6.03,3.99.45.21.89.4,1.34.56Z" fill="#313354"/>
        <path d="M127.03,32.14c.11,1.17-1.38,1.23-2.52.89-3.36-.73-9.04-4.65-12.19-5.12-1.28.1,1.02,3.42,1.1,4.36,1.22,3.29-1.61,5.37-4.56,5.56-2.52.44-5.34-1.04-7.61-1.77-.9-.13-.54,1.01-.65,1.64-.04.73-.18,1.52-.88,1.93-1.24.43-2.61.42-4.01.1h0c-.48-.1-.96-.24-1.44-.41-.03,0-.07-.03-.1-.03h0c-.46-.16-.9-.35-1.34-.56-2.26-1.04-4.42-2.59-6.03-3.99-.71-.56-5.25-5.12-2.02-4.18.62.28,1.33.64,2.06,1.03h0c2.5,1.36,5.21,3.04,5.38,2.39.12-.42-.86-1.85-3.7-5.03-2.94-3.4-6.62-6.52-8.88-10.5-1.13-2.11-.3-2.77-.33-4.5,0-.66-.03-1.36,0-2.02.02-.32.05-.61.12-.85.3-1.03,1.19-.9.28-2.46-.53-1.35-5.83-6.93-4.72-8.29.09-.11.23-.2.43-.25h.07c3.89.59,7.67,4.28,11.14,6.15,6.86,4.12,13.98,8.03,20.71,12.4,4.52,2.9,9.47,5.19,14.1,7.79,1.87,1.18,4.19,2.57,5.19,4.56.18.36.32.75.4,1.15Z" fill="#1c1b3a"/>
        <path d="M96.48,41.75c-.29,2.44-3.85,2.47-6.69,2.67-.86.06-1.65.13-2.27.29-7.21,1.44-14.08,1.98-21.34.85-8.95-1.17-17.89-2.54-26.64-4.27-8.83-1.95-17.58-4.36-26.61-4.8-3.81-.47-9.06-.31-12.24-2.34-2.28-2.04,1.64-3.43,4.56-4.34,1.98-.6,3.97-1.29,5.73-2.39,1.81-1.04,3.69-2.96,5.65-3.41h.1c.32-.05.62,0,.89.15,0,0,.02,0,.03,0,1.15.59,1,3.56,1.82,5.12,1.28,2.24,4.33,1.34,6.55,1.15,1.67-.22,3.34-.28,5.01-.13,3.31.07,6.67,1.46,9.6,1.72,2.09.11,4.11-.14,6.12-.84,1.66-.55,3.73-1.78,5.29-2.14.88-.12.46.72.32,1.28-.18.61-.41,1.32-.32,1.96.15,1.32,2.29.9,3.81.96,2.5-.1,2.9,1.46,6.25,1.94,2.55.36,6.06-.28,6.57,3.05,1.37,6.13,14.79,2.85,19.39,2.34,1.56-.13,3.07-.59,4.56-.97.53-.13,1.05-.25,1.58-.34h0c.07-.02.14-.03.21-.04.05,0,.1,0,.15,0,.47,0,.88.19,1.19.49h0c.52.48.79,1.25.75,2.02Z" fill="#1c1b3a"/>
        <path d="M93.44,39.8c1.11-1.05,3.19-.5,4.45-1.31,1.2-.78-.33-3.82.3-4.33.17-.13.38-.12.61-.08,2.2.65,4.66,2.45,7.12,2.57,3.47.3,7.08-1.46,6.04-4.86-.02-1.4-4.39-7-2.88-7.37.85.08,1.89.8,2.73,1.23,2.85,1.64,6.07,3.1,9.27,4.66,1.47.6,3.48,1.85,4.95,1.11.7-.36,1.07-1.19,1.92-1.09,1.03.05,3.24,1.74,5.65,3.02,1.86,1.02,4.18,1.75,5.98,2.76,4.17,2.56-11.48,2.8-12.69,2.78-3.55.01-7.14.06-10.66.63-6.35.97-12.2,3.63-18.58,4.48-3.09.42-6.62.55-9.64.34-.12-.01-.2-.02-.23-.04-.03,0-.03-.02,0-.03.43-.07,4.28-.11,4.73-1.86.36-.81.29-1.86.86-2.55l.06-.06Z" fill="#313354"/>
      </g>
    </g>
    <g>
      <path d="M33.95,34c-2.55,2.26-3.93-2.55-4.69-4.4-.67-1.95-2.48-5.05-.66-6.19,1.98-.26,2.41,2.52,3.14,3.88.3.53.53,1.28,1.19,1.29,1.61-1.01,1.64-5.03,4.12-5.14,2.1.43.05,4.07-.51,5.5-.9,1.87-1.37,3.55-2.47,4.94l-.11.12Z" fill="#7880be"/>
      <path d="M42.55,31.47c-6.04-1.54-5.29-9.3.27-10.87,2.2-.58,5.33.22,6.23,2.44.63,1.78-1.01,3.03-2.69,3.4-1.24.47-3.48.23-4.18,1.41-.03.29.23.51.5.67,1.18.73,3.91.75,4.59,1.49.32.3.22.72-.1,1.01-1.15.98-3,.88-4.43.5l-.2-.06ZM45.03,22.97c-.78-.21-1.83.02-2.47.54-.41.31-1.1.96-.79,1.09.18.1.71,0,1.12-.04,1.31-.22,6.01-.3,2.33-1.54l-.19-.05Z" fill="#7880be"/>
      <path d="M58.77,26.66c-.63,2.33-2.2.19-3.67.38-.94.23-1.56,1.11-1.8,2.33-.52,1.49.97,6.84-1.89,5.99-1.11-.56-1.08-3.74-1.33-6.1-.07-1.2-.32-2.48.06-3.62.63-1.71,2.66-1.26,4.13-1.71,2.36-.82,4.7-.33,4.53,2.56l-.03.16Z" fill="#7880be"/>
      <path d="M64.47,19.2c3.27.84,9.15-.41,10.12,4.27.51,2.24.57,4.95.15,7.15-.82,3.4-2.29,1.9-2.5-1.14-.15-1.43-.06-2.91-.52-4.26-1.4-3.07-2.61,1.66-2.65,3.05-.21,1.32-.34,3.72-1.53,4.09-.42.03-.84-.57-1.08-1.6-.46-1.75-.05-4.16-.47-5.9-1.28-3.31-3.09,4.47-3.72,5.05-.41.72-1.19.86-1.53-.03-.92-2.72-.42-7.49.79-9.93.71-1.17,1.73-.97,2.82-.77l.12.02Z" fill="#7880be"/>
      <path d="M80.54,34.44c-6.94-1.01-4.69-12.26,2.1-11.06,6.08,1.17,3.98,11.71-1.92,11.08l-.18-.02ZM81.95,25.99c-2.89-.23-4.17,5.61-.88,5.77,2.67.26,3.53-5.29,1.03-5.75l-.15-.02Z" fill="#7880be"/>
      <path d="M97.58,30.38c-2.66-.41-2.71-5.46-4-6.61-.7-.72-1.38-.14-1.85,1.16-.92,1.42.38,8.04-2.29,7.11-.35-.2-.65-.56-.88-.94-1.01-1.93-1.53-5.15-1.75-7.58-.05-1.21.19-2.32,1.27-2.89,1.44-.67,4.04-1.34,5.94-.99,2,.56,2.91,3.11,3.51,4.99.53,1.46,1.57,5.25.13,5.72l-.09.02Z" fill="#7880be"/>
      <path d="M107.01,27.95c-3.17,1.16-2.78,4.51-4.06,7.02-.71,1.37-2.5,1.97-2.83.06-.37-2.01,1.22-4.66.43-6.7-.31-1.45-2.76-3.38-.61-4.35.5-.29,1.04-.55,1.53-.87.98-.58,1.93-1.67,2.77-1.59,1,.16,1.56,1.94,2.49,2.97,1.04,1.22,2.71,2.38.43,3.39l-.15.08Z" fill="#7880be"/>
    </g>
  </g>
</svg>